%TF.GenerationSoftware,KiCad,Pcbnew,10.0.4*%
%TF.CreationDate,2026-09-09T18:57:13-04:00*%
%TF.ProjectId,Blare,426c6172-652e-46b6-9963-61645f706362,rev?*%
%TF.SameCoordinates,Original*%
%TF.FileFunction,Legend,Top*%
%TF.FilePolarity,Positive*%
%FSLAX46Y46*%
G04 Gerber Fmt 4.6, Leading zero omitted, Abs format (unit mm)*
G04 Created by KiCad (PCBNEW 10.0.4) date 2026-09-09 18:57:13*
%MOMM*%
%LPD*%
G01*
G04 APERTURE LIST*
%ADD10C,0.150000*%
%ADD11C,0.120000*%
G04 APERTURE END LIST*
D10*
X140586667Y-125003200D02*
X140729524Y-125050819D01*
X140729524Y-125050819D02*
X140967619Y-125050819D01*
X140967619Y-125050819D02*
X141062857Y-125003200D01*
X141062857Y-125003200D02*
X141110476Y-124955580D01*
X141110476Y-124955580D02*
X141158095Y-124860342D01*
X141158095Y-124860342D02*
X141158095Y-124765104D01*
X141158095Y-124765104D02*
X141110476Y-124669866D01*
X141110476Y-124669866D02*
X141062857Y-124622247D01*
X141062857Y-124622247D02*
X140967619Y-124574628D01*
X140967619Y-124574628D02*
X140777143Y-124527009D01*
X140777143Y-124527009D02*
X140681905Y-124479390D01*
X140681905Y-124479390D02*
X140634286Y-124431771D01*
X140634286Y-124431771D02*
X140586667Y-124336533D01*
X140586667Y-124336533D02*
X140586667Y-124241295D01*
X140586667Y-124241295D02*
X140634286Y-124146057D01*
X140634286Y-124146057D02*
X140681905Y-124098438D01*
X140681905Y-124098438D02*
X140777143Y-124050819D01*
X140777143Y-124050819D02*
X141015238Y-124050819D01*
X141015238Y-124050819D02*
X141158095Y-124098438D01*
X141491429Y-124050819D02*
X141729524Y-125050819D01*
X141729524Y-125050819D02*
X141920000Y-124336533D01*
X141920000Y-124336533D02*
X142110476Y-125050819D01*
X142110476Y-125050819D02*
X142348572Y-124050819D01*
X142681905Y-124146057D02*
X142729524Y-124098438D01*
X142729524Y-124098438D02*
X142824762Y-124050819D01*
X142824762Y-124050819D02*
X143062857Y-124050819D01*
X143062857Y-124050819D02*
X143158095Y-124098438D01*
X143158095Y-124098438D02*
X143205714Y-124146057D01*
X143205714Y-124146057D02*
X143253333Y-124241295D01*
X143253333Y-124241295D02*
X143253333Y-124336533D01*
X143253333Y-124336533D02*
X143205714Y-124479390D01*
X143205714Y-124479390D02*
X142634286Y-125050819D01*
X142634286Y-125050819D02*
X143253333Y-125050819D01*
X108998095Y-152914819D02*
X108998095Y-151914819D01*
X108998095Y-152391009D02*
X109569523Y-152391009D01*
X109569523Y-152914819D02*
X109569523Y-151914819D01*
X109950476Y-151914819D02*
X110569523Y-151914819D01*
X110569523Y-151914819D02*
X110236190Y-152295771D01*
X110236190Y-152295771D02*
X110379047Y-152295771D01*
X110379047Y-152295771D02*
X110474285Y-152343390D01*
X110474285Y-152343390D02*
X110521904Y-152391009D01*
X110521904Y-152391009D02*
X110569523Y-152486247D01*
X110569523Y-152486247D02*
X110569523Y-152724342D01*
X110569523Y-152724342D02*
X110521904Y-152819580D01*
X110521904Y-152819580D02*
X110474285Y-152867200D01*
X110474285Y-152867200D02*
X110379047Y-152914819D01*
X110379047Y-152914819D02*
X110093333Y-152914819D01*
X110093333Y-152914819D02*
X109998095Y-152867200D01*
X109998095Y-152867200D02*
X109950476Y-152819580D01*
X121476667Y-144063200D02*
X121619524Y-144110819D01*
X121619524Y-144110819D02*
X121857619Y-144110819D01*
X121857619Y-144110819D02*
X121952857Y-144063200D01*
X121952857Y-144063200D02*
X122000476Y-144015580D01*
X122000476Y-144015580D02*
X122048095Y-143920342D01*
X122048095Y-143920342D02*
X122048095Y-143825104D01*
X122048095Y-143825104D02*
X122000476Y-143729866D01*
X122000476Y-143729866D02*
X121952857Y-143682247D01*
X121952857Y-143682247D02*
X121857619Y-143634628D01*
X121857619Y-143634628D02*
X121667143Y-143587009D01*
X121667143Y-143587009D02*
X121571905Y-143539390D01*
X121571905Y-143539390D02*
X121524286Y-143491771D01*
X121524286Y-143491771D02*
X121476667Y-143396533D01*
X121476667Y-143396533D02*
X121476667Y-143301295D01*
X121476667Y-143301295D02*
X121524286Y-143206057D01*
X121524286Y-143206057D02*
X121571905Y-143158438D01*
X121571905Y-143158438D02*
X121667143Y-143110819D01*
X121667143Y-143110819D02*
X121905238Y-143110819D01*
X121905238Y-143110819D02*
X122048095Y-143158438D01*
X122381429Y-143110819D02*
X122619524Y-144110819D01*
X122619524Y-144110819D02*
X122810000Y-143396533D01*
X122810000Y-143396533D02*
X123000476Y-144110819D01*
X123000476Y-144110819D02*
X123238572Y-143110819D01*
X123524286Y-143110819D02*
X124143333Y-143110819D01*
X124143333Y-143110819D02*
X123810000Y-143491771D01*
X123810000Y-143491771D02*
X123952857Y-143491771D01*
X123952857Y-143491771D02*
X124048095Y-143539390D01*
X124048095Y-143539390D02*
X124095714Y-143587009D01*
X124095714Y-143587009D02*
X124143333Y-143682247D01*
X124143333Y-143682247D02*
X124143333Y-143920342D01*
X124143333Y-143920342D02*
X124095714Y-144015580D01*
X124095714Y-144015580D02*
X124048095Y-144063200D01*
X124048095Y-144063200D02*
X123952857Y-144110819D01*
X123952857Y-144110819D02*
X123667143Y-144110819D01*
X123667143Y-144110819D02*
X123571905Y-144063200D01*
X123571905Y-144063200D02*
X123524286Y-144015580D01*
X140586667Y-144043200D02*
X140729524Y-144090819D01*
X140729524Y-144090819D02*
X140967619Y-144090819D01*
X140967619Y-144090819D02*
X141062857Y-144043200D01*
X141062857Y-144043200D02*
X141110476Y-143995580D01*
X141110476Y-143995580D02*
X141158095Y-143900342D01*
X141158095Y-143900342D02*
X141158095Y-143805104D01*
X141158095Y-143805104D02*
X141110476Y-143709866D01*
X141110476Y-143709866D02*
X141062857Y-143662247D01*
X141062857Y-143662247D02*
X140967619Y-143614628D01*
X140967619Y-143614628D02*
X140777143Y-143567009D01*
X140777143Y-143567009D02*
X140681905Y-143519390D01*
X140681905Y-143519390D02*
X140634286Y-143471771D01*
X140634286Y-143471771D02*
X140586667Y-143376533D01*
X140586667Y-143376533D02*
X140586667Y-143281295D01*
X140586667Y-143281295D02*
X140634286Y-143186057D01*
X140634286Y-143186057D02*
X140681905Y-143138438D01*
X140681905Y-143138438D02*
X140777143Y-143090819D01*
X140777143Y-143090819D02*
X141015238Y-143090819D01*
X141015238Y-143090819D02*
X141158095Y-143138438D01*
X141491429Y-143090819D02*
X141729524Y-144090819D01*
X141729524Y-144090819D02*
X141920000Y-143376533D01*
X141920000Y-143376533D02*
X142110476Y-144090819D01*
X142110476Y-144090819D02*
X142348572Y-143090819D01*
X143158095Y-143424152D02*
X143158095Y-144090819D01*
X142920000Y-143043200D02*
X142681905Y-143757485D01*
X142681905Y-143757485D02*
X143300952Y-143757485D01*
X121466667Y-124873200D02*
X121609524Y-124920819D01*
X121609524Y-124920819D02*
X121847619Y-124920819D01*
X121847619Y-124920819D02*
X121942857Y-124873200D01*
X121942857Y-124873200D02*
X121990476Y-124825580D01*
X121990476Y-124825580D02*
X122038095Y-124730342D01*
X122038095Y-124730342D02*
X122038095Y-124635104D01*
X122038095Y-124635104D02*
X121990476Y-124539866D01*
X121990476Y-124539866D02*
X121942857Y-124492247D01*
X121942857Y-124492247D02*
X121847619Y-124444628D01*
X121847619Y-124444628D02*
X121657143Y-124397009D01*
X121657143Y-124397009D02*
X121561905Y-124349390D01*
X121561905Y-124349390D02*
X121514286Y-124301771D01*
X121514286Y-124301771D02*
X121466667Y-124206533D01*
X121466667Y-124206533D02*
X121466667Y-124111295D01*
X121466667Y-124111295D02*
X121514286Y-124016057D01*
X121514286Y-124016057D02*
X121561905Y-123968438D01*
X121561905Y-123968438D02*
X121657143Y-123920819D01*
X121657143Y-123920819D02*
X121895238Y-123920819D01*
X121895238Y-123920819D02*
X122038095Y-123968438D01*
X122371429Y-123920819D02*
X122609524Y-124920819D01*
X122609524Y-124920819D02*
X122800000Y-124206533D01*
X122800000Y-124206533D02*
X122990476Y-124920819D01*
X122990476Y-124920819D02*
X123228572Y-123920819D01*
X124133333Y-124920819D02*
X123561905Y-124920819D01*
X123847619Y-124920819D02*
X123847619Y-123920819D01*
X123847619Y-123920819D02*
X123752381Y-124063676D01*
X123752381Y-124063676D02*
X123657143Y-124158914D01*
X123657143Y-124158914D02*
X123561905Y-124206533D01*
X179188095Y-116389819D02*
X179188095Y-115389819D01*
X179188095Y-115866009D02*
X179759523Y-115866009D01*
X179759523Y-116389819D02*
X179759523Y-115389819D01*
X180759523Y-116389819D02*
X180188095Y-116389819D01*
X180473809Y-116389819D02*
X180473809Y-115389819D01*
X180473809Y-115389819D02*
X180378571Y-115532676D01*
X180378571Y-115532676D02*
X180283333Y-115627914D01*
X180283333Y-115627914D02*
X180188095Y-115675533D01*
X179188095Y-152884819D02*
X179188095Y-151884819D01*
X179188095Y-152361009D02*
X179759523Y-152361009D01*
X179759523Y-152884819D02*
X179759523Y-151884819D01*
X180664285Y-152218152D02*
X180664285Y-152884819D01*
X180426190Y-151837200D02*
X180188095Y-152551485D01*
X180188095Y-152551485D02*
X180807142Y-152551485D01*
X108998095Y-116274819D02*
X108998095Y-115274819D01*
X108998095Y-115751009D02*
X109569523Y-115751009D01*
X109569523Y-116274819D02*
X109569523Y-115274819D01*
X109998095Y-115370057D02*
X110045714Y-115322438D01*
X110045714Y-115322438D02*
X110140952Y-115274819D01*
X110140952Y-115274819D02*
X110379047Y-115274819D01*
X110379047Y-115274819D02*
X110474285Y-115322438D01*
X110474285Y-115322438D02*
X110521904Y-115370057D01*
X110521904Y-115370057D02*
X110569523Y-115465295D01*
X110569523Y-115465295D02*
X110569523Y-115560533D01*
X110569523Y-115560533D02*
X110521904Y-115703390D01*
X110521904Y-115703390D02*
X109950476Y-116274819D01*
X109950476Y-116274819D02*
X110569523Y-116274819D01*
%TO.C,SW2*%
D11*
X134935000Y-125485000D02*
X148905000Y-125485000D01*
X134935000Y-139455000D02*
X134935000Y-125485000D01*
X148905000Y-125485000D02*
X148905000Y-139455000D01*
X148905000Y-139455000D02*
X134935000Y-139455000D01*
%TO.C,SW3*%
X115825000Y-144545000D02*
X129795000Y-144545000D01*
X115825000Y-158515000D02*
X115825000Y-144545000D01*
X129795000Y-144545000D02*
X129795000Y-158515000D01*
X129795000Y-158515000D02*
X115825000Y-158515000D01*
%TO.C,SW4*%
X134935000Y-144525000D02*
X148905000Y-144525000D01*
X134935000Y-158495000D02*
X134935000Y-144525000D01*
X148905000Y-144525000D02*
X148905000Y-158495000D01*
X148905000Y-158495000D02*
X134935000Y-158495000D01*
%TO.C,SW1*%
X115815000Y-125355000D02*
X129785000Y-125355000D01*
X115815000Y-139325000D02*
X115815000Y-125355000D01*
X129785000Y-125355000D02*
X129785000Y-139325000D01*
X129785000Y-139325000D02*
X115815000Y-139325000D01*
%TD*%
M02*
