%TF.GenerationSoftware,KiCad,Pcbnew,10.0.4*%
%TF.CreationDate,2026-09-09T18:57:13-04:00*%
%TF.ProjectId,Blare,426c6172-652e-46b6-9963-61645f706362,rev?*%
%TF.SameCoordinates,Original*%
%TF.FileFunction,Legend,Bot*%
%TF.FilePolarity,Positive*%
%FSLAX46Y46*%
G04 Gerber Fmt 4.6, Leading zero omitted, Abs format (unit mm)*
G04 Created by KiCad (PCBNEW 10.0.4) date 2026-09-09 18:57:13*
%MOMM*%
%LPD*%
G01*
G04 APERTURE LIST*
%ADD10C,0.106680*%
%ADD11C,0.150000*%
%ADD12C,0.100000*%
%ADD13C,0.127000*%
%ADD14C,0.504000*%
%ADD15C,0.120000*%
G04 APERTURE END LIST*
D10*
X167361549Y-114990391D02*
X167361549Y-115623698D01*
X167361549Y-115623698D02*
X167324296Y-115698204D01*
X167324296Y-115698204D02*
X167287042Y-115735458D01*
X167287042Y-115735458D02*
X167212536Y-115772711D01*
X167212536Y-115772711D02*
X167063522Y-115772711D01*
X167063522Y-115772711D02*
X166989016Y-115735458D01*
X166989016Y-115735458D02*
X166951762Y-115698204D01*
X166951762Y-115698204D02*
X166914509Y-115623698D01*
X166914509Y-115623698D02*
X166914509Y-114990391D01*
X166132189Y-115772711D02*
X166579229Y-115772711D01*
X166355709Y-115772711D02*
X166355709Y-114990391D01*
X166355709Y-114990391D02*
X166430216Y-115102151D01*
X166430216Y-115102151D02*
X166504723Y-115176658D01*
X166504723Y-115176658D02*
X166579229Y-115213911D01*
D11*
X153833333Y-129164819D02*
X153833333Y-129879104D01*
X153833333Y-129879104D02*
X153880952Y-130021961D01*
X153880952Y-130021961D02*
X153976190Y-130117200D01*
X153976190Y-130117200D02*
X154119047Y-130164819D01*
X154119047Y-130164819D02*
X154214285Y-130164819D01*
X152833333Y-130164819D02*
X153404761Y-130164819D01*
X153119047Y-130164819D02*
X153119047Y-129164819D01*
X153119047Y-129164819D02*
X153214285Y-129307676D01*
X153214285Y-129307676D02*
X153309523Y-129402914D01*
X153309523Y-129402914D02*
X153404761Y-129450533D01*
X164380952Y-142451009D02*
X164238095Y-142498628D01*
X164238095Y-142498628D02*
X164190476Y-142546247D01*
X164190476Y-142546247D02*
X164142857Y-142641485D01*
X164142857Y-142641485D02*
X164142857Y-142784342D01*
X164142857Y-142784342D02*
X164190476Y-142879580D01*
X164190476Y-142879580D02*
X164238095Y-142927200D01*
X164238095Y-142927200D02*
X164333333Y-142974819D01*
X164333333Y-142974819D02*
X164714285Y-142974819D01*
X164714285Y-142974819D02*
X164714285Y-141974819D01*
X164714285Y-141974819D02*
X164380952Y-141974819D01*
X164380952Y-141974819D02*
X164285714Y-142022438D01*
X164285714Y-142022438D02*
X164238095Y-142070057D01*
X164238095Y-142070057D02*
X164190476Y-142165295D01*
X164190476Y-142165295D02*
X164190476Y-142260533D01*
X164190476Y-142260533D02*
X164238095Y-142355771D01*
X164238095Y-142355771D02*
X164285714Y-142403390D01*
X164285714Y-142403390D02*
X164380952Y-142451009D01*
X164380952Y-142451009D02*
X164714285Y-142451009D01*
X163809523Y-141974819D02*
X163142857Y-141974819D01*
X163142857Y-141974819D02*
X163809523Y-142974819D01*
X163809523Y-142974819D02*
X163142857Y-142974819D01*
X162238095Y-142974819D02*
X162809523Y-142974819D01*
X162523809Y-142974819D02*
X162523809Y-141974819D01*
X162523809Y-141974819D02*
X162619047Y-142117676D01*
X162619047Y-142117676D02*
X162714285Y-142212914D01*
X162714285Y-142212914D02*
X162809523Y-142260533D01*
X167690951Y-147253866D02*
X166929047Y-147253866D01*
X167309999Y-147634819D02*
X167309999Y-146872914D01*
%TO.C,U1*%
D12*
X156950000Y-135223000D02*
X156950000Y-118078000D01*
X158855000Y-116173000D02*
X172825000Y-116173000D01*
D13*
X161336000Y-115163000D02*
X161336000Y-116173000D01*
X169831272Y-114663000D02*
X161836000Y-114663000D01*
X170335000Y-116173000D02*
X170331272Y-115162728D01*
D12*
X172825000Y-137128000D02*
X158855000Y-137128000D01*
X174730000Y-135223000D02*
X174730000Y-118078000D01*
X156950000Y-118078000D02*
G75*
G02*
X158855000Y-116173000I1905000J0D01*
G01*
X158855000Y-137128000D02*
G75*
G02*
X156950000Y-135223000I0J1905000D01*
G01*
D13*
X161336000Y-115163000D02*
G75*
G02*
X161836000Y-114663000I500000J0D01*
G01*
X169831272Y-114663000D02*
G75*
G02*
X170331270Y-115162728I-22J-500020D01*
G01*
D12*
X172825000Y-116169000D02*
G75*
G02*
X174730000Y-118074000I0J-1905000D01*
G01*
X174730000Y-135223000D02*
G75*
G02*
X172825000Y-137128000I-1905001J1D01*
G01*
D14*
X173975000Y-117312000D02*
G75*
G02*
X173471000Y-117312000I-252000J0D01*
G01*
X173471000Y-117312000D02*
G75*
G02*
X173975000Y-117312000I252000J0D01*
G01*
X175192000Y-116589000D02*
G75*
G02*
X174688000Y-116589000I-252000J0D01*
G01*
X174688000Y-116589000D02*
G75*
G02*
X175192000Y-116589000I252000J0D01*
G01*
%TO.C,J1*%
D15*
X152170000Y-131150000D02*
X152170000Y-132480000D01*
X152170000Y-133750000D02*
X152170000Y-151590000D01*
X153500000Y-131150000D02*
X152170000Y-131150000D01*
X154830000Y-133750000D02*
X152170000Y-133750000D01*
X154830000Y-133750000D02*
X154830000Y-151590000D01*
X154830000Y-151590000D02*
X152170000Y-151590000D01*
%TO.C,BZ1*%
X169600000Y-149720000D02*
G75*
G02*
X157400000Y-149720000I-6100000J0D01*
G01*
X157400000Y-149720000D02*
G75*
G02*
X169600000Y-149720000I6100000J0D01*
G01*
%TD*%
M02*
