%TF.GenerationSoftware,KiCad,Pcbnew,10.0.4*%
%TF.CreationDate,2026-09-09T18:57:13-04:00*%
%TF.ProjectId,Blare,426c6172-652e-46b6-9963-61645f706362,rev?*%
%TF.SameCoordinates,Original*%
%TF.FileFunction,Copper,L1,Top*%
%TF.FilePolarity,Positive*%
%FSLAX46Y46*%
G04 Gerber Fmt 4.6, Leading zero omitted, Abs format (unit mm)*
G04 Created by KiCad (PCBNEW 10.0.4) date 2026-09-09 18:57:13*
%MOMM*%
%LPD*%
G01*
G04 APERTURE LIST*
%TA.AperFunction,ComponentPad*%
%ADD10C,2.200000*%
%TD*%
%TA.AperFunction,ComponentPad*%
%ADD11R,1.700000X1.700000*%
%TD*%
%TA.AperFunction,ComponentPad*%
%ADD12C,1.700000*%
%TD*%
%TA.AperFunction,ComponentPad*%
%ADD13R,2.000000X2.000000*%
%TD*%
%TA.AperFunction,ComponentPad*%
%ADD14C,2.000000*%
%TD*%
%TA.AperFunction,ViaPad*%
%ADD15C,0.600000*%
%TD*%
%TA.AperFunction,Conductor*%
%ADD16C,0.200000*%
%TD*%
G04 APERTURE END LIST*
D10*
%TO.P,SW2,1,1_1*%
%TO.N,GND*%
X144460000Y-127390000D03*
%TO.P,SW2,2,2_2*%
%TO.N,Net-(U1-D1)*%
X138110000Y-129930000D03*
%TD*%
%TO.P,SW3,1,1_1*%
%TO.N,GND*%
X125350000Y-146450000D03*
%TO.P,SW3,2,2_2*%
%TO.N,Net-(U1-D2)*%
X119000000Y-148990000D03*
%TD*%
%TO.P,SW4,1,1_1*%
%TO.N,GND*%
X144460000Y-146430000D03*
%TO.P,SW4,2,2_2*%
%TO.N,Net-(U1-D3)*%
X138110000Y-148970000D03*
%TD*%
%TO.P,SW1,1,1_1*%
%TO.N,GND*%
X125340000Y-127260000D03*
%TO.P,SW1,2,2_2*%
%TO.N,Net-(U1-D0)*%
X118990000Y-129800000D03*
%TD*%
D11*
%TO.P,J1,1,Pin_1_1*%
%TO.N,GND*%
X153500000Y-132480000D03*
D12*
%TO.P,J1,2,Pin_2_2*%
%TO.N,+3.3V*%
X153500000Y-135020000D03*
%TO.P,J1,3,Pin_3_3*%
%TO.N,/SCL*%
X153500000Y-137560000D03*
%TO.P,J1,4,Pin_4_4*%
%TO.N,/SDA*%
X153500000Y-140100000D03*
%TO.P,J1,5,Pin_5_5*%
%TO.N,/RST*%
X153500000Y-142640000D03*
%TO.P,J1,6,Pin_6_6*%
%TO.N,/DC*%
X153500000Y-145180000D03*
%TO.P,J1,7,Pin_7_7*%
%TO.N,/CS*%
X153500000Y-147720000D03*
%TO.P,J1,8,Pin_8_8*%
%TO.N,/BL*%
X153500000Y-150260000D03*
%TD*%
D13*
%TO.P,BZ1,1,+_1*%
%TO.N,Net-(BZ1-+)*%
X167300000Y-149720000D03*
D14*
%TO.P,BZ1,2,-_2*%
%TO.N,GND*%
X159700000Y-149720000D03*
%TD*%
D15*
%TO.N,GND*%
X120900000Y-146650000D03*
X122540000Y-128980000D03*
X154900000Y-129800000D03*
X157980000Y-146000000D03*
X142920000Y-148570000D03*
X145590000Y-130970000D03*
%TO.N,Net-(U1-D1)*%
X173895000Y-121630000D03*
%TO.N,+3.3V*%
X157730000Y-124170000D03*
%TO.N,/SCL*%
X157730000Y-129250000D03*
%TO.N,/SDA*%
X157730000Y-126710000D03*
%TO.N,/RST*%
X157730000Y-131790000D03*
%TO.N,/DC*%
X173895000Y-129250000D03*
%TO.N,/CS*%
X173895000Y-131790000D03*
%TO.N,/BL*%
X173895000Y-134330000D03*
%TO.N,Net-(U1-D2)*%
X173895000Y-124170000D03*
%TO.N,Net-(U1-D3)*%
X173895000Y-126710000D03*
%TO.N,Net-(U1-D0)*%
X173895000Y-119090000D03*
%TD*%
%TO.N,GND*%
D16*
X154900000Y-129800000D02*
X154900000Y-131080000D01*
X145590000Y-130970000D02*
X145590000Y-128370000D01*
X157980000Y-146000000D02*
X157980000Y-147740000D01*
X144610000Y-127390000D02*
X144460000Y-127390000D01*
X145590000Y-128370000D02*
X144610000Y-127390000D01*
X142920000Y-147920000D02*
X144410000Y-146430000D01*
X159700000Y-149460000D02*
X159700000Y-149720000D01*
X142920000Y-148570000D02*
X142920000Y-147920000D01*
X144410000Y-146430000D02*
X144460000Y-146430000D01*
X123590000Y-128980000D02*
X125310000Y-127260000D01*
X154900000Y-131080000D02*
X153500000Y-132480000D01*
X122540000Y-128980000D02*
X123590000Y-128980000D01*
X125310000Y-127260000D02*
X125340000Y-127260000D01*
X120900000Y-146650000D02*
X125150000Y-146650000D01*
X157980000Y-147740000D02*
X159700000Y-149460000D01*
X125150000Y-146650000D02*
X125350000Y-146450000D01*
%TO.N,Net-(U1-D1)*%
X138110000Y-129930000D02*
X146410000Y-121630000D01*
X146410000Y-121630000D02*
X173895000Y-121630000D01*
%TO.N,+3.3V*%
X156170000Y-127510000D02*
X156170000Y-125730000D01*
X152350000Y-131330000D02*
X156170000Y-127510000D01*
X152350000Y-133870000D02*
X152350000Y-131330000D01*
X153500000Y-135020000D02*
X152350000Y-133870000D01*
X156170000Y-125730000D02*
X157730000Y-124170000D01*
%TO.N,/SCL*%
X152350000Y-138710000D02*
X152350000Y-140576346D01*
X153500000Y-137560000D02*
X152350000Y-138710000D01*
X153976346Y-141250000D02*
X156495000Y-138731346D01*
X156495000Y-131857686D02*
X157730000Y-130622686D01*
X156495000Y-138731346D02*
X156495000Y-131857686D01*
X152350000Y-140576346D02*
X153023654Y-141250000D01*
X157730000Y-130622686D02*
X157730000Y-129250000D01*
X153023654Y-141250000D02*
X153976346Y-141250000D01*
%TO.N,/SDA*%
X154650000Y-138950000D02*
X154650000Y-133137000D01*
X157730000Y-128082685D02*
X157730000Y-126710000D01*
X154650000Y-133137000D02*
X157095000Y-130692000D01*
X157095000Y-130692000D02*
X157095000Y-128717685D01*
X157095000Y-128717685D02*
X157730000Y-128082685D01*
X153500000Y-140100000D02*
X154650000Y-138950000D01*
%TO.N,/RST*%
X153500000Y-142640000D02*
X157730000Y-138410000D01*
X157730000Y-138410000D02*
X157730000Y-131790000D01*
%TO.N,/DC*%
X159161522Y-151020000D02*
X168600000Y-151020000D01*
X169840000Y-133305000D02*
X173895000Y-129250000D01*
X168600000Y-151020000D02*
X169840000Y-149780000D01*
X153500000Y-145180000D02*
X153500000Y-145358478D01*
X153500000Y-145358478D02*
X159161522Y-151020000D01*
X169840000Y-149780000D02*
X169840000Y-133305000D01*
%TO.N,/CS*%
X168765686Y-151420000D02*
X170320000Y-149865686D01*
X157200000Y-151420000D02*
X168765686Y-151420000D01*
X170320000Y-135365000D02*
X173895000Y-131790000D01*
X170320000Y-149865686D02*
X170320000Y-135365000D01*
X153500000Y-147720000D02*
X157200000Y-151420000D01*
%TO.N,/BL*%
X170800000Y-137425000D02*
X173895000Y-134330000D01*
X168931372Y-151820000D02*
X170800000Y-149951372D01*
X155060000Y-151820000D02*
X168931372Y-151820000D01*
X170800000Y-149951372D02*
X170800000Y-137425000D01*
X153500000Y-150260000D02*
X155060000Y-151820000D01*
%TO.N,Net-(U1-D2)*%
X157481471Y-123570000D02*
X173295000Y-123570000D01*
X134124315Y-148990000D02*
X155562315Y-127552000D01*
X119000000Y-148990000D02*
X134124315Y-148990000D01*
X155562315Y-127552000D02*
X155562315Y-125489156D01*
X155562315Y-125489156D02*
X157481471Y-123570000D01*
X173295000Y-123570000D02*
X173895000Y-124170000D01*
%TO.N,Net-(U1-D3)*%
X138110000Y-148970000D02*
X143050000Y-144030000D01*
X159560000Y-143140000D02*
X159560000Y-141045000D01*
X158670000Y-144030000D02*
X159560000Y-143140000D01*
X143050000Y-144030000D02*
X158670000Y-144030000D01*
X159560000Y-141045000D02*
X173895000Y-126710000D01*
%TO.N,Net-(U1-D0)*%
X129700000Y-119090000D02*
X173895000Y-119090000D01*
X118990000Y-129800000D02*
X129700000Y-119090000D01*
%TD*%
M02*
