M48
; DRILL file KiCad 10.0.4 date 2026-09-09T18:57:15
; FORMAT={-:-/ absolute / metric / decimal}
; #@! TF.CreationDate,2026-09-09T18:57:15-04:00
; #@! TF.GenerationSoftware,Kicad,Pcbnew,10.0.4
; #@! TF.FileFunction,Plated,1,2,PTH
FMAT,2
METRIC
; #@! TA.AperFunction,Plated,PTH,ViaDrill
T1C0.300
; #@! TA.AperFunction,Plated,PTH,ComponentDrill
T2C1.000
; #@! TA.AperFunction,Plated,PTH,ComponentDrill
T3C1.500
%
G90
G05
T1
X120.9Y-146.65
X122.54Y-128.98
X142.92Y-148.57
X145.59Y-130.97
X154.9Y-129.8
X157.73Y-124.17
X157.73Y-126.71
X157.73Y-129.25
X157.73Y-131.79
X157.98Y-146.0
X173.895Y-119.09
X173.895Y-121.63
X173.895Y-124.17
X173.895Y-126.71
X173.895Y-129.25
X173.895Y-131.79
X173.895Y-134.33
T2
X153.5Y-132.48
X153.5Y-135.02
X153.5Y-137.56
X153.5Y-140.1
X153.5Y-142.64
X153.5Y-145.18
X153.5Y-147.72
X153.5Y-150.26
X159.7Y-149.72
X167.3Y-149.72
T3
X118.99Y-129.8
X119.0Y-148.99
X125.34Y-127.26
X125.35Y-146.45
X138.11Y-129.93
X138.11Y-148.97
X144.46Y-127.39
X144.46Y-146.43
M30
