ISO-10303-21;
HEADER;
/* Generated by software containing ST-Developer
 * from STEP Tools, Inc. (www.steptools.com) 
 */

FILE_DESCRIPTION(
/* description */ (''),
/* implementation_level */ '2;1');

FILE_NAME(
/* name */ 'Alarm Bottom.step',
/* time_stamp */ '2026-09-09T18:48:47-04:00',
/* author */ (''),
/* organization */ (''),
/* preprocessor_version */ 'ST-DEVELOPER v20.2',
/* originating_system */ 'Autodesk Translation Framework v15.15.0.0',
/* authorisation */ '');

FILE_SCHEMA (('AUTOMOTIVE_DESIGN { 1 0 10303 214 3 1 1 }'));
ENDSEC;

DATA;
#10=MECHANICAL_DESIGN_GEOMETRIC_PRESENTATION_REPRESENTATION('',(#13),#883);
#11=SHAPE_REPRESENTATION_RELATIONSHIP('SRR','None',#890,#12);
#12=ADVANCED_BREP_SHAPE_REPRESENTATION('',(#14),#882);
#13=STYLED_ITEM('',(#899),#14);
#14=MANIFOLD_SOLID_BREP('Body685',#537);
#15=CYLINDRICAL_SURFACE('',#567,2.10000000000001);
#16=CYLINDRICAL_SURFACE('',#581,1.99999999999999);
#17=CYLINDRICAL_SURFACE('',#584,2.10000000000001);
#18=CYLINDRICAL_SURFACE('',#587,2.10000000000001);
#19=FACE_BOUND('',#73,.T.);
#20=FACE_BOUND('',#74,.T.);
#21=FACE_BOUND('',#75,.T.);
#22=FACE_BOUND('',#76,.T.);
#23=FACE_BOUND('',#77,.T.);
#24=FACE_BOUND('',#87,.T.);
#25=FACE_BOUND('',#102,.T.);
#26=FACE_BOUND('',#103,.T.);
#27=CIRCLE('',#557,1.99999999999999);
#28=CIRCLE('',#558,2.10000000000001);
#29=CIRCLE('',#559,2.10000000000001);
#30=CIRCLE('',#560,2.10000000000001);
#31=CIRCLE('',#563,2.10000000000001);
#32=CIRCLE('',#565,2.10000000000001);
#33=CIRCLE('',#566,2.10000000000001);
#34=CIRCLE('',#568,2.10000000000001);
#35=CIRCLE('',#582,1.99999999999999);
#36=CIRCLE('',#585,2.10000000000001);
#37=FACE_OUTER_BOUND('',#67,.T.);
#38=FACE_OUTER_BOUND('',#68,.T.);
#39=FACE_OUTER_BOUND('',#69,.T.);
#40=FACE_OUTER_BOUND('',#70,.T.);
#41=FACE_OUTER_BOUND('',#71,.T.);
#42=FACE_OUTER_BOUND('',#72,.T.);
#43=FACE_OUTER_BOUND('',#78,.T.);
#44=FACE_OUTER_BOUND('',#79,.T.);
#45=FACE_OUTER_BOUND('',#80,.T.);
#46=FACE_OUTER_BOUND('',#81,.T.);
#47=FACE_OUTER_BOUND('',#82,.T.);
#48=FACE_OUTER_BOUND('',#83,.T.);
#49=FACE_OUTER_BOUND('',#84,.T.);
#50=FACE_OUTER_BOUND('',#85,.T.);
#51=FACE_OUTER_BOUND('',#86,.T.);
#52=FACE_OUTER_BOUND('',#88,.T.);
#53=FACE_OUTER_BOUND('',#89,.T.);
#54=FACE_OUTER_BOUND('',#90,.T.);
#55=FACE_OUTER_BOUND('',#91,.T.);
#56=FACE_OUTER_BOUND('',#92,.T.);
#57=FACE_OUTER_BOUND('',#93,.T.);
#58=FACE_OUTER_BOUND('',#94,.T.);
#59=FACE_OUTER_BOUND('',#95,.T.);
#60=FACE_OUTER_BOUND('',#96,.T.);
#61=FACE_OUTER_BOUND('',#97,.T.);
#62=FACE_OUTER_BOUND('',#98,.T.);
#63=FACE_OUTER_BOUND('',#99,.T.);
#64=FACE_OUTER_BOUND('',#100,.T.);
#65=FACE_OUTER_BOUND('',#101,.T.);
#66=FACE_OUTER_BOUND('',#104,.T.);
#67=EDGE_LOOP('',(#341,#342,#343,#344));
#68=EDGE_LOOP('',(#345,#346,#347,#348));
#69=EDGE_LOOP('',(#349,#350,#351,#352,#353));
#70=EDGE_LOOP('',(#354,#355,#356,#357));
#71=EDGE_LOOP('',(#358,#359,#360,#361,#362));
#72=EDGE_LOOP('',(#363,#364,#365,#366,#367,#368,#369,#370));
#73=EDGE_LOOP('',(#371));
#74=EDGE_LOOP('',(#372));
#75=EDGE_LOOP('',(#373));
#76=EDGE_LOOP('',(#374));
#77=EDGE_LOOP('',(#375,#376,#377,#378));
#78=EDGE_LOOP('',(#379,#380,#381,#382));
#79=EDGE_LOOP('',(#383));
#80=EDGE_LOOP('',(#384,#385,#386));
#81=EDGE_LOOP('',(#387,#388,#389,#390,#391,#392,#393,#394));
#82=EDGE_LOOP('',(#395,#396,#397,#398));
#83=EDGE_LOOP('',(#399,#400,#401,#402));
#84=EDGE_LOOP('',(#403,#404,#405,#406,#407,#408));
#85=EDGE_LOOP('',(#409,#410,#411,#412));
#86=EDGE_LOOP('',(#413,#414,#415,#416));
#87=EDGE_LOOP('',(#417,#418,#419,#420));
#88=EDGE_LOOP('',(#421,#422,#423,#424));
#89=EDGE_LOOP('',(#425,#426,#427,#428));
#90=EDGE_LOOP('',(#429,#430,#431,#432));
#91=EDGE_LOOP('',(#433,#434,#435,#436));
#92=EDGE_LOOP('',(#437,#438,#439,#440));
#93=EDGE_LOOP('',(#441,#442,#443,#444));
#94=EDGE_LOOP('',(#445,#446,#447,#448));
#95=EDGE_LOOP('',(#449,#450,#451,#452));
#96=EDGE_LOOP('',(#453));
#97=EDGE_LOOP('',(#454,#455,#456,#457));
#98=EDGE_LOOP('',(#458));
#99=EDGE_LOOP('',(#459,#460,#461,#462));
#100=EDGE_LOOP('',(#463,#464));
#101=EDGE_LOOP('',(#465,#466,#467,#468));
#102=EDGE_LOOP('',(#469,#470,#471,#472));
#103=EDGE_LOOP('',(#473,#474,#475,#476));
#104=EDGE_LOOP('',(#477,#478,#479,#480));
#105=LINE('',#737,#165);
#106=LINE('',#739,#166);
#107=LINE('',#741,#167);
#108=LINE('',#742,#168);
#109=LINE('',#746,#169);
#110=LINE('',#747,#170);
#111=LINE('',#748,#171);
#112=LINE('',#751,#172);
#113=LINE('',#753,#173);
#114=LINE('',#754,#174);
#115=LINE('',#757,#175);
#116=LINE('',#759,#176);
#117=LINE('',#760,#177);
#118=LINE('',#762,#178);
#119=LINE('',#763,#179);
#120=LINE('',#766,#180);
#121=LINE('',#768,#181);
#122=LINE('',#770,#182);
#123=LINE('',#772,#183);
#124=LINE('',#773,#184);
#125=LINE('',#784,#185);
#126=LINE('',#786,#186);
#127=LINE('',#788,#187);
#128=LINE('',#789,#188);
#129=LINE('',#793,#189);
#130=LINE('',#795,#190);
#131=LINE('',#797,#191);
#132=LINE('',#798,#192);
#133=LINE('',#807,#193);
#134=LINE('',#811,#194);
#135=LINE('',#813,#195);
#136=LINE('',#814,#196);
#137=LINE('',#817,#197);
#138=LINE('',#818,#198);
#139=LINE('',#821,#199);
#140=LINE('',#822,#200);
#141=LINE('',#824,#201);
#142=LINE('',#828,#202);
#143=LINE('',#830,#203);
#144=LINE('',#832,#204);
#145=LINE('',#833,#205);
#146=LINE('',#836,#206);
#147=LINE('',#838,#207);
#148=LINE('',#839,#208);
#149=LINE('',#842,#209);
#150=LINE('',#843,#210);
#151=LINE('',#846,#211);
#152=LINE('',#847,#212);
#153=LINE('',#849,#213);
#154=LINE('',#852,#214);
#155=LINE('',#854,#215);
#156=LINE('',#855,#216);
#157=LINE('',#858,#217);
#158=LINE('',#859,#218);
#159=LINE('',#862,#219);
#160=LINE('',#863,#220);
#161=LINE('',#866,#221);
#162=LINE('',#871,#222);
#163=LINE('',#875,#223);
#164=LINE('',#878,#224);
#165=VECTOR('',#595,10.);
#166=VECTOR('',#596,10.);
#167=VECTOR('',#597,10.);
#168=VECTOR('',#598,10.);
#169=VECTOR('',#601,10.);
#170=VECTOR('',#602,10.);
#171=VECTOR('',#603,10.);
#172=VECTOR('',#606,10.);
#173=VECTOR('',#607,10.);
#174=VECTOR('',#608,10.);
#175=VECTOR('',#611,10.);
#176=VECTOR('',#612,10.);
#177=VECTOR('',#613,10.);
#178=VECTOR('',#616,10.);
#179=VECTOR('',#617,10.);
#180=VECTOR('',#620,10.);
#181=VECTOR('',#621,10.);
#182=VECTOR('',#622,10.);
#183=VECTOR('',#623,10.);
#184=VECTOR('',#624,10.);
#185=VECTOR('',#633,10.);
#186=VECTOR('',#634,10.);
#187=VECTOR('',#635,10.);
#188=VECTOR('',#636,10.);
#189=VECTOR('',#639,10.);
#190=VECTOR('',#640,10.);
#191=VECTOR('',#641,10.);
#192=VECTOR('',#642,10.);
#193=VECTOR('',#655,2.10000000000001);
#194=VECTOR('',#660,10.);
#195=VECTOR('',#661,10.);
#196=VECTOR('',#662,10.);
#197=VECTOR('',#665,10.);
#198=VECTOR('',#666,10.);
#199=VECTOR('',#669,10.);
#200=VECTOR('',#670,10.);
#201=VECTOR('',#673,10.);
#202=VECTOR('',#676,10.);
#203=VECTOR('',#677,10.);
#204=VECTOR('',#678,10.);
#205=VECTOR('',#679,10.);
#206=VECTOR('',#682,10.);
#207=VECTOR('',#683,10.);
#208=VECTOR('',#684,10.);
#209=VECTOR('',#687,10.);
#210=VECTOR('',#688,10.);
#211=VECTOR('',#691,10.);
#212=VECTOR('',#692,10.);
#213=VECTOR('',#695,10.);
#214=VECTOR('',#698,10.);
#215=VECTOR('',#699,10.);
#216=VECTOR('',#700,10.);
#217=VECTOR('',#703,10.);
#218=VECTOR('',#704,10.);
#219=VECTOR('',#707,10.);
#220=VECTOR('',#708,10.);
#221=VECTOR('',#711,1.99999999999999);
#222=VECTOR('',#718,2.10000000000001);
#223=VECTOR('',#725,2.10000000000001);
#224=VECTOR('',#730,10.);
#225=VERTEX_POINT('',#735);
#226=VERTEX_POINT('',#736);
#227=VERTEX_POINT('',#738);
#228=VERTEX_POINT('',#740);
#229=VERTEX_POINT('',#744);
#230=VERTEX_POINT('',#745);
#231=VERTEX_POINT('',#750);
#232=VERTEX_POINT('',#752);
#233=VERTEX_POINT('',#756);
#234=VERTEX_POINT('',#758);
#235=VERTEX_POINT('',#765);
#236=VERTEX_POINT('',#767);
#237=VERTEX_POINT('',#769);
#238=VERTEX_POINT('',#771);
#239=VERTEX_POINT('',#774);
#240=VERTEX_POINT('',#776);
#241=VERTEX_POINT('',#778);
#242=VERTEX_POINT('',#780);
#243=VERTEX_POINT('',#782);
#244=VERTEX_POINT('',#783);
#245=VERTEX_POINT('',#785);
#246=VERTEX_POINT('',#787);
#247=VERTEX_POINT('',#791);
#248=VERTEX_POINT('',#792);
#249=VERTEX_POINT('',#794);
#250=VERTEX_POINT('',#796);
#251=VERTEX_POINT('',#800);
#252=VERTEX_POINT('',#803);
#253=VERTEX_POINT('',#810);
#254=VERTEX_POINT('',#812);
#255=VERTEX_POINT('',#816);
#256=VERTEX_POINT('',#820);
#257=VERTEX_POINT('',#826);
#258=VERTEX_POINT('',#827);
#259=VERTEX_POINT('',#829);
#260=VERTEX_POINT('',#831);
#261=VERTEX_POINT('',#835);
#262=VERTEX_POINT('',#837);
#263=VERTEX_POINT('',#841);
#264=VERTEX_POINT('',#845);
#265=VERTEX_POINT('',#851);
#266=VERTEX_POINT('',#853);
#267=VERTEX_POINT('',#857);
#268=VERTEX_POINT('',#861);
#269=VERTEX_POINT('',#865);
#270=VERTEX_POINT('',#870);
#271=EDGE_CURVE('',#225,#226,#105,.T.);
#272=EDGE_CURVE('',#226,#227,#106,.T.);
#273=EDGE_CURVE('',#227,#228,#107,.T.);
#274=EDGE_CURVE('',#225,#228,#108,.T.);
#275=EDGE_CURVE('',#229,#230,#109,.T.);
#276=EDGE_CURVE('',#228,#229,#110,.T.);
#277=EDGE_CURVE('',#230,#227,#111,.T.);
#278=EDGE_CURVE('',#231,#229,#112,.T.);
#279=EDGE_CURVE('',#231,#232,#113,.T.);
#280=EDGE_CURVE('',#225,#232,#114,.T.);
#281=EDGE_CURVE('',#233,#231,#115,.T.);
#282=EDGE_CURVE('',#233,#234,#116,.T.);
#283=EDGE_CURVE('',#232,#234,#117,.T.);
#284=EDGE_CURVE('',#230,#233,#118,.T.);
#285=EDGE_CURVE('',#234,#226,#119,.T.);
#286=EDGE_CURVE('',#226,#235,#120,.T.);
#287=EDGE_CURVE('',#235,#236,#121,.T.);
#288=EDGE_CURVE('',#236,#237,#122,.T.);
#289=EDGE_CURVE('',#237,#238,#123,.T.);
#290=EDGE_CURVE('',#238,#225,#124,.T.);
#291=EDGE_CURVE('',#239,#239,#27,.T.);
#292=EDGE_CURVE('',#240,#240,#28,.T.);
#293=EDGE_CURVE('',#241,#241,#29,.T.);
#294=EDGE_CURVE('',#242,#242,#30,.T.);
#295=EDGE_CURVE('',#243,#244,#125,.T.);
#296=EDGE_CURVE('',#244,#245,#126,.T.);
#297=EDGE_CURVE('',#245,#246,#127,.T.);
#298=EDGE_CURVE('',#246,#243,#128,.T.);
#299=EDGE_CURVE('',#247,#248,#129,.T.);
#300=EDGE_CURVE('',#249,#247,#130,.T.);
#301=EDGE_CURVE('',#250,#249,#131,.T.);
#302=EDGE_CURVE('',#248,#250,#132,.T.);
#303=EDGE_CURVE('',#251,#251,#31,.T.);
#304=EDGE_CURVE('',#248,#252,#32,.T.);
#305=EDGE_CURVE('',#252,#250,#33,.T.);
#306=EDGE_CURVE('',#242,#252,#133,.T.);
#307=EDGE_CURVE('',#249,#247,#34,.T.);
#308=EDGE_CURVE('',#236,#253,#134,.T.);
#309=EDGE_CURVE('',#254,#253,#135,.T.);
#310=EDGE_CURVE('',#237,#254,#136,.T.);
#311=EDGE_CURVE('',#255,#254,#137,.T.);
#312=EDGE_CURVE('',#238,#255,#138,.T.);
#313=EDGE_CURVE('',#256,#255,#139,.T.);
#314=EDGE_CURVE('',#235,#256,#140,.T.);
#315=EDGE_CURVE('',#253,#256,#141,.T.);
#316=EDGE_CURVE('',#257,#258,#142,.T.);
#317=EDGE_CURVE('',#258,#259,#143,.T.);
#318=EDGE_CURVE('',#259,#260,#144,.T.);
#319=EDGE_CURVE('',#260,#257,#145,.T.);
#320=EDGE_CURVE('',#243,#261,#146,.T.);
#321=EDGE_CURVE('',#262,#261,#147,.T.);
#322=EDGE_CURVE('',#244,#262,#148,.T.);
#323=EDGE_CURVE('',#246,#263,#149,.T.);
#324=EDGE_CURVE('',#261,#263,#150,.T.);
#325=EDGE_CURVE('',#245,#264,#151,.T.);
#326=EDGE_CURVE('',#263,#264,#152,.T.);
#327=EDGE_CURVE('',#264,#262,#153,.T.);
#328=EDGE_CURVE('',#260,#265,#154,.T.);
#329=EDGE_CURVE('',#259,#266,#155,.T.);
#330=EDGE_CURVE('',#265,#266,#156,.T.);
#331=EDGE_CURVE('',#267,#258,#157,.T.);
#332=EDGE_CURVE('',#266,#267,#158,.T.);
#333=EDGE_CURVE('',#268,#257,#159,.T.);
#334=EDGE_CURVE('',#268,#265,#160,.T.);
#335=EDGE_CURVE('',#239,#269,#161,.T.);
#336=EDGE_CURVE('',#269,#269,#35,.T.);
#337=EDGE_CURVE('',#240,#270,#162,.T.);
#338=EDGE_CURVE('',#270,#270,#36,.T.);
#339=EDGE_CURVE('',#241,#251,#163,.T.);
#340=EDGE_CURVE('',#267,#268,#164,.T.);
#341=ORIENTED_EDGE('',*,*,#271,.T.);
#342=ORIENTED_EDGE('',*,*,#272,.T.);
#343=ORIENTED_EDGE('',*,*,#273,.T.);
#344=ORIENTED_EDGE('',*,*,#274,.F.);
#345=ORIENTED_EDGE('',*,*,#275,.F.);
#346=ORIENTED_EDGE('',*,*,#276,.F.);
#347=ORIENTED_EDGE('',*,*,#273,.F.);
#348=ORIENTED_EDGE('',*,*,#277,.F.);
#349=ORIENTED_EDGE('',*,*,#278,.F.);
#350=ORIENTED_EDGE('',*,*,#279,.T.);
#351=ORIENTED_EDGE('',*,*,#280,.F.);
#352=ORIENTED_EDGE('',*,*,#274,.T.);
#353=ORIENTED_EDGE('',*,*,#276,.T.);
#354=ORIENTED_EDGE('',*,*,#281,.F.);
#355=ORIENTED_EDGE('',*,*,#282,.T.);
#356=ORIENTED_EDGE('',*,*,#283,.F.);
#357=ORIENTED_EDGE('',*,*,#279,.F.);
#358=ORIENTED_EDGE('',*,*,#284,.F.);
#359=ORIENTED_EDGE('',*,*,#277,.T.);
#360=ORIENTED_EDGE('',*,*,#272,.F.);
#361=ORIENTED_EDGE('',*,*,#285,.F.);
#362=ORIENTED_EDGE('',*,*,#282,.F.);
#363=ORIENTED_EDGE('',*,*,#285,.T.);
#364=ORIENTED_EDGE('',*,*,#286,.T.);
#365=ORIENTED_EDGE('',*,*,#287,.T.);
#366=ORIENTED_EDGE('',*,*,#288,.T.);
#367=ORIENTED_EDGE('',*,*,#289,.T.);
#368=ORIENTED_EDGE('',*,*,#290,.T.);
#369=ORIENTED_EDGE('',*,*,#280,.T.);
#370=ORIENTED_EDGE('',*,*,#283,.T.);
#371=ORIENTED_EDGE('',*,*,#291,.T.);
#372=ORIENTED_EDGE('',*,*,#292,.T.);
#373=ORIENTED_EDGE('',*,*,#293,.T.);
#374=ORIENTED_EDGE('',*,*,#294,.T.);
#375=ORIENTED_EDGE('',*,*,#295,.T.);
#376=ORIENTED_EDGE('',*,*,#296,.T.);
#377=ORIENTED_EDGE('',*,*,#297,.T.);
#378=ORIENTED_EDGE('',*,*,#298,.T.);
#379=ORIENTED_EDGE('',*,*,#299,.F.);
#380=ORIENTED_EDGE('',*,*,#300,.F.);
#381=ORIENTED_EDGE('',*,*,#301,.F.);
#382=ORIENTED_EDGE('',*,*,#302,.F.);
#383=ORIENTED_EDGE('',*,*,#303,.F.);
#384=ORIENTED_EDGE('',*,*,#304,.F.);
#385=ORIENTED_EDGE('',*,*,#302,.T.);
#386=ORIENTED_EDGE('',*,*,#305,.F.);
#387=ORIENTED_EDGE('',*,*,#294,.F.);
#388=ORIENTED_EDGE('',*,*,#306,.T.);
#389=ORIENTED_EDGE('',*,*,#305,.T.);
#390=ORIENTED_EDGE('',*,*,#301,.T.);
#391=ORIENTED_EDGE('',*,*,#307,.T.);
#392=ORIENTED_EDGE('',*,*,#299,.T.);
#393=ORIENTED_EDGE('',*,*,#304,.T.);
#394=ORIENTED_EDGE('',*,*,#306,.F.);
#395=ORIENTED_EDGE('',*,*,#288,.F.);
#396=ORIENTED_EDGE('',*,*,#308,.T.);
#397=ORIENTED_EDGE('',*,*,#309,.F.);
#398=ORIENTED_EDGE('',*,*,#310,.F.);
#399=ORIENTED_EDGE('',*,*,#289,.F.);
#400=ORIENTED_EDGE('',*,*,#310,.T.);
#401=ORIENTED_EDGE('',*,*,#311,.F.);
#402=ORIENTED_EDGE('',*,*,#312,.F.);
#403=ORIENTED_EDGE('',*,*,#290,.F.);
#404=ORIENTED_EDGE('',*,*,#312,.T.);
#405=ORIENTED_EDGE('',*,*,#313,.F.);
#406=ORIENTED_EDGE('',*,*,#314,.F.);
#407=ORIENTED_EDGE('',*,*,#286,.F.);
#408=ORIENTED_EDGE('',*,*,#271,.F.);
#409=ORIENTED_EDGE('',*,*,#287,.F.);
#410=ORIENTED_EDGE('',*,*,#314,.T.);
#411=ORIENTED_EDGE('',*,*,#315,.F.);
#412=ORIENTED_EDGE('',*,*,#308,.F.);
#413=ORIENTED_EDGE('',*,*,#316,.T.);
#414=ORIENTED_EDGE('',*,*,#317,.T.);
#415=ORIENTED_EDGE('',*,*,#318,.T.);
#416=ORIENTED_EDGE('',*,*,#319,.T.);
#417=ORIENTED_EDGE('',*,*,#315,.T.);
#418=ORIENTED_EDGE('',*,*,#313,.T.);
#419=ORIENTED_EDGE('',*,*,#311,.T.);
#420=ORIENTED_EDGE('',*,*,#309,.T.);
#421=ORIENTED_EDGE('',*,*,#295,.F.);
#422=ORIENTED_EDGE('',*,*,#320,.T.);
#423=ORIENTED_EDGE('',*,*,#321,.F.);
#424=ORIENTED_EDGE('',*,*,#322,.F.);
#425=ORIENTED_EDGE('',*,*,#298,.F.);
#426=ORIENTED_EDGE('',*,*,#323,.T.);
#427=ORIENTED_EDGE('',*,*,#324,.F.);
#428=ORIENTED_EDGE('',*,*,#320,.F.);
#429=ORIENTED_EDGE('',*,*,#297,.F.);
#430=ORIENTED_EDGE('',*,*,#325,.T.);
#431=ORIENTED_EDGE('',*,*,#326,.F.);
#432=ORIENTED_EDGE('',*,*,#323,.F.);
#433=ORIENTED_EDGE('',*,*,#296,.F.);
#434=ORIENTED_EDGE('',*,*,#322,.T.);
#435=ORIENTED_EDGE('',*,*,#327,.F.);
#436=ORIENTED_EDGE('',*,*,#325,.F.);
#437=ORIENTED_EDGE('',*,*,#328,.F.);
#438=ORIENTED_EDGE('',*,*,#318,.F.);
#439=ORIENTED_EDGE('',*,*,#329,.T.);
#440=ORIENTED_EDGE('',*,*,#330,.F.);
#441=ORIENTED_EDGE('',*,*,#329,.F.);
#442=ORIENTED_EDGE('',*,*,#317,.F.);
#443=ORIENTED_EDGE('',*,*,#331,.F.);
#444=ORIENTED_EDGE('',*,*,#332,.F.);
#445=ORIENTED_EDGE('',*,*,#333,.T.);
#446=ORIENTED_EDGE('',*,*,#319,.F.);
#447=ORIENTED_EDGE('',*,*,#328,.T.);
#448=ORIENTED_EDGE('',*,*,#334,.F.);
#449=ORIENTED_EDGE('',*,*,#291,.F.);
#450=ORIENTED_EDGE('',*,*,#335,.T.);
#451=ORIENTED_EDGE('',*,*,#336,.T.);
#452=ORIENTED_EDGE('',*,*,#335,.F.);
#453=ORIENTED_EDGE('',*,*,#336,.F.);
#454=ORIENTED_EDGE('',*,*,#292,.F.);
#455=ORIENTED_EDGE('',*,*,#337,.T.);
#456=ORIENTED_EDGE('',*,*,#338,.T.);
#457=ORIENTED_EDGE('',*,*,#337,.F.);
#458=ORIENTED_EDGE('',*,*,#338,.F.);
#459=ORIENTED_EDGE('',*,*,#293,.F.);
#460=ORIENTED_EDGE('',*,*,#339,.T.);
#461=ORIENTED_EDGE('',*,*,#303,.T.);
#462=ORIENTED_EDGE('',*,*,#339,.F.);
#463=ORIENTED_EDGE('',*,*,#300,.T.);
#464=ORIENTED_EDGE('',*,*,#307,.F.);
#465=ORIENTED_EDGE('',*,*,#340,.T.);
#466=ORIENTED_EDGE('',*,*,#334,.T.);
#467=ORIENTED_EDGE('',*,*,#330,.T.);
#468=ORIENTED_EDGE('',*,*,#332,.T.);
#469=ORIENTED_EDGE('',*,*,#284,.T.);
#470=ORIENTED_EDGE('',*,*,#281,.T.);
#471=ORIENTED_EDGE('',*,*,#278,.T.);
#472=ORIENTED_EDGE('',*,*,#275,.T.);
#473=ORIENTED_EDGE('',*,*,#321,.T.);
#474=ORIENTED_EDGE('',*,*,#324,.T.);
#475=ORIENTED_EDGE('',*,*,#326,.T.);
#476=ORIENTED_EDGE('',*,*,#327,.T.);
#477=ORIENTED_EDGE('',*,*,#333,.F.);
#478=ORIENTED_EDGE('',*,*,#340,.F.);
#479=ORIENTED_EDGE('',*,*,#331,.T.);
#480=ORIENTED_EDGE('',*,*,#316,.F.);
#481=PLANE('',#551);
#482=PLANE('',#552);
#483=PLANE('',#553);
#484=PLANE('',#554);
#485=PLANE('',#555);
#486=PLANE('',#556);
#487=PLANE('',#561);
#488=PLANE('',#562);
#489=PLANE('',#564);
#490=PLANE('',#569);
#491=PLANE('',#570);
#492=PLANE('',#571);
#493=PLANE('',#572);
#494=PLANE('',#573);
#495=PLANE('',#574);
#496=PLANE('',#575);
#497=PLANE('',#576);
#498=PLANE('',#577);
#499=PLANE('',#578);
#500=PLANE('',#579);
#501=PLANE('',#580);
#502=PLANE('',#583);
#503=PLANE('',#586);
#504=PLANE('',#588);
#505=PLANE('',#589);
#506=PLANE('',#590);
#507=ADVANCED_FACE('',(#37),#481,.F.);
#508=ADVANCED_FACE('',(#38),#482,.F.);
#509=ADVANCED_FACE('',(#39),#483,.F.);
#510=ADVANCED_FACE('',(#40),#484,.F.);
#511=ADVANCED_FACE('',(#41),#485,.F.);
#512=ADVANCED_FACE('',(#42,#19,#20,#21,#22,#23),#486,.F.);
#513=ADVANCED_FACE('',(#43),#487,.T.);
#514=ADVANCED_FACE('',(#44),#488,.F.);
#515=ADVANCED_FACE('',(#45),#489,.F.);
#516=ADVANCED_FACE('',(#46),#15,.F.);
#517=ADVANCED_FACE('',(#47),#490,.T.);
#518=ADVANCED_FACE('',(#48),#491,.T.);
#519=ADVANCED_FACE('',(#49),#492,.T.);
#520=ADVANCED_FACE('',(#50),#493,.T.);
#521=ADVANCED_FACE('',(#51,#24),#494,.T.);
#522=ADVANCED_FACE('',(#52),#495,.F.);
#523=ADVANCED_FACE('',(#53),#496,.F.);
#524=ADVANCED_FACE('',(#54),#497,.F.);
#525=ADVANCED_FACE('',(#55),#498,.F.);
#526=ADVANCED_FACE('',(#56),#499,.T.);
#527=ADVANCED_FACE('',(#57),#500,.T.);
#528=ADVANCED_FACE('',(#58),#501,.T.);
#529=ADVANCED_FACE('',(#59),#16,.F.);
#530=ADVANCED_FACE('',(#60),#502,.F.);
#531=ADVANCED_FACE('',(#61),#17,.F.);
#532=ADVANCED_FACE('',(#62),#503,.F.);
#533=ADVANCED_FACE('',(#63),#18,.F.);
#534=ADVANCED_FACE('',(#64),#504,.F.);
#535=ADVANCED_FACE('',(#65,#25,#26),#505,.T.);
#536=ADVANCED_FACE('',(#66),#506,.T.);
#537=CLOSED_SHELL('',(#507,#508,#509,#510,#511,#512,#513,#514,#515,#516,
#517,#518,#519,#520,#521,#522,#523,#524,#525,#526,#527,#528,#529,#530,#531,
#532,#533,#534,#535,#536));
#538=DERIVED_UNIT_ELEMENT(#540,1.);
#539=DERIVED_UNIT_ELEMENT(#885,-3.);
#540=(
MASS_UNIT()
NAMED_UNIT(*)
SI_UNIT(.KILO.,.GRAM.)
);
#541=DERIVED_UNIT((#538,#539));
#542=MEASURE_REPRESENTATION_ITEM('density measure',
POSITIVE_RATIO_MEASURE(7850.),#541);
#543=PROPERTY_DEFINITION_REPRESENTATION(#548,#545);
#544=PROPERTY_DEFINITION_REPRESENTATION(#549,#546);
#545=REPRESENTATION('material name',(#547),#882);
#546=REPRESENTATION('density',(#542),#882);
#547=DESCRIPTIVE_REPRESENTATION_ITEM('Steel','Steel');
#548=PROPERTY_DEFINITION('material property','material name',#892);
#549=PROPERTY_DEFINITION('material property','density of part',#892);
#550=AXIS2_PLACEMENT_3D('',#733,#591,#592);
#551=AXIS2_PLACEMENT_3D('',#734,#593,#594);
#552=AXIS2_PLACEMENT_3D('',#743,#599,#600);
#553=AXIS2_PLACEMENT_3D('',#749,#604,#605);
#554=AXIS2_PLACEMENT_3D('',#755,#609,#610);
#555=AXIS2_PLACEMENT_3D('',#761,#614,#615);
#556=AXIS2_PLACEMENT_3D('',#764,#618,#619);
#557=AXIS2_PLACEMENT_3D('',#775,#625,#626);
#558=AXIS2_PLACEMENT_3D('',#777,#627,#628);
#559=AXIS2_PLACEMENT_3D('',#779,#629,#630);
#560=AXIS2_PLACEMENT_3D('',#781,#631,#632);
#561=AXIS2_PLACEMENT_3D('',#790,#637,#638);
#562=AXIS2_PLACEMENT_3D('',#799,#643,#644);
#563=AXIS2_PLACEMENT_3D('',#801,#645,#646);
#564=AXIS2_PLACEMENT_3D('',#802,#647,#648);
#565=AXIS2_PLACEMENT_3D('',#804,#649,#650);
#566=AXIS2_PLACEMENT_3D('',#805,#651,#652);
#567=AXIS2_PLACEMENT_3D('',#806,#653,#654);
#568=AXIS2_PLACEMENT_3D('',#808,#656,#657);
#569=AXIS2_PLACEMENT_3D('',#809,#658,#659);
#570=AXIS2_PLACEMENT_3D('',#815,#663,#664);
#571=AXIS2_PLACEMENT_3D('',#819,#667,#668);
#572=AXIS2_PLACEMENT_3D('',#823,#671,#672);
#573=AXIS2_PLACEMENT_3D('',#825,#674,#675);
#574=AXIS2_PLACEMENT_3D('',#834,#680,#681);
#575=AXIS2_PLACEMENT_3D('',#840,#685,#686);
#576=AXIS2_PLACEMENT_3D('',#844,#689,#690);
#577=AXIS2_PLACEMENT_3D('',#848,#693,#694);
#578=AXIS2_PLACEMENT_3D('',#850,#696,#697);
#579=AXIS2_PLACEMENT_3D('',#856,#701,#702);
#580=AXIS2_PLACEMENT_3D('',#860,#705,#706);
#581=AXIS2_PLACEMENT_3D('',#864,#709,#710);
#582=AXIS2_PLACEMENT_3D('',#867,#712,#713);
#583=AXIS2_PLACEMENT_3D('',#868,#714,#715);
#584=AXIS2_PLACEMENT_3D('',#869,#716,#717);
#585=AXIS2_PLACEMENT_3D('',#872,#719,#720);
#586=AXIS2_PLACEMENT_3D('',#873,#721,#722);
#587=AXIS2_PLACEMENT_3D('',#874,#723,#724);
#588=AXIS2_PLACEMENT_3D('',#876,#726,#727);
#589=AXIS2_PLACEMENT_3D('',#877,#728,#729);
#590=AXIS2_PLACEMENT_3D('',#879,#731,#732);
#591=DIRECTION('axis',(0.,0.,1.));
#592=DIRECTION('refdir',(1.,0.,0.));
#593=DIRECTION('center_axis',(0.,-1.,0.));
#594=DIRECTION('ref_axis',(0.,0.,1.));
#595=DIRECTION('',(0.,0.,-1.));
#596=DIRECTION('',(-1.,0.,0.));
#597=DIRECTION('',(0.,0.,1.));
#598=DIRECTION('',(-1.,0.,0.));
#599=DIRECTION('center_axis',(-1.,0.,0.));
#600=DIRECTION('ref_axis',(0.,0.,1.));
#601=DIRECTION('',(0.,0.,-1.));
#602=DIRECTION('',(0.,1.,0.));
#603=DIRECTION('',(0.,-1.,0.));
#604=DIRECTION('center_axis',(0.,0.,1.));
#605=DIRECTION('ref_axis',(-1.,0.,0.));
#606=DIRECTION('',(-1.,0.,0.));
#607=DIRECTION('',(0.,-1.,0.));
#608=DIRECTION('',(1.,0.,0.));
#609=DIRECTION('center_axis',(1.,0.,0.));
#610=DIRECTION('ref_axis',(0.,0.,1.));
#611=DIRECTION('',(0.,0.,1.));
#612=DIRECTION('',(0.,-1.,0.));
#613=DIRECTION('',(0.,0.,-1.));
#614=DIRECTION('center_axis',(-2.24740783025114E-17,0.,-1.));
#615=DIRECTION('ref_axis',(1.,0.,-2.24740783025114E-17));
#616=DIRECTION('',(1.,0.,0.));
#617=DIRECTION('',(-1.,0.,0.));
#618=DIRECTION('center_axis',(0.,1.,0.));
#619=DIRECTION('ref_axis',(1.,0.,0.));
#620=DIRECTION('',(0.,0.,-1.));
#621=DIRECTION('',(1.,0.,0.));
#622=DIRECTION('',(0.,0.,1.));
#623=DIRECTION('',(-1.,0.,0.));
#624=DIRECTION('',(0.,0.,-1.));
#625=DIRECTION('center_axis',(0.,1.,0.));
#626=DIRECTION('ref_axis',(1.,0.,0.));
#627=DIRECTION('center_axis',(0.,1.,0.));
#628=DIRECTION('ref_axis',(1.,0.,0.));
#629=DIRECTION('center_axis',(0.,1.,0.));
#630=DIRECTION('ref_axis',(1.,0.,0.));
#631=DIRECTION('center_axis',(0.,1.,0.));
#632=DIRECTION('ref_axis',(1.,0.,0.));
#633=DIRECTION('',(1.,0.,0.));
#634=DIRECTION('',(0.,0.,-1.));
#635=DIRECTION('',(-1.,0.,0.));
#636=DIRECTION('',(0.,0.,1.));
#637=DIRECTION('center_axis',(1.00559118414543E-16,0.,-1.));
#638=DIRECTION('ref_axis',(1.,0.,1.00559118414543E-16));
#639=DIRECTION('',(0.,-1.,0.));
#640=DIRECTION('',(-1.,0.,-1.00559118414543E-16));
#641=DIRECTION('',(0.,1.,0.));
#642=DIRECTION('',(1.,0.,1.00559118414543E-16));
#643=DIRECTION('center_axis',(0.,1.,0.));
#644=DIRECTION('ref_axis',(-1.,0.,0.));
#645=DIRECTION('center_axis',(0.,1.,0.));
#646=DIRECTION('ref_axis',(1.,0.,0.));
#647=DIRECTION('center_axis',(0.,1.,0.));
#648=DIRECTION('ref_axis',(-1.,0.,0.));
#649=DIRECTION('center_axis',(0.,1.,0.));
#650=DIRECTION('ref_axis',(1.,0.,0.));
#651=DIRECTION('center_axis',(0.,1.,0.));
#652=DIRECTION('ref_axis',(1.,0.,0.));
#653=DIRECTION('center_axis',(0.,1.,0.));
#654=DIRECTION('ref_axis',(1.,0.,0.));
#655=DIRECTION('',(0.,1.,0.));
#656=DIRECTION('center_axis',(0.,1.,0.));
#657=DIRECTION('ref_axis',(1.,0.,0.));
#658=DIRECTION('center_axis',(-1.,0.,0.));
#659=DIRECTION('ref_axis',(0.,0.,-1.));
#660=DIRECTION('',(0.,-1.,0.));
#661=DIRECTION('',(0.,0.,-1.));
#662=DIRECTION('',(0.,-1.,0.));
#663=DIRECTION('center_axis',(0.,0.,-1.));
#664=DIRECTION('ref_axis',(1.,0.,0.));
#665=DIRECTION('',(1.,0.,0.));
#666=DIRECTION('',(0.,-1.,0.));
#667=DIRECTION('center_axis',(1.,0.,0.));
#668=DIRECTION('ref_axis',(0.,0.,1.));
#669=DIRECTION('',(0.,0.,1.));
#670=DIRECTION('',(0.,-1.,0.));
#671=DIRECTION('center_axis',(0.,0.,1.));
#672=DIRECTION('ref_axis',(-1.,0.,0.));
#673=DIRECTION('',(-1.,0.,0.));
#674=DIRECTION('center_axis',(0.,-1.,0.));
#675=DIRECTION('ref_axis',(0.,0.,-1.));
#676=DIRECTION('',(1.,0.,0.));
#677=DIRECTION('',(0.,0.,1.));
#678=DIRECTION('',(-1.,0.,0.));
#679=DIRECTION('',(0.,0.,-1.));
#680=DIRECTION('center_axis',(0.,0.,1.));
#681=DIRECTION('ref_axis',(1.,0.,0.));
#682=DIRECTION('',(0.,1.,0.));
#683=DIRECTION('',(-1.,0.,0.));
#684=DIRECTION('',(0.,1.,0.));
#685=DIRECTION('center_axis',(-1.,0.,0.));
#686=DIRECTION('ref_axis',(0.,0.,1.));
#687=DIRECTION('',(0.,1.,0.));
#688=DIRECTION('',(0.,0.,-1.));
#689=DIRECTION('center_axis',(0.,0.,-1.));
#690=DIRECTION('ref_axis',(-1.,0.,0.));
#691=DIRECTION('',(0.,1.,0.));
#692=DIRECTION('',(1.,0.,0.));
#693=DIRECTION('center_axis',(1.,0.,0.));
#694=DIRECTION('ref_axis',(0.,0.,-1.));
#695=DIRECTION('',(0.,0.,1.));
#696=DIRECTION('center_axis',(0.,0.,1.));
#697=DIRECTION('ref_axis',(1.,0.,0.));
#698=DIRECTION('',(0.,1.,0.));
#699=DIRECTION('',(0.,1.,0.));
#700=DIRECTION('',(1.,0.,0.));
#701=DIRECTION('center_axis',(1.,0.,0.));
#702=DIRECTION('ref_axis',(0.,0.,-1.));
#703=DIRECTION('',(0.,-1.,0.));
#704=DIRECTION('',(0.,0.,-1.));
#705=DIRECTION('center_axis',(-1.,0.,0.));
#706=DIRECTION('ref_axis',(0.,0.,1.));
#707=DIRECTION('',(0.,-1.,0.));
#708=DIRECTION('',(0.,0.,1.));
#709=DIRECTION('center_axis',(0.,1.,0.));
#710=DIRECTION('ref_axis',(1.,0.,0.));
#711=DIRECTION('',(0.,1.,0.));
#712=DIRECTION('center_axis',(0.,1.,0.));
#713=DIRECTION('ref_axis',(1.,0.,0.));
#714=DIRECTION('center_axis',(0.,1.,0.));
#715=DIRECTION('ref_axis',(1.,0.,0.));
#716=DIRECTION('center_axis',(0.,1.,0.));
#717=DIRECTION('ref_axis',(1.,0.,0.));
#718=DIRECTION('',(0.,1.,0.));
#719=DIRECTION('center_axis',(0.,1.,0.));
#720=DIRECTION('ref_axis',(1.,0.,0.));
#721=DIRECTION('center_axis',(0.,1.,0.));
#722=DIRECTION('ref_axis',(1.,0.,0.));
#723=DIRECTION('center_axis',(0.,1.,0.));
#724=DIRECTION('ref_axis',(1.,0.,0.));
#725=DIRECTION('',(0.,1.,0.));
#726=DIRECTION('center_axis',(0.,1.,0.));
#727=DIRECTION('ref_axis',(1.,0.,0.));
#728=DIRECTION('center_axis',(0.,1.,0.));
#729=DIRECTION('ref_axis',(1.,0.,0.));
#730=DIRECTION('',(-1.,0.,0.));
#731=DIRECTION('center_axis',(0.,0.,-1.));
#732=DIRECTION('ref_axis',(-1.,0.,0.));
#733=CARTESIAN_POINT('',(0.,0.,0.));
#734=CARTESIAN_POINT('Origin',(108.268605227608,-125.,-11.1863334456534));
#735=CARTESIAN_POINT('',(105.000001564622,-125.,18.4972203676751));
#736=CARTESIAN_POINT('',(105.000001564622,-125.,-11.1863334456534));
#737=CARTESIAN_POINT('',(105.000001564622,-125.,-8.25000012293458));
#738=CARTESIAN_POINT('',(103.268605227608,-125.,-11.1863334456534));
#739=CARTESIAN_POINT('',(108.268605227608,-125.,-11.1863334456534));
#740=CARTESIAN_POINT('',(103.268605227608,-125.,18.4972203676751));
#741=CARTESIAN_POINT('',(103.268605227608,-125.,10.9986102099146));
#742=CARTESIAN_POINT('',(108.268605227608,-125.,18.4972203676751));
#743=CARTESIAN_POINT('Origin',(103.268605227608,-119.,18.4972203676751));
#744=CARTESIAN_POINT('',(103.268605227608,-119.,18.4972203676751));
#745=CARTESIAN_POINT('',(103.268605227608,-119.,-11.1863334456534));
#746=CARTESIAN_POINT('',(103.268605227608,-119.,20.2174537190117));
#747=CARTESIAN_POINT('',(103.268605227608,-119.,18.4972203676751));
#748=CARTESIAN_POINT('',(103.268605227608,-119.,-11.1863334456534));
#749=CARTESIAN_POINT('Origin',(207.068921723888,-119.,18.4972203676751));
#750=CARTESIAN_POINT('',(207.068921723888,-119.,18.4972203676751));
#751=CARTESIAN_POINT('',(144.125256294441,-119.,18.4972203676751));
#752=CARTESIAN_POINT('',(207.068921723888,-125.,18.4972203676751));
#753=CARTESIAN_POINT('',(207.068921723888,-119.,18.4972203676751));
#754=CARTESIAN_POINT('',(126.384303690413,-125.,18.4972203676751));
#755=CARTESIAN_POINT('Origin',(207.068921723888,-119.,-11.1863334456534));
#756=CARTESIAN_POINT('',(207.068921723888,-119.,-11.1863334456534));
#757=CARTESIAN_POINT('',(207.068921723888,-119.,5.37567681234749));
#758=CARTESIAN_POINT('',(207.068921723888,-125.,-11.1863334456534));
#759=CARTESIAN_POINT('',(207.068921723888,-119.,-11.1863334456534));
#760=CARTESIAN_POINT('',(207.068921723888,-125.,-3.84316669674967));
#761=CARTESIAN_POINT('Origin',(108.268605227608,-119.,-11.1863334456534));
#762=CARTESIAN_POINT('',(144.125256294441,-119.,-11.1863334456534));
#763=CARTESIAN_POINT('',(126.384303690413,-125.,-11.1863334456534));
#764=CARTESIAN_POINT('Origin',(144.500002153218,-125.,3.50000005215406));
#765=CARTESIAN_POINT('',(105.000001564622,-125.,-20.0000002980232));
#766=CARTESIAN_POINT('',(105.000001564622,-125.,-8.25000012293458));
#767=CARTESIAN_POINT('',(220.016276488198,-125.,-20.0000002980232));
#768=CARTESIAN_POINT('',(182.258139320708,-125.,-20.0000002980232));
#769=CARTESIAN_POINT('',(220.016276488198,-125.,27.0000004023314));
#770=CARTESIAN_POINT('',(220.016276488198,-125.,15.2500002272427));
#771=CARTESIAN_POINT('',(105.000001564622,-125.,27.0000004023314));
#772=CARTESIAN_POINT('',(124.75000185892,-125.,27.0000004023314));
#773=CARTESIAN_POINT('',(105.000001564622,-125.,-8.25000012293458));
#774=CARTESIAN_POINT('',(107.778308533869,-125.,22.056696071201));
#775=CARTESIAN_POINT('Origin',(109.778308533869,-125.,22.056696071201));
#776=CARTESIAN_POINT('',(107.668808912972,-125.,-14.583630042516));
#777=CARTESIAN_POINT('Origin',(109.768808912972,-125.,-14.583630042516));
#778=CARTESIAN_POINT('',(177.863812114844,-125.,21.9376870703484));
#779=CARTESIAN_POINT('Origin',(179.963812114844,-125.,21.9376870703484));
#780=CARTESIAN_POINT('',(177.863812114844,-125.,-14.562313473544));
#781=CARTESIAN_POINT('Origin',(179.963812114844,-125.,-14.562313473544));
#782=CARTESIAN_POINT('',(210.088009978979,-125.,18.4972203676751));
#783=CARTESIAN_POINT('',(215.016665314857,-125.,18.4972203676751));
#784=CARTESIAN_POINT('',(177.294006066099,-125.,18.4972203676751));
#785=CARTESIAN_POINT('',(215.016665314857,-125.,-11.4803194572359));
#786=CARTESIAN_POINT('',(215.016665314857,-125.,10.9986102099146));
#787=CARTESIAN_POINT('',(210.088009978979,-125.,-11.4803194572359));
#788=CARTESIAN_POINT('',(179.758333734037,-125.,-11.4803194572359));
#789=CARTESIAN_POINT('',(210.088009978979,-125.,-3.99015970254092));
#790=CARTESIAN_POINT('Origin',(142.299123871882,-119.,-14.5646828431972));
#791=CARTESIAN_POINT('',(177.86381345149,-121.,-14.5646828431972));
#792=CARTESIAN_POINT('',(177.86381345149,-124.,-14.5646828431972));
#793=CARTESIAN_POINT('',(177.86381345149,-125.,-14.5646828431972));
#794=CARTESIAN_POINT('',(182.063810778197,-121.,-14.5646828431972));
#795=CARTESIAN_POINT('',(161.131467993363,-121.,-14.5646828431972));
#796=CARTESIAN_POINT('',(182.063810778197,-124.,-14.5646828431972));
#797=CARTESIAN_POINT('',(182.063810778197,-125.,-14.5646828431972));
#798=CARTESIAN_POINT('',(142.299123871882,-124.,-14.5646828431972));
#799=CARTESIAN_POINT('Origin',(164.380125418622,-124.,6.25213922567588));
#800=CARTESIAN_POINT('',(177.863812114844,-124.,21.9376870703484));
#801=CARTESIAN_POINT('Origin',(179.963812114844,-124.,21.9376870703484));
#802=CARTESIAN_POINT('Origin',(164.380125418622,-124.,6.25213922567588));
#803=CARTESIAN_POINT('',(177.863812114844,-124.,-14.562313473544));
#804=CARTESIAN_POINT('Origin',(179.963812114844,-124.,-14.562313473544));
#805=CARTESIAN_POINT('Origin',(179.963812114844,-124.,-14.562313473544));
#806=CARTESIAN_POINT('Origin',(179.963812114844,-125.,-14.562313473544));
#807=CARTESIAN_POINT('',(177.863812114844,-125.,-14.562313473544));
#808=CARTESIAN_POINT('Origin',(179.963812114844,-121.,-14.562313473544));
#809=CARTESIAN_POINT('Origin',(220.016276488198,-125.,27.0000004023314));
#810=CARTESIAN_POINT('',(220.016276488198,-140.,-20.0000002980232));
#811=CARTESIAN_POINT('',(220.016276488198,-125.,-20.0000002980232));
#812=CARTESIAN_POINT('',(220.016276488198,-140.,27.0000004023314));
#813=CARTESIAN_POINT('',(220.016276488198,-140.,-20.0000002980232));
#814=CARTESIAN_POINT('',(220.016276488198,-125.,27.0000004023314));
#815=CARTESIAN_POINT('Origin',(105.000001564622,-125.,27.0000004023314));
#816=CARTESIAN_POINT('',(105.000001564622,-140.,27.0000004023314));
#817=CARTESIAN_POINT('',(105.000001564622,-140.,27.0000004023314));
#818=CARTESIAN_POINT('',(105.000001564622,-125.,27.0000004023314));
#819=CARTESIAN_POINT('Origin',(105.000001564622,-125.,-20.0000002980232));
#820=CARTESIAN_POINT('',(105.000001564622,-140.,-20.0000002980232));
#821=CARTESIAN_POINT('',(105.000001564622,-140.,-20.0000002980232));
#822=CARTESIAN_POINT('',(105.000001564622,-125.,-20.0000002980232));
#823=CARTESIAN_POINT('Origin',(220.016276488198,-125.,-20.0000002980232));
#824=CARTESIAN_POINT('',(220.016276488198,-140.,-20.0000002980232));
#825=CARTESIAN_POINT('Origin',(162.500002421439,-140.,3.50000005215406));
#826=CARTESIAN_POINT('',(102.000001519918,-140.,-23.0000003427267));
#827=CARTESIAN_POINT('',(223.000003322959,-140.,-23.0000003427267));
#828=CARTESIAN_POINT('',(223.000003322959,-140.,-23.0000003427267));
#829=CARTESIAN_POINT('',(223.000003322959,-140.,30.0000004470348));
#830=CARTESIAN_POINT('',(223.000003322959,-140.,30.0000004470348));
#831=CARTESIAN_POINT('',(102.000001519918,-140.,30.0000004470348));
#832=CARTESIAN_POINT('',(102.000001519918,-140.,30.0000004470348));
#833=CARTESIAN_POINT('',(102.000001519918,-140.,-23.0000003427267));
#834=CARTESIAN_POINT('Origin',(210.088009978979,-125.,18.4972203676751));
#835=CARTESIAN_POINT('',(210.088009978979,-119.,18.4972203676751));
#836=CARTESIAN_POINT('',(210.088009978979,-121.,18.4972203676751));
#837=CARTESIAN_POINT('',(215.016665314857,-119.,18.4972203676751));
#838=CARTESIAN_POINT('',(177.294006066099,-119.,18.4972203676751));
#839=CARTESIAN_POINT('',(215.016665314857,-125.,18.4972203676751));
#840=CARTESIAN_POINT('Origin',(210.088009978979,-125.,-11.4803194572359));
#841=CARTESIAN_POINT('',(210.088009978979,-119.,-11.4803194572359));
#842=CARTESIAN_POINT('',(210.088009978979,-121.,-11.4803194572359));
#843=CARTESIAN_POINT('',(210.088009978979,-119.,-3.99015970254092));
#844=CARTESIAN_POINT('Origin',(215.016665314857,-125.,-11.4803194572359));
#845=CARTESIAN_POINT('',(215.016665314857,-119.,-11.4803194572359));
#846=CARTESIAN_POINT('',(215.016665314857,-121.,-11.4803194572359));
#847=CARTESIAN_POINT('',(179.758333734037,-119.,-11.4803194572359));
#848=CARTESIAN_POINT('Origin',(215.016665314857,-125.,18.4972203676751));
#849=CARTESIAN_POINT('',(215.016665314857,-119.,10.9986102099146));
#850=CARTESIAN_POINT('Origin',(102.000001519918,-125.,30.0000004470348));
#851=CARTESIAN_POINT('',(102.000001519918,-119.,30.0000004470348));
#852=CARTESIAN_POINT('',(102.000001519918,-121.,30.0000004470348));
#853=CARTESIAN_POINT('',(223.000002786517,-119.,30.0000004470348));
#854=CARTESIAN_POINT('',(223.000002786517,-121.,30.0000004470348));
#855=CARTESIAN_POINT('',(123.250001836568,-119.,30.0000004470348));
#856=CARTESIAN_POINT('Origin',(223.000002786517,-125.,30.0000004470348));
#857=CARTESIAN_POINT('',(223.000002786517,-119.,-23.0000003427267));
#858=CARTESIAN_POINT('',(223.000003322959,-125.,-23.0000003427267));
#859=CARTESIAN_POINT('',(223.000002786517,-119.,16.7500002495944));
#860=CARTESIAN_POINT('Origin',(102.000001519918,-125.,-23.0000003427267));
#861=CARTESIAN_POINT('',(102.000001519918,-119.,-23.0000003427267));
#862=CARTESIAN_POINT('',(102.000001519918,-125.,-23.0000003427267));
#863=CARTESIAN_POINT('',(102.000001519918,-119.,-9.75000014528632));
#864=CARTESIAN_POINT('Origin',(109.778308533869,-125.,22.056696071201));
#865=CARTESIAN_POINT('',(107.778308533869,-121.,22.056696071201));
#866=CARTESIAN_POINT('',(107.778308533869,-125.,22.056696071201));
#867=CARTESIAN_POINT('Origin',(109.778308533869,-121.,22.056696071201));
#868=CARTESIAN_POINT('Origin',(109.778308533869,-121.,22.056696071201));
#869=CARTESIAN_POINT('Origin',(109.768808912972,-125.,-14.583630042516));
#870=CARTESIAN_POINT('',(107.668808912972,-121.,-14.583630042516));
#871=CARTESIAN_POINT('',(107.668808912972,-125.,-14.583630042516));
#872=CARTESIAN_POINT('Origin',(109.768808912972,-121.,-14.583630042516));
#873=CARTESIAN_POINT('Origin',(109.768808912972,-121.,-14.583630042516));
#874=CARTESIAN_POINT('Origin',(179.963812114844,-125.,21.9376870703484));
#875=CARTESIAN_POINT('',(177.863812114844,-125.,21.9376870703484));
#876=CARTESIAN_POINT('Origin',(179.963812114844,-121.,-14.562313473544));
#877=CARTESIAN_POINT('Origin',(179.981907361273,-119.,21.9376870703484));
#878=CARTESIAN_POINT('',(165.750002469867,-119.,-23.0000003427267));
#879=CARTESIAN_POINT('Origin',(187.000002786517,-125.,-23.0000003427267));
#880=UNCERTAINTY_MEASURE_WITH_UNIT(LENGTH_MEASURE(0.01),#884,
'DISTANCE_ACCURACY_VALUE',
'Maximum model space distance between geometric entities at asserted c
onnectivities');
#881=UNCERTAINTY_MEASURE_WITH_UNIT(LENGTH_MEASURE(0.01),#884,
'DISTANCE_ACCURACY_VALUE',
'Maximum model space distance between geometric entities at asserted c
onnectivities');
#882=(
GEOMETRIC_REPRESENTATION_CONTEXT(3)
GLOBAL_UNCERTAINTY_ASSIGNED_CONTEXT((#880))
GLOBAL_UNIT_ASSIGNED_CONTEXT((#884,#886,#887))
REPRESENTATION_CONTEXT('','3D')
);
#883=(
GEOMETRIC_REPRESENTATION_CONTEXT(3)
GLOBAL_UNCERTAINTY_ASSIGNED_CONTEXT((#881))
GLOBAL_UNIT_ASSIGNED_CONTEXT((#884,#886,#887))
REPRESENTATION_CONTEXT('','3D')
);
#884=(
LENGTH_UNIT()
NAMED_UNIT(*)
SI_UNIT(.MILLI.,.METRE.)
);
#885=(
LENGTH_UNIT()
NAMED_UNIT(*)
SI_UNIT($,.METRE.)
);
#886=(
NAMED_UNIT(*)
PLANE_ANGLE_UNIT()
SI_UNIT($,.RADIAN.)
);
#887=(
NAMED_UNIT(*)
SI_UNIT($,.STERADIAN.)
SOLID_ANGLE_UNIT()
);
#888=SHAPE_DEFINITION_REPRESENTATION(#889,#890);
#889=PRODUCT_DEFINITION_SHAPE('',$,#892);
#890=SHAPE_REPRESENTATION('',(#550),#882);
#891=PRODUCT_DEFINITION_CONTEXT('part definition',#896,'design');
#892=PRODUCT_DEFINITION('2026-08-12-15-41-15-330','AAA battery holder',
#893,#891);
#893=PRODUCT_DEFINITION_FORMATION('',$,#898);
#894=PRODUCT_RELATED_PRODUCT_CATEGORY('AAA battery holder',
'AAA battery holder',(#898));
#895=APPLICATION_PROTOCOL_DEFINITION('international standard',
'automotive_design',2009,#896);
#896=APPLICATION_CONTEXT(
'Core Data for Automotive Mechanical Design Process');
#897=PRODUCT_CONTEXT('part definition',#896,'mechanical');
#898=PRODUCT('2026-08-12-15-41-15-330','AAA battery holder',$,(#897));
#899=PRESENTATION_STYLE_ASSIGNMENT((#900));
#900=SURFACE_STYLE_USAGE(.BOTH.,#901);
#901=SURFACE_SIDE_STYLE('',(#902));
#902=SURFACE_STYLE_FILL_AREA(#903);
#903=FILL_AREA_STYLE('Steel - Satin',(#904));
#904=FILL_AREA_STYLE_COLOUR('Steel - Satin',#905);
#905=COLOUR_RGB('Steel - Satin',0.627450980392157,0.627450980392157,0.627450980392157);
ENDSEC;
END-ISO-10303-21;
