ISO-10303-21;
HEADER;
/* Generated by software containing ST-Developer
 * from STEP Tools, Inc. (www.steptools.com) 
 */

FILE_DESCRIPTION(
/* description */ (''),
/* implementation_level */ '2;1');

FILE_NAME(
/* name */ 'Bottom case.step',
/* time_stamp */ '2026-09-25T15:12:36-04:00',
/* author */ (''),
/* organization */ (''),
/* preprocessor_version */ 'ST-DEVELOPER v20.2',
/* originating_system */ 'Autodesk Translation Framework v15.15.0.0',
/* authorisation */ '');

FILE_SCHEMA (('AUTOMOTIVE_DESIGN { 1 0 10303 214 3 1 1 }'));
ENDSEC;

DATA;
#10=MECHANICAL_DESIGN_GEOMETRIC_PRESENTATION_REPRESENTATION('',(#13),#1193);
#11=SHAPE_REPRESENTATION_RELATIONSHIP('SRR','None',#1200,#12);
#12=ADVANCED_BREP_SHAPE_REPRESENTATION('',(#14),#1192);
#13=STYLED_ITEM('',(#1209),#14);
#14=MANIFOLD_SOLID_BREP('Body686',#757);
#15=FACE_BOUND('',#71,.T.);
#16=FACE_BOUND('',#72,.T.);
#17=FACE_BOUND('',#73,.T.);
#18=FACE_BOUND('',#74,.T.);
#19=FACE_BOUND('',#75,.T.);
#20=FACE_BOUND('',#102,.T.);
#21=FACE_BOUND('',#103,.T.);
#22=FACE_BOUND('',#104,.T.);
#23=FACE_BOUND('',#105,.T.);
#24=FACE_BOUND('',#106,.T.);
#25=FACE_OUTER_BOUND('',#61,.T.);
#26=FACE_OUTER_BOUND('',#62,.T.);
#27=FACE_OUTER_BOUND('',#63,.T.);
#28=FACE_OUTER_BOUND('',#64,.T.);
#29=FACE_OUTER_BOUND('',#65,.T.);
#30=FACE_OUTER_BOUND('',#66,.T.);
#31=FACE_OUTER_BOUND('',#67,.T.);
#32=FACE_OUTER_BOUND('',#68,.T.);
#33=FACE_OUTER_BOUND('',#69,.T.);
#34=FACE_OUTER_BOUND('',#70,.T.);
#35=FACE_OUTER_BOUND('',#76,.T.);
#36=FACE_OUTER_BOUND('',#77,.T.);
#37=FACE_OUTER_BOUND('',#78,.T.);
#38=FACE_OUTER_BOUND('',#79,.T.);
#39=FACE_OUTER_BOUND('',#80,.T.);
#40=FACE_OUTER_BOUND('',#81,.T.);
#41=FACE_OUTER_BOUND('',#82,.T.);
#42=FACE_OUTER_BOUND('',#83,.T.);
#43=FACE_OUTER_BOUND('',#84,.T.);
#44=FACE_OUTER_BOUND('',#85,.T.);
#45=FACE_OUTER_BOUND('',#86,.T.);
#46=FACE_OUTER_BOUND('',#87,.T.);
#47=FACE_OUTER_BOUND('',#88,.T.);
#48=FACE_OUTER_BOUND('',#89,.T.);
#49=FACE_OUTER_BOUND('',#90,.T.);
#50=FACE_OUTER_BOUND('',#91,.T.);
#51=FACE_OUTER_BOUND('',#92,.T.);
#52=FACE_OUTER_BOUND('',#93,.T.);
#53=FACE_OUTER_BOUND('',#94,.T.);
#54=FACE_OUTER_BOUND('',#95,.T.);
#55=FACE_OUTER_BOUND('',#96,.T.);
#56=FACE_OUTER_BOUND('',#97,.T.);
#57=FACE_OUTER_BOUND('',#98,.T.);
#58=FACE_OUTER_BOUND('',#99,.T.);
#59=FACE_OUTER_BOUND('',#100,.T.);
#60=FACE_OUTER_BOUND('',#101,.T.);
#61=EDGE_LOOP('',(#481,#482,#483,#484));
#62=EDGE_LOOP('',(#485,#486,#487,#488));
#63=EDGE_LOOP('',(#489,#490,#491,#492));
#64=EDGE_LOOP('',(#493,#494,#495,#496));
#65=EDGE_LOOP('',(#497,#498,#499,#500));
#66=EDGE_LOOP('',(#501,#502,#503,#504));
#67=EDGE_LOOP('',(#505,#506,#507,#508));
#68=EDGE_LOOP('',(#509,#510,#511,#512));
#69=EDGE_LOOP('',(#513,#514,#515,#516,#517,#518,#519,#520,#521,#522,#523,
#524));
#70=EDGE_LOOP('',(#525,#526,#527,#528));
#71=EDGE_LOOP('',(#529,#530,#531,#532,#533,#534,#535,#536));
#72=EDGE_LOOP('',(#537,#538,#539,#540));
#73=EDGE_LOOP('',(#541,#542,#543,#544));
#74=EDGE_LOOP('',(#545,#546,#547,#548));
#75=EDGE_LOOP('',(#549,#550,#551,#552));
#76=EDGE_LOOP('',(#553,#554,#555,#556));
#77=EDGE_LOOP('',(#557,#558,#559,#560));
#78=EDGE_LOOP('',(#561,#562,#563,#564,#565,#566));
#79=EDGE_LOOP('',(#567,#568,#569,#570,#571,#572,#573,#574));
#80=EDGE_LOOP('',(#575,#576,#577,#578,#579,#580));
#81=EDGE_LOOP('',(#581,#582,#583,#584));
#82=EDGE_LOOP('',(#585,#586,#587,#588));
#83=EDGE_LOOP('',(#589,#590,#591,#592));
#84=EDGE_LOOP('',(#593,#594,#595,#596));
#85=EDGE_LOOP('',(#597,#598,#599,#600));
#86=EDGE_LOOP('',(#601,#602,#603,#604));
#87=EDGE_LOOP('',(#605,#606,#607,#608));
#88=EDGE_LOOP('',(#609,#610,#611,#612));
#89=EDGE_LOOP('',(#613,#614,#615,#616));
#90=EDGE_LOOP('',(#617,#618,#619,#620));
#91=EDGE_LOOP('',(#621,#622,#623,#624));
#92=EDGE_LOOP('',(#625,#626,#627,#628));
#93=EDGE_LOOP('',(#629,#630,#631,#632));
#94=EDGE_LOOP('',(#633,#634,#635,#636));
#95=EDGE_LOOP('',(#637,#638,#639,#640));
#96=EDGE_LOOP('',(#641,#642,#643,#644));
#97=EDGE_LOOP('',(#645,#646,#647,#648));
#98=EDGE_LOOP('',(#649,#650,#651,#652));
#99=EDGE_LOOP('',(#653,#654,#655,#656));
#100=EDGE_LOOP('',(#657,#658,#659,#660));
#101=EDGE_LOOP('',(#661,#662,#663,#664));
#102=EDGE_LOOP('',(#665,#666,#667,#668));
#103=EDGE_LOOP('',(#669,#670,#671,#672));
#104=EDGE_LOOP('',(#673,#674,#675,#676));
#105=EDGE_LOOP('',(#677,#678,#679,#680));
#106=EDGE_LOOP('',(#681,#682,#683,#684));
#107=LINE('',#987,#209);
#108=LINE('',#989,#210);
#109=LINE('',#991,#211);
#110=LINE('',#992,#212);
#111=LINE('',#995,#213);
#112=LINE('',#997,#214);
#113=LINE('',#998,#215);
#114=LINE('',#1001,#216);
#115=LINE('',#1003,#217);
#116=LINE('',#1004,#218);
#117=LINE('',#1007,#219);
#118=LINE('',#1009,#220);
#119=LINE('',#1010,#221);
#120=LINE('',#1013,#222);
#121=LINE('',#1015,#223);
#122=LINE('',#1016,#224);
#123=LINE('',#1020,#225);
#124=LINE('',#1022,#226);
#125=LINE('',#1024,#227);
#126=LINE('',#1025,#228);
#127=LINE('',#1028,#229);
#128=LINE('',#1030,#230);
#129=LINE('',#1031,#231);
#130=LINE('',#1034,#232);
#131=LINE('',#1036,#233);
#132=LINE('',#1037,#234);
#133=LINE('',#1040,#235);
#134=LINE('',#1042,#236);
#135=LINE('',#1043,#237);
#136=LINE('',#1044,#238);
#137=LINE('',#1048,#239);
#138=LINE('',#1050,#240);
#139=LINE('',#1052,#241);
#140=LINE('',#1053,#242);
#141=LINE('',#1055,#243);
#142=LINE('',#1056,#244);
#143=LINE('',#1059,#245);
#144=LINE('',#1061,#246);
#145=LINE('',#1063,#247);
#146=LINE('',#1064,#248);
#147=LINE('',#1067,#249);
#148=LINE('',#1069,#250);
#149=LINE('',#1071,#251);
#150=LINE('',#1072,#252);
#151=LINE('',#1075,#253);
#152=LINE('',#1077,#254);
#153=LINE('',#1079,#255);
#154=LINE('',#1080,#256);
#155=LINE('',#1083,#257);
#156=LINE('',#1085,#258);
#157=LINE('',#1087,#259);
#158=LINE('',#1088,#260);
#159=LINE('',#1091,#261);
#160=LINE('',#1092,#262);
#161=LINE('',#1095,#263);
#162=LINE('',#1097,#264);
#163=LINE('',#1098,#265);
#164=LINE('',#1101,#266);
#165=LINE('',#1102,#267);
#166=LINE('',#1105,#268);
#167=LINE('',#1106,#269);
#168=LINE('',#1108,#270);
#169=LINE('',#1112,#271);
#170=LINE('',#1113,#272);
#171=LINE('',#1114,#273);
#172=LINE('',#1117,#274);
#173=LINE('',#1118,#275);
#174=LINE('',#1121,#276);
#175=LINE('',#1122,#277);
#176=LINE('',#1124,#278);
#177=LINE('',#1128,#279);
#178=LINE('',#1129,#280);
#179=LINE('',#1130,#281);
#180=LINE('',#1133,#282);
#181=LINE('',#1134,#283);
#182=LINE('',#1137,#284);
#183=LINE('',#1138,#285);
#184=LINE('',#1140,#286);
#185=LINE('',#1144,#287);
#186=LINE('',#1145,#288);
#187=LINE('',#1146,#289);
#188=LINE('',#1149,#290);
#189=LINE('',#1150,#291);
#190=LINE('',#1153,#292);
#191=LINE('',#1154,#293);
#192=LINE('',#1156,#294);
#193=LINE('',#1160,#295);
#194=LINE('',#1161,#296);
#195=LINE('',#1162,#297);
#196=LINE('',#1165,#298);
#197=LINE('',#1166,#299);
#198=LINE('',#1169,#300);
#199=LINE('',#1170,#301);
#200=LINE('',#1172,#302);
#201=LINE('',#1176,#303);
#202=LINE('',#1177,#304);
#203=LINE('',#1178,#305);
#204=LINE('',#1181,#306);
#205=LINE('',#1182,#307);
#206=LINE('',#1185,#308);
#207=LINE('',#1186,#309);
#208=LINE('',#1188,#310);
#209=VECTOR('',#811,10.);
#210=VECTOR('',#812,10.);
#211=VECTOR('',#813,10.);
#212=VECTOR('',#814,10.);
#213=VECTOR('',#817,10.);
#214=VECTOR('',#818,10.);
#215=VECTOR('',#819,10.);
#216=VECTOR('',#822,10.);
#217=VECTOR('',#823,10.);
#218=VECTOR('',#824,10.);
#219=VECTOR('',#827,10.);
#220=VECTOR('',#828,10.);
#221=VECTOR('',#829,10.);
#222=VECTOR('',#832,10.);
#223=VECTOR('',#833,10.);
#224=VECTOR('',#834,10.);
#225=VECTOR('',#837,10.);
#226=VECTOR('',#838,10.);
#227=VECTOR('',#839,10.);
#228=VECTOR('',#840,10.);
#229=VECTOR('',#843,10.);
#230=VECTOR('',#844,10.);
#231=VECTOR('',#845,10.);
#232=VECTOR('',#848,10.);
#233=VECTOR('',#849,10.);
#234=VECTOR('',#850,10.);
#235=VECTOR('',#853,10.);
#236=VECTOR('',#854,10.);
#237=VECTOR('',#855,10.);
#238=VECTOR('',#856,10.);
#239=VECTOR('',#859,10.);
#240=VECTOR('',#860,10.);
#241=VECTOR('',#861,10.);
#242=VECTOR('',#862,10.);
#243=VECTOR('',#863,10.);
#244=VECTOR('',#864,10.);
#245=VECTOR('',#865,10.);
#246=VECTOR('',#866,10.);
#247=VECTOR('',#867,10.);
#248=VECTOR('',#868,10.);
#249=VECTOR('',#869,10.);
#250=VECTOR('',#870,10.);
#251=VECTOR('',#871,10.);
#252=VECTOR('',#872,10.);
#253=VECTOR('',#873,10.);
#254=VECTOR('',#874,10.);
#255=VECTOR('',#875,10.);
#256=VECTOR('',#876,10.);
#257=VECTOR('',#877,10.);
#258=VECTOR('',#878,10.);
#259=VECTOR('',#879,10.);
#260=VECTOR('',#880,10.);
#261=VECTOR('',#883,10.);
#262=VECTOR('',#884,10.);
#263=VECTOR('',#887,10.);
#264=VECTOR('',#888,10.);
#265=VECTOR('',#889,10.);
#266=VECTOR('',#892,10.);
#267=VECTOR('',#893,10.);
#268=VECTOR('',#896,10.);
#269=VECTOR('',#897,10.);
#270=VECTOR('',#900,10.);
#271=VECTOR('',#903,10.);
#272=VECTOR('',#904,10.);
#273=VECTOR('',#905,10.);
#274=VECTOR('',#908,10.);
#275=VECTOR('',#909,10.);
#276=VECTOR('',#912,10.);
#277=VECTOR('',#913,10.);
#278=VECTOR('',#916,10.);
#279=VECTOR('',#919,10.);
#280=VECTOR('',#920,10.);
#281=VECTOR('',#921,10.);
#282=VECTOR('',#924,10.);
#283=VECTOR('',#925,10.);
#284=VECTOR('',#928,10.);
#285=VECTOR('',#929,10.);
#286=VECTOR('',#932,10.);
#287=VECTOR('',#935,10.);
#288=VECTOR('',#936,10.);
#289=VECTOR('',#937,10.);
#290=VECTOR('',#940,10.);
#291=VECTOR('',#941,10.);
#292=VECTOR('',#944,10.);
#293=VECTOR('',#945,10.);
#294=VECTOR('',#948,10.);
#295=VECTOR('',#951,10.);
#296=VECTOR('',#952,10.);
#297=VECTOR('',#953,10.);
#298=VECTOR('',#956,10.);
#299=VECTOR('',#957,10.);
#300=VECTOR('',#960,10.);
#301=VECTOR('',#961,10.);
#302=VECTOR('',#964,10.);
#303=VECTOR('',#967,10.);
#304=VECTOR('',#968,10.);
#305=VECTOR('',#969,10.);
#306=VECTOR('',#972,10.);
#307=VECTOR('',#973,10.);
#308=VECTOR('',#976,10.);
#309=VECTOR('',#977,10.);
#310=VECTOR('',#980,10.);
#311=VERTEX_POINT('',#985);
#312=VERTEX_POINT('',#986);
#313=VERTEX_POINT('',#988);
#314=VERTEX_POINT('',#990);
#315=VERTEX_POINT('',#994);
#316=VERTEX_POINT('',#996);
#317=VERTEX_POINT('',#1000);
#318=VERTEX_POINT('',#1002);
#319=VERTEX_POINT('',#1006);
#320=VERTEX_POINT('',#1008);
#321=VERTEX_POINT('',#1012);
#322=VERTEX_POINT('',#1014);
#323=VERTEX_POINT('',#1018);
#324=VERTEX_POINT('',#1019);
#325=VERTEX_POINT('',#1021);
#326=VERTEX_POINT('',#1023);
#327=VERTEX_POINT('',#1027);
#328=VERTEX_POINT('',#1029);
#329=VERTEX_POINT('',#1033);
#330=VERTEX_POINT('',#1035);
#331=VERTEX_POINT('',#1039);
#332=VERTEX_POINT('',#1041);
#333=VERTEX_POINT('',#1046);
#334=VERTEX_POINT('',#1047);
#335=VERTEX_POINT('',#1049);
#336=VERTEX_POINT('',#1051);
#337=VERTEX_POINT('',#1054);
#338=VERTEX_POINT('',#1057);
#339=VERTEX_POINT('',#1058);
#340=VERTEX_POINT('',#1060);
#341=VERTEX_POINT('',#1062);
#342=VERTEX_POINT('',#1065);
#343=VERTEX_POINT('',#1066);
#344=VERTEX_POINT('',#1068);
#345=VERTEX_POINT('',#1070);
#346=VERTEX_POINT('',#1073);
#347=VERTEX_POINT('',#1074);
#348=VERTEX_POINT('',#1076);
#349=VERTEX_POINT('',#1078);
#350=VERTEX_POINT('',#1081);
#351=VERTEX_POINT('',#1082);
#352=VERTEX_POINT('',#1084);
#353=VERTEX_POINT('',#1086);
#354=VERTEX_POINT('',#1090);
#355=VERTEX_POINT('',#1094);
#356=VERTEX_POINT('',#1096);
#357=VERTEX_POINT('',#1100);
#358=VERTEX_POINT('',#1104);
#359=VERTEX_POINT('',#1110);
#360=VERTEX_POINT('',#1111);
#361=VERTEX_POINT('',#1116);
#362=VERTEX_POINT('',#1120);
#363=VERTEX_POINT('',#1126);
#364=VERTEX_POINT('',#1127);
#365=VERTEX_POINT('',#1132);
#366=VERTEX_POINT('',#1136);
#367=VERTEX_POINT('',#1142);
#368=VERTEX_POINT('',#1143);
#369=VERTEX_POINT('',#1148);
#370=VERTEX_POINT('',#1152);
#371=VERTEX_POINT('',#1158);
#372=VERTEX_POINT('',#1159);
#373=VERTEX_POINT('',#1164);
#374=VERTEX_POINT('',#1168);
#375=VERTEX_POINT('',#1174);
#376=VERTEX_POINT('',#1175);
#377=VERTEX_POINT('',#1180);
#378=VERTEX_POINT('',#1184);
#379=EDGE_CURVE('',#311,#312,#107,.T.);
#380=EDGE_CURVE('',#311,#313,#108,.T.);
#381=EDGE_CURVE('',#314,#313,#109,.T.);
#382=EDGE_CURVE('',#312,#314,#110,.T.);
#383=EDGE_CURVE('',#312,#315,#111,.T.);
#384=EDGE_CURVE('',#316,#314,#112,.T.);
#385=EDGE_CURVE('',#315,#316,#113,.T.);
#386=EDGE_CURVE('',#315,#317,#114,.T.);
#387=EDGE_CURVE('',#318,#316,#115,.T.);
#388=EDGE_CURVE('',#317,#318,#116,.T.);
#389=EDGE_CURVE('',#317,#319,#117,.T.);
#390=EDGE_CURVE('',#320,#318,#118,.T.);
#391=EDGE_CURVE('',#319,#320,#119,.T.);
#392=EDGE_CURVE('',#319,#321,#120,.T.);
#393=EDGE_CURVE('',#322,#320,#121,.T.);
#394=EDGE_CURVE('',#321,#322,#122,.T.);
#395=EDGE_CURVE('',#323,#324,#123,.T.);
#396=EDGE_CURVE('',#323,#325,#124,.T.);
#397=EDGE_CURVE('',#326,#325,#125,.T.);
#398=EDGE_CURVE('',#324,#326,#126,.T.);
#399=EDGE_CURVE('',#324,#327,#127,.T.);
#400=EDGE_CURVE('',#328,#326,#128,.T.);
#401=EDGE_CURVE('',#327,#328,#129,.T.);
#402=EDGE_CURVE('',#329,#311,#130,.T.);
#403=EDGE_CURVE('',#329,#330,#131,.T.);
#404=EDGE_CURVE('',#313,#330,#132,.T.);
#405=EDGE_CURVE('',#330,#331,#133,.T.);
#406=EDGE_CURVE('',#331,#332,#134,.T.);
#407=EDGE_CURVE('',#332,#328,#135,.T.);
#408=EDGE_CURVE('',#325,#322,#136,.T.);
#409=EDGE_CURVE('',#333,#334,#137,.T.);
#410=EDGE_CURVE('',#334,#335,#138,.T.);
#411=EDGE_CURVE('',#335,#336,#139,.T.);
#412=EDGE_CURVE('',#336,#333,#140,.T.);
#413=EDGE_CURVE('',#321,#337,#141,.T.);
#414=EDGE_CURVE('',#337,#329,#142,.T.);
#415=EDGE_CURVE('',#338,#339,#143,.T.);
#416=EDGE_CURVE('',#339,#340,#144,.T.);
#417=EDGE_CURVE('',#340,#341,#145,.T.);
#418=EDGE_CURVE('',#341,#338,#146,.T.);
#419=EDGE_CURVE('',#342,#343,#147,.T.);
#420=EDGE_CURVE('',#343,#344,#148,.T.);
#421=EDGE_CURVE('',#344,#345,#149,.T.);
#422=EDGE_CURVE('',#345,#342,#150,.T.);
#423=EDGE_CURVE('',#346,#347,#151,.T.);
#424=EDGE_CURVE('',#347,#348,#152,.T.);
#425=EDGE_CURVE('',#348,#349,#153,.T.);
#426=EDGE_CURVE('',#349,#346,#154,.T.);
#427=EDGE_CURVE('',#350,#351,#155,.T.);
#428=EDGE_CURVE('',#351,#352,#156,.T.);
#429=EDGE_CURVE('',#352,#353,#157,.T.);
#430=EDGE_CURVE('',#353,#350,#158,.T.);
#431=EDGE_CURVE('',#354,#323,#159,.T.);
#432=EDGE_CURVE('',#327,#354,#160,.T.);
#433=EDGE_CURVE('',#355,#331,#161,.T.);
#434=EDGE_CURVE('',#356,#355,#162,.T.);
#435=EDGE_CURVE('',#356,#332,#163,.T.);
#436=EDGE_CURVE('',#357,#356,#164,.T.);
#437=EDGE_CURVE('',#357,#354,#165,.T.);
#438=EDGE_CURVE('',#358,#357,#166,.T.);
#439=EDGE_CURVE('',#358,#337,#167,.T.);
#440=EDGE_CURVE('',#355,#358,#168,.T.);
#441=EDGE_CURVE('',#359,#360,#169,.T.);
#442=EDGE_CURVE('',#360,#350,#170,.T.);
#443=EDGE_CURVE('',#359,#353,#171,.T.);
#444=EDGE_CURVE('',#361,#359,#172,.T.);
#445=EDGE_CURVE('',#361,#352,#173,.T.);
#446=EDGE_CURVE('',#362,#361,#174,.T.);
#447=EDGE_CURVE('',#362,#351,#175,.T.);
#448=EDGE_CURVE('',#360,#362,#176,.T.);
#449=EDGE_CURVE('',#363,#364,#177,.T.);
#450=EDGE_CURVE('',#364,#346,#178,.T.);
#451=EDGE_CURVE('',#363,#349,#179,.T.);
#452=EDGE_CURVE('',#365,#363,#180,.T.);
#453=EDGE_CURVE('',#365,#348,#181,.T.);
#454=EDGE_CURVE('',#366,#365,#182,.T.);
#455=EDGE_CURVE('',#366,#347,#183,.T.);
#456=EDGE_CURVE('',#364,#366,#184,.T.);
#457=EDGE_CURVE('',#367,#368,#185,.T.);
#458=EDGE_CURVE('',#368,#342,#186,.T.);
#459=EDGE_CURVE('',#367,#345,#187,.T.);
#460=EDGE_CURVE('',#369,#367,#188,.T.);
#461=EDGE_CURVE('',#369,#344,#189,.T.);
#462=EDGE_CURVE('',#370,#369,#190,.T.);
#463=EDGE_CURVE('',#370,#343,#191,.T.);
#464=EDGE_CURVE('',#368,#370,#192,.T.);
#465=EDGE_CURVE('',#371,#372,#193,.T.);
#466=EDGE_CURVE('',#372,#338,#194,.T.);
#467=EDGE_CURVE('',#371,#341,#195,.T.);
#468=EDGE_CURVE('',#373,#371,#196,.T.);
#469=EDGE_CURVE('',#373,#340,#197,.T.);
#470=EDGE_CURVE('',#374,#373,#198,.T.);
#471=EDGE_CURVE('',#374,#339,#199,.T.);
#472=EDGE_CURVE('',#372,#374,#200,.T.);
#473=EDGE_CURVE('',#375,#376,#201,.T.);
#474=EDGE_CURVE('',#375,#333,#202,.T.);
#475=EDGE_CURVE('',#376,#336,#203,.T.);
#476=EDGE_CURVE('',#376,#377,#204,.T.);
#477=EDGE_CURVE('',#377,#335,#205,.T.);
#478=EDGE_CURVE('',#377,#378,#206,.T.);
#479=EDGE_CURVE('',#378,#334,#207,.T.);
#480=EDGE_CURVE('',#378,#375,#208,.T.);
#481=ORIENTED_EDGE('',*,*,#379,.F.);
#482=ORIENTED_EDGE('',*,*,#380,.T.);
#483=ORIENTED_EDGE('',*,*,#381,.F.);
#484=ORIENTED_EDGE('',*,*,#382,.F.);
#485=ORIENTED_EDGE('',*,*,#383,.F.);
#486=ORIENTED_EDGE('',*,*,#382,.T.);
#487=ORIENTED_EDGE('',*,*,#384,.F.);
#488=ORIENTED_EDGE('',*,*,#385,.F.);
#489=ORIENTED_EDGE('',*,*,#386,.F.);
#490=ORIENTED_EDGE('',*,*,#385,.T.);
#491=ORIENTED_EDGE('',*,*,#387,.F.);
#492=ORIENTED_EDGE('',*,*,#388,.F.);
#493=ORIENTED_EDGE('',*,*,#389,.F.);
#494=ORIENTED_EDGE('',*,*,#388,.T.);
#495=ORIENTED_EDGE('',*,*,#390,.F.);
#496=ORIENTED_EDGE('',*,*,#391,.F.);
#497=ORIENTED_EDGE('',*,*,#392,.F.);
#498=ORIENTED_EDGE('',*,*,#391,.T.);
#499=ORIENTED_EDGE('',*,*,#393,.F.);
#500=ORIENTED_EDGE('',*,*,#394,.F.);
#501=ORIENTED_EDGE('',*,*,#395,.F.);
#502=ORIENTED_EDGE('',*,*,#396,.T.);
#503=ORIENTED_EDGE('',*,*,#397,.F.);
#504=ORIENTED_EDGE('',*,*,#398,.F.);
#505=ORIENTED_EDGE('',*,*,#399,.F.);
#506=ORIENTED_EDGE('',*,*,#398,.T.);
#507=ORIENTED_EDGE('',*,*,#400,.F.);
#508=ORIENTED_EDGE('',*,*,#401,.F.);
#509=ORIENTED_EDGE('',*,*,#402,.F.);
#510=ORIENTED_EDGE('',*,*,#403,.T.);
#511=ORIENTED_EDGE('',*,*,#404,.F.);
#512=ORIENTED_EDGE('',*,*,#380,.F.);
#513=ORIENTED_EDGE('',*,*,#404,.T.);
#514=ORIENTED_EDGE('',*,*,#405,.T.);
#515=ORIENTED_EDGE('',*,*,#406,.T.);
#516=ORIENTED_EDGE('',*,*,#407,.T.);
#517=ORIENTED_EDGE('',*,*,#400,.T.);
#518=ORIENTED_EDGE('',*,*,#397,.T.);
#519=ORIENTED_EDGE('',*,*,#408,.T.);
#520=ORIENTED_EDGE('',*,*,#393,.T.);
#521=ORIENTED_EDGE('',*,*,#390,.T.);
#522=ORIENTED_EDGE('',*,*,#387,.T.);
#523=ORIENTED_EDGE('',*,*,#384,.T.);
#524=ORIENTED_EDGE('',*,*,#381,.T.);
#525=ORIENTED_EDGE('',*,*,#409,.T.);
#526=ORIENTED_EDGE('',*,*,#410,.T.);
#527=ORIENTED_EDGE('',*,*,#411,.T.);
#528=ORIENTED_EDGE('',*,*,#412,.T.);
#529=ORIENTED_EDGE('',*,*,#413,.T.);
#530=ORIENTED_EDGE('',*,*,#414,.T.);
#531=ORIENTED_EDGE('',*,*,#402,.T.);
#532=ORIENTED_EDGE('',*,*,#379,.T.);
#533=ORIENTED_EDGE('',*,*,#383,.T.);
#534=ORIENTED_EDGE('',*,*,#386,.T.);
#535=ORIENTED_EDGE('',*,*,#389,.T.);
#536=ORIENTED_EDGE('',*,*,#392,.T.);
#537=ORIENTED_EDGE('',*,*,#415,.T.);
#538=ORIENTED_EDGE('',*,*,#416,.T.);
#539=ORIENTED_EDGE('',*,*,#417,.T.);
#540=ORIENTED_EDGE('',*,*,#418,.T.);
#541=ORIENTED_EDGE('',*,*,#419,.T.);
#542=ORIENTED_EDGE('',*,*,#420,.T.);
#543=ORIENTED_EDGE('',*,*,#421,.T.);
#544=ORIENTED_EDGE('',*,*,#422,.T.);
#545=ORIENTED_EDGE('',*,*,#423,.T.);
#546=ORIENTED_EDGE('',*,*,#424,.T.);
#547=ORIENTED_EDGE('',*,*,#425,.T.);
#548=ORIENTED_EDGE('',*,*,#426,.T.);
#549=ORIENTED_EDGE('',*,*,#427,.T.);
#550=ORIENTED_EDGE('',*,*,#428,.T.);
#551=ORIENTED_EDGE('',*,*,#429,.T.);
#552=ORIENTED_EDGE('',*,*,#430,.T.);
#553=ORIENTED_EDGE('',*,*,#431,.T.);
#554=ORIENTED_EDGE('',*,*,#395,.T.);
#555=ORIENTED_EDGE('',*,*,#399,.T.);
#556=ORIENTED_EDGE('',*,*,#432,.T.);
#557=ORIENTED_EDGE('',*,*,#433,.F.);
#558=ORIENTED_EDGE('',*,*,#434,.F.);
#559=ORIENTED_EDGE('',*,*,#435,.T.);
#560=ORIENTED_EDGE('',*,*,#406,.F.);
#561=ORIENTED_EDGE('',*,*,#435,.F.);
#562=ORIENTED_EDGE('',*,*,#436,.F.);
#563=ORIENTED_EDGE('',*,*,#437,.T.);
#564=ORIENTED_EDGE('',*,*,#432,.F.);
#565=ORIENTED_EDGE('',*,*,#401,.T.);
#566=ORIENTED_EDGE('',*,*,#407,.F.);
#567=ORIENTED_EDGE('',*,*,#437,.F.);
#568=ORIENTED_EDGE('',*,*,#438,.F.);
#569=ORIENTED_EDGE('',*,*,#439,.T.);
#570=ORIENTED_EDGE('',*,*,#413,.F.);
#571=ORIENTED_EDGE('',*,*,#394,.T.);
#572=ORIENTED_EDGE('',*,*,#408,.F.);
#573=ORIENTED_EDGE('',*,*,#396,.F.);
#574=ORIENTED_EDGE('',*,*,#431,.F.);
#575=ORIENTED_EDGE('',*,*,#414,.F.);
#576=ORIENTED_EDGE('',*,*,#439,.F.);
#577=ORIENTED_EDGE('',*,*,#440,.F.);
#578=ORIENTED_EDGE('',*,*,#433,.T.);
#579=ORIENTED_EDGE('',*,*,#405,.F.);
#580=ORIENTED_EDGE('',*,*,#403,.F.);
#581=ORIENTED_EDGE('',*,*,#441,.T.);
#582=ORIENTED_EDGE('',*,*,#442,.T.);
#583=ORIENTED_EDGE('',*,*,#430,.F.);
#584=ORIENTED_EDGE('',*,*,#443,.F.);
#585=ORIENTED_EDGE('',*,*,#444,.T.);
#586=ORIENTED_EDGE('',*,*,#443,.T.);
#587=ORIENTED_EDGE('',*,*,#429,.F.);
#588=ORIENTED_EDGE('',*,*,#445,.F.);
#589=ORIENTED_EDGE('',*,*,#446,.T.);
#590=ORIENTED_EDGE('',*,*,#445,.T.);
#591=ORIENTED_EDGE('',*,*,#428,.F.);
#592=ORIENTED_EDGE('',*,*,#447,.F.);
#593=ORIENTED_EDGE('',*,*,#448,.T.);
#594=ORIENTED_EDGE('',*,*,#447,.T.);
#595=ORIENTED_EDGE('',*,*,#427,.F.);
#596=ORIENTED_EDGE('',*,*,#442,.F.);
#597=ORIENTED_EDGE('',*,*,#449,.T.);
#598=ORIENTED_EDGE('',*,*,#450,.T.);
#599=ORIENTED_EDGE('',*,*,#426,.F.);
#600=ORIENTED_EDGE('',*,*,#451,.F.);
#601=ORIENTED_EDGE('',*,*,#452,.T.);
#602=ORIENTED_EDGE('',*,*,#451,.T.);
#603=ORIENTED_EDGE('',*,*,#425,.F.);
#604=ORIENTED_EDGE('',*,*,#453,.F.);
#605=ORIENTED_EDGE('',*,*,#454,.T.);
#606=ORIENTED_EDGE('',*,*,#453,.T.);
#607=ORIENTED_EDGE('',*,*,#424,.F.);
#608=ORIENTED_EDGE('',*,*,#455,.F.);
#609=ORIENTED_EDGE('',*,*,#456,.T.);
#610=ORIENTED_EDGE('',*,*,#455,.T.);
#611=ORIENTED_EDGE('',*,*,#423,.F.);
#612=ORIENTED_EDGE('',*,*,#450,.F.);
#613=ORIENTED_EDGE('',*,*,#457,.T.);
#614=ORIENTED_EDGE('',*,*,#458,.T.);
#615=ORIENTED_EDGE('',*,*,#422,.F.);
#616=ORIENTED_EDGE('',*,*,#459,.F.);
#617=ORIENTED_EDGE('',*,*,#460,.T.);
#618=ORIENTED_EDGE('',*,*,#459,.T.);
#619=ORIENTED_EDGE('',*,*,#421,.F.);
#620=ORIENTED_EDGE('',*,*,#461,.F.);
#621=ORIENTED_EDGE('',*,*,#462,.T.);
#622=ORIENTED_EDGE('',*,*,#461,.T.);
#623=ORIENTED_EDGE('',*,*,#420,.F.);
#624=ORIENTED_EDGE('',*,*,#463,.F.);
#625=ORIENTED_EDGE('',*,*,#464,.T.);
#626=ORIENTED_EDGE('',*,*,#463,.T.);
#627=ORIENTED_EDGE('',*,*,#419,.F.);
#628=ORIENTED_EDGE('',*,*,#458,.F.);
#629=ORIENTED_EDGE('',*,*,#465,.T.);
#630=ORIENTED_EDGE('',*,*,#466,.T.);
#631=ORIENTED_EDGE('',*,*,#418,.F.);
#632=ORIENTED_EDGE('',*,*,#467,.F.);
#633=ORIENTED_EDGE('',*,*,#468,.T.);
#634=ORIENTED_EDGE('',*,*,#467,.T.);
#635=ORIENTED_EDGE('',*,*,#417,.F.);
#636=ORIENTED_EDGE('',*,*,#469,.F.);
#637=ORIENTED_EDGE('',*,*,#470,.T.);
#638=ORIENTED_EDGE('',*,*,#469,.T.);
#639=ORIENTED_EDGE('',*,*,#416,.F.);
#640=ORIENTED_EDGE('',*,*,#471,.F.);
#641=ORIENTED_EDGE('',*,*,#472,.T.);
#642=ORIENTED_EDGE('',*,*,#471,.T.);
#643=ORIENTED_EDGE('',*,*,#415,.F.);
#644=ORIENTED_EDGE('',*,*,#466,.F.);
#645=ORIENTED_EDGE('',*,*,#473,.F.);
#646=ORIENTED_EDGE('',*,*,#474,.T.);
#647=ORIENTED_EDGE('',*,*,#412,.F.);
#648=ORIENTED_EDGE('',*,*,#475,.F.);
#649=ORIENTED_EDGE('',*,*,#476,.F.);
#650=ORIENTED_EDGE('',*,*,#475,.T.);
#651=ORIENTED_EDGE('',*,*,#411,.F.);
#652=ORIENTED_EDGE('',*,*,#477,.F.);
#653=ORIENTED_EDGE('',*,*,#478,.F.);
#654=ORIENTED_EDGE('',*,*,#477,.T.);
#655=ORIENTED_EDGE('',*,*,#410,.F.);
#656=ORIENTED_EDGE('',*,*,#479,.F.);
#657=ORIENTED_EDGE('',*,*,#480,.F.);
#658=ORIENTED_EDGE('',*,*,#479,.T.);
#659=ORIENTED_EDGE('',*,*,#409,.F.);
#660=ORIENTED_EDGE('',*,*,#474,.F.);
#661=ORIENTED_EDGE('',*,*,#480,.T.);
#662=ORIENTED_EDGE('',*,*,#473,.T.);
#663=ORIENTED_EDGE('',*,*,#476,.T.);
#664=ORIENTED_EDGE('',*,*,#478,.T.);
#665=ORIENTED_EDGE('',*,*,#438,.T.);
#666=ORIENTED_EDGE('',*,*,#436,.T.);
#667=ORIENTED_EDGE('',*,*,#434,.T.);
#668=ORIENTED_EDGE('',*,*,#440,.T.);
#669=ORIENTED_EDGE('',*,*,#472,.F.);
#670=ORIENTED_EDGE('',*,*,#465,.F.);
#671=ORIENTED_EDGE('',*,*,#468,.F.);
#672=ORIENTED_EDGE('',*,*,#470,.F.);
#673=ORIENTED_EDGE('',*,*,#464,.F.);
#674=ORIENTED_EDGE('',*,*,#457,.F.);
#675=ORIENTED_EDGE('',*,*,#460,.F.);
#676=ORIENTED_EDGE('',*,*,#462,.F.);
#677=ORIENTED_EDGE('',*,*,#456,.F.);
#678=ORIENTED_EDGE('',*,*,#449,.F.);
#679=ORIENTED_EDGE('',*,*,#452,.F.);
#680=ORIENTED_EDGE('',*,*,#454,.F.);
#681=ORIENTED_EDGE('',*,*,#448,.F.);
#682=ORIENTED_EDGE('',*,*,#441,.F.);
#683=ORIENTED_EDGE('',*,*,#444,.F.);
#684=ORIENTED_EDGE('',*,*,#446,.F.);
#685=PLANE('',#771);
#686=PLANE('',#772);
#687=PLANE('',#773);
#688=PLANE('',#774);
#689=PLANE('',#775);
#690=PLANE('',#776);
#691=PLANE('',#777);
#692=PLANE('',#778);
#693=PLANE('',#779);
#694=PLANE('',#780);
#695=PLANE('',#781);
#696=PLANE('',#782);
#697=PLANE('',#783);
#698=PLANE('',#784);
#699=PLANE('',#785);
#700=PLANE('',#786);
#701=PLANE('',#787);
#702=PLANE('',#788);
#703=PLANE('',#789);
#704=PLANE('',#790);
#705=PLANE('',#791);
#706=PLANE('',#792);
#707=PLANE('',#793);
#708=PLANE('',#794);
#709=PLANE('',#795);
#710=PLANE('',#796);
#711=PLANE('',#797);
#712=PLANE('',#798);
#713=PLANE('',#799);
#714=PLANE('',#800);
#715=PLANE('',#801);
#716=PLANE('',#802);
#717=PLANE('',#803);
#718=PLANE('',#804);
#719=PLANE('',#805);
#720=PLANE('',#806);
#721=ADVANCED_FACE('',(#25),#685,.T.);
#722=ADVANCED_FACE('',(#26),#686,.T.);
#723=ADVANCED_FACE('',(#27),#687,.T.);
#724=ADVANCED_FACE('',(#28),#688,.T.);
#725=ADVANCED_FACE('',(#29),#689,.T.);
#726=ADVANCED_FACE('',(#30),#690,.T.);
#727=ADVANCED_FACE('',(#31),#691,.T.);
#728=ADVANCED_FACE('',(#32),#692,.T.);
#729=ADVANCED_FACE('',(#33),#693,.T.);
#730=ADVANCED_FACE('',(#34,#15,#16,#17,#18,#19),#694,.T.);
#731=ADVANCED_FACE('',(#35),#695,.T.);
#732=ADVANCED_FACE('',(#36),#696,.F.);
#733=ADVANCED_FACE('',(#37),#697,.F.);
#734=ADVANCED_FACE('',(#38),#698,.F.);
#735=ADVANCED_FACE('',(#39),#699,.F.);
#736=ADVANCED_FACE('',(#40),#700,.T.);
#737=ADVANCED_FACE('',(#41),#701,.T.);
#738=ADVANCED_FACE('',(#42),#702,.T.);
#739=ADVANCED_FACE('',(#43),#703,.T.);
#740=ADVANCED_FACE('',(#44),#704,.T.);
#741=ADVANCED_FACE('',(#45),#705,.T.);
#742=ADVANCED_FACE('',(#46),#706,.T.);
#743=ADVANCED_FACE('',(#47),#707,.T.);
#744=ADVANCED_FACE('',(#48),#708,.T.);
#745=ADVANCED_FACE('',(#49),#709,.T.);
#746=ADVANCED_FACE('',(#50),#710,.T.);
#747=ADVANCED_FACE('',(#51),#711,.T.);
#748=ADVANCED_FACE('',(#52),#712,.T.);
#749=ADVANCED_FACE('',(#53),#713,.T.);
#750=ADVANCED_FACE('',(#54),#714,.T.);
#751=ADVANCED_FACE('',(#55),#715,.T.);
#752=ADVANCED_FACE('',(#56),#716,.T.);
#753=ADVANCED_FACE('',(#57),#717,.T.);
#754=ADVANCED_FACE('',(#58),#718,.T.);
#755=ADVANCED_FACE('',(#59),#719,.T.);
#756=ADVANCED_FACE('',(#60,#20,#21,#22,#23,#24),#720,.F.);
#757=CLOSED_SHELL('',(#721,#722,#723,#724,#725,#726,#727,#728,#729,#730,
#731,#732,#733,#734,#735,#736,#737,#738,#739,#740,#741,#742,#743,#744,#745,
#746,#747,#748,#749,#750,#751,#752,#753,#754,#755,#756));
#758=DERIVED_UNIT_ELEMENT(#760,1.);
#759=DERIVED_UNIT_ELEMENT(#1195,-3.);
#760=(
MASS_UNIT()
NAMED_UNIT(*)
SI_UNIT(.KILO.,.GRAM.)
);
#761=DERIVED_UNIT((#758,#759));
#762=MEASURE_REPRESENTATION_ITEM('density measure',
POSITIVE_RATIO_MEASURE(7850.),#761);
#763=PROPERTY_DEFINITION_REPRESENTATION(#768,#765);
#764=PROPERTY_DEFINITION_REPRESENTATION(#769,#766);
#765=REPRESENTATION('material name',(#767),#1192);
#766=REPRESENTATION('density',(#762),#1192);
#767=DESCRIPTIVE_REPRESENTATION_ITEM('Steel','Steel');
#768=PROPERTY_DEFINITION('material property','material name',#1202);
#769=PROPERTY_DEFINITION('material property','density of part',#1202);
#770=AXIS2_PLACEMENT_3D('',#983,#807,#808);
#771=AXIS2_PLACEMENT_3D('',#984,#809,#810);
#772=AXIS2_PLACEMENT_3D('',#993,#815,#816);
#773=AXIS2_PLACEMENT_3D('',#999,#820,#821);
#774=AXIS2_PLACEMENT_3D('',#1005,#825,#826);
#775=AXIS2_PLACEMENT_3D('',#1011,#830,#831);
#776=AXIS2_PLACEMENT_3D('',#1017,#835,#836);
#777=AXIS2_PLACEMENT_3D('',#1026,#841,#842);
#778=AXIS2_PLACEMENT_3D('',#1032,#846,#847);
#779=AXIS2_PLACEMENT_3D('',#1038,#851,#852);
#780=AXIS2_PLACEMENT_3D('',#1045,#857,#858);
#781=AXIS2_PLACEMENT_3D('',#1089,#881,#882);
#782=AXIS2_PLACEMENT_3D('',#1093,#885,#886);
#783=AXIS2_PLACEMENT_3D('',#1099,#890,#891);
#784=AXIS2_PLACEMENT_3D('',#1103,#894,#895);
#785=AXIS2_PLACEMENT_3D('',#1107,#898,#899);
#786=AXIS2_PLACEMENT_3D('',#1109,#901,#902);
#787=AXIS2_PLACEMENT_3D('',#1115,#906,#907);
#788=AXIS2_PLACEMENT_3D('',#1119,#910,#911);
#789=AXIS2_PLACEMENT_3D('',#1123,#914,#915);
#790=AXIS2_PLACEMENT_3D('',#1125,#917,#918);
#791=AXIS2_PLACEMENT_3D('',#1131,#922,#923);
#792=AXIS2_PLACEMENT_3D('',#1135,#926,#927);
#793=AXIS2_PLACEMENT_3D('',#1139,#930,#931);
#794=AXIS2_PLACEMENT_3D('',#1141,#933,#934);
#795=AXIS2_PLACEMENT_3D('',#1147,#938,#939);
#796=AXIS2_PLACEMENT_3D('',#1151,#942,#943);
#797=AXIS2_PLACEMENT_3D('',#1155,#946,#947);
#798=AXIS2_PLACEMENT_3D('',#1157,#949,#950);
#799=AXIS2_PLACEMENT_3D('',#1163,#954,#955);
#800=AXIS2_PLACEMENT_3D('',#1167,#958,#959);
#801=AXIS2_PLACEMENT_3D('',#1171,#962,#963);
#802=AXIS2_PLACEMENT_3D('',#1173,#965,#966);
#803=AXIS2_PLACEMENT_3D('',#1179,#970,#971);
#804=AXIS2_PLACEMENT_3D('',#1183,#974,#975);
#805=AXIS2_PLACEMENT_3D('',#1187,#978,#979);
#806=AXIS2_PLACEMENT_3D('',#1189,#981,#982);
#807=DIRECTION('axis',(0.,0.,1.));
#808=DIRECTION('refdir',(1.,0.,0.));
#809=DIRECTION('center_axis',(-1.,0.,0.));
#810=DIRECTION('ref_axis',(0.,0.,-1.));
#811=DIRECTION('',(0.,0.,1.));
#812=DIRECTION('',(0.,-1.,0.));
#813=DIRECTION('',(0.,0.,-1.));
#814=DIRECTION('',(0.,-1.,0.));
#815=DIRECTION('center_axis',(0.,0.,1.));
#816=DIRECTION('ref_axis',(-1.,0.,0.));
#817=DIRECTION('',(1.,0.,0.));
#818=DIRECTION('',(-1.,0.,0.));
#819=DIRECTION('',(0.,-1.,0.));
#820=DIRECTION('center_axis',(1.,0.,0.));
#821=DIRECTION('ref_axis',(0.,0.,1.));
#822=DIRECTION('',(0.,0.,-1.));
#823=DIRECTION('',(0.,0.,1.));
#824=DIRECTION('',(0.,-1.,0.));
#825=DIRECTION('center_axis',(0.,0.,-1.));
#826=DIRECTION('ref_axis',(1.,0.,0.));
#827=DIRECTION('',(-1.,0.,0.));
#828=DIRECTION('',(1.,0.,0.));
#829=DIRECTION('',(0.,-1.,0.));
#830=DIRECTION('center_axis',(-1.,0.,0.));
#831=DIRECTION('ref_axis',(0.,0.,-1.));
#832=DIRECTION('',(0.,0.,1.));
#833=DIRECTION('',(0.,0.,-1.));
#834=DIRECTION('',(0.,-1.,0.));
#835=DIRECTION('center_axis',(-1.,0.,0.));
#836=DIRECTION('ref_axis',(0.,0.,-1.));
#837=DIRECTION('',(0.,0.,1.));
#838=DIRECTION('',(0.,-1.,0.));
#839=DIRECTION('',(0.,0.,-1.));
#840=DIRECTION('',(0.,-1.,0.));
#841=DIRECTION('center_axis',(-3.22884520952356E-17,0.,-1.));
#842=DIRECTION('ref_axis',(1.,0.,-3.22884520952356E-17));
#843=DIRECTION('',(-1.,0.,3.22884520952356E-17));
#844=DIRECTION('',(1.,0.,-3.22884520952356E-17));
#845=DIRECTION('',(0.,-1.,0.));
#846=DIRECTION('center_axis',(-3.22884520952356E-17,0.,-1.));
#847=DIRECTION('ref_axis',(1.,0.,-3.22884520952356E-17));
#848=DIRECTION('',(-1.,0.,3.22884520952356E-17));
#849=DIRECTION('',(0.,-1.,0.));
#850=DIRECTION('',(1.,0.,-3.22884520952356E-17));
#851=DIRECTION('center_axis',(0.,-1.,0.));
#852=DIRECTION('ref_axis',(0.,0.,-1.));
#853=DIRECTION('',(0.,0.,1.));
#854=DIRECTION('',(1.,0.,0.));
#855=DIRECTION('',(0.,0.,-1.));
#856=DIRECTION('',(-1.,0.,0.));
#857=DIRECTION('center_axis',(0.,-1.,0.));
#858=DIRECTION('ref_axis',(0.,0.,-1.));
#859=DIRECTION('',(1.,0.,0.));
#860=DIRECTION('',(0.,0.,1.));
#861=DIRECTION('',(-1.,0.,0.));
#862=DIRECTION('',(0.,0.,-1.));
#863=DIRECTION('',(1.,0.,0.));
#864=DIRECTION('',(0.,0.,1.));
#865=DIRECTION('',(-1.,0.,0.));
#866=DIRECTION('',(0.,0.,1.));
#867=DIRECTION('',(1.,0.,0.));
#868=DIRECTION('',(0.,0.,-1.));
#869=DIRECTION('',(-1.,0.,0.));
#870=DIRECTION('',(0.,0.,1.));
#871=DIRECTION('',(1.,0.,0.));
#872=DIRECTION('',(0.,0.,-1.));
#873=DIRECTION('',(-1.,0.,0.));
#874=DIRECTION('',(0.,0.,1.));
#875=DIRECTION('',(1.,0.,0.));
#876=DIRECTION('',(0.,0.,-1.));
#877=DIRECTION('',(-1.,0.,0.));
#878=DIRECTION('',(0.,0.,1.));
#879=DIRECTION('',(1.,0.,0.));
#880=DIRECTION('',(0.,0.,-1.));
#881=DIRECTION('center_axis',(0.,-1.,0.));
#882=DIRECTION('ref_axis',(0.,0.,-1.));
#883=DIRECTION('',(1.,0.,0.));
#884=DIRECTION('',(0.,0.,-1.));
#885=DIRECTION('center_axis',(0.,0.,1.));
#886=DIRECTION('ref_axis',(-1.,0.,0.));
#887=DIRECTION('',(0.,-1.,0.));
#888=DIRECTION('',(-1.,0.,0.));
#889=DIRECTION('',(0.,-1.,0.));
#890=DIRECTION('center_axis',(1.,0.,0.));
#891=DIRECTION('ref_axis',(0.,0.,1.));
#892=DIRECTION('',(0.,0.,1.));
#893=DIRECTION('',(0.,-1.,0.));
#894=DIRECTION('center_axis',(0.,0.,-1.));
#895=DIRECTION('ref_axis',(1.,0.,0.));
#896=DIRECTION('',(1.,0.,0.));
#897=DIRECTION('',(0.,-1.,0.));
#898=DIRECTION('center_axis',(-1.,0.,0.));
#899=DIRECTION('ref_axis',(0.,0.,-1.));
#900=DIRECTION('',(0.,0.,-1.));
#901=DIRECTION('center_axis',(-1.,0.,0.));
#902=DIRECTION('ref_axis',(0.,0.,-1.));
#903=DIRECTION('',(0.,0.,-1.));
#904=DIRECTION('',(0.,-1.,0.));
#905=DIRECTION('',(0.,-1.,0.));
#906=DIRECTION('center_axis',(0.,0.,-1.));
#907=DIRECTION('ref_axis',(1.,0.,0.));
#908=DIRECTION('',(1.,0.,0.));
#909=DIRECTION('',(0.,-1.,0.));
#910=DIRECTION('center_axis',(1.,0.,0.));
#911=DIRECTION('ref_axis',(0.,0.,1.));
#912=DIRECTION('',(0.,0.,1.));
#913=DIRECTION('',(0.,-1.,0.));
#914=DIRECTION('center_axis',(0.,0.,1.));
#915=DIRECTION('ref_axis',(-1.,0.,0.));
#916=DIRECTION('',(-1.,0.,0.));
#917=DIRECTION('center_axis',(-1.,0.,0.));
#918=DIRECTION('ref_axis',(0.,0.,-1.));
#919=DIRECTION('',(0.,0.,-1.));
#920=DIRECTION('',(0.,-1.,0.));
#921=DIRECTION('',(0.,-1.,0.));
#922=DIRECTION('center_axis',(0.,0.,-1.));
#923=DIRECTION('ref_axis',(1.,0.,0.));
#924=DIRECTION('',(1.,0.,0.));
#925=DIRECTION('',(0.,-1.,0.));
#926=DIRECTION('center_axis',(1.,0.,0.));
#927=DIRECTION('ref_axis',(0.,0.,1.));
#928=DIRECTION('',(0.,0.,1.));
#929=DIRECTION('',(0.,-1.,0.));
#930=DIRECTION('center_axis',(0.,0.,1.));
#931=DIRECTION('ref_axis',(-1.,0.,0.));
#932=DIRECTION('',(-1.,0.,0.));
#933=DIRECTION('center_axis',(-1.,0.,0.));
#934=DIRECTION('ref_axis',(0.,0.,-1.));
#935=DIRECTION('',(0.,0.,-1.));
#936=DIRECTION('',(0.,-1.,0.));
#937=DIRECTION('',(0.,-1.,0.));
#938=DIRECTION('center_axis',(0.,0.,-1.));
#939=DIRECTION('ref_axis',(1.,0.,0.));
#940=DIRECTION('',(1.,0.,0.));
#941=DIRECTION('',(0.,-1.,0.));
#942=DIRECTION('center_axis',(1.,0.,0.));
#943=DIRECTION('ref_axis',(0.,0.,1.));
#944=DIRECTION('',(0.,0.,1.));
#945=DIRECTION('',(0.,-1.,0.));
#946=DIRECTION('center_axis',(0.,0.,1.));
#947=DIRECTION('ref_axis',(-1.,0.,0.));
#948=DIRECTION('',(-1.,0.,0.));
#949=DIRECTION('center_axis',(-1.,0.,0.));
#950=DIRECTION('ref_axis',(0.,0.,-1.));
#951=DIRECTION('',(0.,0.,-1.));
#952=DIRECTION('',(0.,-1.,0.));
#953=DIRECTION('',(0.,-1.,0.));
#954=DIRECTION('center_axis',(0.,0.,-1.));
#955=DIRECTION('ref_axis',(1.,0.,0.));
#956=DIRECTION('',(1.,0.,0.));
#957=DIRECTION('',(0.,-1.,0.));
#958=DIRECTION('center_axis',(1.,0.,0.));
#959=DIRECTION('ref_axis',(0.,0.,1.));
#960=DIRECTION('',(0.,0.,1.));
#961=DIRECTION('',(0.,-1.,0.));
#962=DIRECTION('center_axis',(0.,0.,1.));
#963=DIRECTION('ref_axis',(-1.,0.,0.));
#964=DIRECTION('',(-1.,0.,0.));
#965=DIRECTION('center_axis',(-1.,0.,0.));
#966=DIRECTION('ref_axis',(0.,0.,-1.));
#967=DIRECTION('',(0.,0.,1.));
#968=DIRECTION('',(0.,-1.,0.));
#969=DIRECTION('',(0.,-1.,0.));
#970=DIRECTION('center_axis',(0.,0.,1.));
#971=DIRECTION('ref_axis',(-1.,0.,0.));
#972=DIRECTION('',(1.,0.,0.));
#973=DIRECTION('',(0.,-1.,0.));
#974=DIRECTION('center_axis',(1.,0.,0.));
#975=DIRECTION('ref_axis',(0.,0.,1.));
#976=DIRECTION('',(0.,0.,-1.));
#977=DIRECTION('',(0.,-1.,0.));
#978=DIRECTION('center_axis',(0.,0.,-1.));
#979=DIRECTION('ref_axis',(1.,0.,0.));
#980=DIRECTION('',(-1.,0.,0.));
#981=DIRECTION('center_axis',(0.,-1.,0.));
#982=DIRECTION('ref_axis',(1.,0.,0.));
#983=CARTESIAN_POINT('',(0.,0.,0.));
#984=CARTESIAN_POINT('Origin',(150.199875821837,-142.,19.9835903291979));
#985=CARTESIAN_POINT('',(150.199875821837,-142.,18.4705276016066));
#986=CARTESIAN_POINT('',(150.199875821837,-142.,19.9835903291979));
#987=CARTESIAN_POINT('',(150.199875821837,-142.,11.741795190676));
#988=CARTESIAN_POINT('',(150.199875821837,-146.,18.4705276016066));
#989=CARTESIAN_POINT('',(150.199875821837,-142.,18.4705276016066));
#990=CARTESIAN_POINT('',(150.199875821837,-146.,19.9835903291979));
#991=CARTESIAN_POINT('',(150.199875821837,-146.,-13.0000001937151));
#992=CARTESIAN_POINT('',(150.199875821837,-142.,19.9835903291979));
#993=CARTESIAN_POINT('Origin',(219.000003263354,-142.,19.9835903291979));
#994=CARTESIAN_POINT('',(219.000003263354,-142.,19.9835903291979));
#995=CARTESIAN_POINT('',(190.750002842396,-142.,19.9835903291979));
#996=CARTESIAN_POINT('',(219.000003263354,-146.,19.9835903291979));
#997=CARTESIAN_POINT('',(150.199875821837,-146.,19.9835903291979));
#998=CARTESIAN_POINT('',(219.000003263354,-142.,19.9835903291979));
#999=CARTESIAN_POINT('Origin',(219.000003263354,-142.,-13.0000001937151));
#1000=CARTESIAN_POINT('',(219.000003263354,-142.,-13.0000001937151));
#1001=CARTESIAN_POINT('',(219.000003263354,-142.,-4.75000007078052));
#1002=CARTESIAN_POINT('',(219.000003263354,-146.,-13.0000001937151));
#1003=CARTESIAN_POINT('',(219.000003263354,-146.,19.9835903291979));
#1004=CARTESIAN_POINT('',(219.000003263354,-142.,-13.0000001937151));
#1005=CARTESIAN_POINT('Origin',(150.199875821837,-142.,-13.0000001937151));
#1006=CARTESIAN_POINT('',(150.199875821837,-142.,-13.0000001937151));
#1007=CARTESIAN_POINT('',(156.349939121638,-142.,-13.0000001937151));
#1008=CARTESIAN_POINT('',(150.199875821837,-146.,-13.0000001937151));
#1009=CARTESIAN_POINT('',(219.000003263354,-146.,-13.0000001937151));
#1010=CARTESIAN_POINT('',(150.199875821837,-142.,-13.0000001937151));
#1011=CARTESIAN_POINT('Origin',(150.199875821837,-142.,-11.4803194572359));
#1012=CARTESIAN_POINT('',(150.199875821837,-142.,-11.4803194572359));
#1013=CARTESIAN_POINT('',(150.199875821837,-142.,-3.99015970254092));
#1014=CARTESIAN_POINT('',(150.199875821837,-146.,-11.4803194572359));
#1015=CARTESIAN_POINT('',(150.199875821837,-146.,-13.0000001937151));
#1016=CARTESIAN_POINT('',(150.199875821837,-142.,-11.4803194572359));
#1017=CARTESIAN_POINT('Origin',(218.968921878955,-142.,18.4705276016066));
#1018=CARTESIAN_POINT('',(218.968921878955,-142.,-11.4803194572359));
#1019=CARTESIAN_POINT('',(218.968921878955,-142.,18.4705276016066));
#1020=CARTESIAN_POINT('',(218.968921878955,-142.,10.9852638268803));
#1021=CARTESIAN_POINT('',(218.968921878955,-146.,-11.4803194572359));
#1022=CARTESIAN_POINT('',(218.968921878955,-142.,-11.4803194572359));
#1023=CARTESIAN_POINT('',(218.968921878955,-146.,18.4705276016066));
#1024=CARTESIAN_POINT('',(218.968921878955,-146.,18.4705276016066));
#1025=CARTESIAN_POINT('',(218.968921878955,-142.,18.4705276016066));
#1026=CARTESIAN_POINT('Origin',(215.016665314857,-142.,18.4705276016066));
#1027=CARTESIAN_POINT('',(215.016665314857,-142.,18.4705276016066));
#1028=CARTESIAN_POINT('',(188.758333868148,-142.,18.4705276016066));
#1029=CARTESIAN_POINT('',(215.016665314857,-146.,18.4705276016066));
#1030=CARTESIAN_POINT('',(150.199875821837,-146.,18.4705276016066));
#1031=CARTESIAN_POINT('',(215.016665314857,-142.,18.4705276016066));
#1032=CARTESIAN_POINT('Origin',(150.199875821837,-142.,18.4705276016066));
#1033=CARTESIAN_POINT('',(210.088009978979,-142.,18.4705276016066));
#1034=CARTESIAN_POINT('',(156.349939121638,-142.,18.4705276016066));
#1035=CARTESIAN_POINT('',(210.088009978979,-146.,18.4705276016066));
#1036=CARTESIAN_POINT('',(210.088009978979,-142.,18.4705276016066));
#1037=CARTESIAN_POINT('',(150.199875821837,-146.,18.4705276016066));
#1038=CARTESIAN_POINT('Origin',(184.599939542596,-146.,3.49179506774141));
#1039=CARTESIAN_POINT('',(210.088009978979,-146.,18.4972203676751));
#1040=CARTESIAN_POINT('',(210.088009978979,-146.,-11.4803194572359));
#1041=CARTESIAN_POINT('',(215.016665314857,-146.,18.4972203676751));
#1042=CARTESIAN_POINT('',(210.088009978979,-146.,18.4972203676751));
#1043=CARTESIAN_POINT('',(215.016665314857,-146.,18.4972203676751));
#1044=CARTESIAN_POINT('',(218.968921878955,-146.,-11.4803194572359));
#1045=CARTESIAN_POINT('Origin',(162.500002421439,-142.,3.50000005215406));
#1046=CARTESIAN_POINT('',(102.000001519918,-142.,-23.0000003427267));
#1047=CARTESIAN_POINT('',(223.000003322959,-142.,-23.0000003427267));
#1048=CARTESIAN_POINT('',(223.000003322959,-142.,-23.0000003427267));
#1049=CARTESIAN_POINT('',(223.000003322959,-142.,30.0000004470348));
#1050=CARTESIAN_POINT('',(223.000003322959,-142.,30.0000004470348));
#1051=CARTESIAN_POINT('',(102.000001519918,-142.,30.0000004470348));
#1052=CARTESIAN_POINT('',(102.000001519918,-142.,30.0000004470348));
#1053=CARTESIAN_POINT('',(102.000001519918,-142.,-23.0000003427267));
#1054=CARTESIAN_POINT('',(210.088009978979,-142.,-11.4803194572359));
#1055=CARTESIAN_POINT('',(190.734462150197,-142.,-11.4803194572359));
#1056=CARTESIAN_POINT('',(210.088009978979,-142.,10.9986102099146));
#1057=CARTESIAN_POINT('',(130.000001937151,-142.,-17.0000002533197));
#1058=CARTESIAN_POINT('',(115.385409250086,-142.,-17.0000002533197));
#1059=CARTESIAN_POINT('',(130.000001937151,-142.,-17.0000002533197));
#1060=CARTESIAN_POINT('',(115.385409250086,-142.,-2.21832474967465));
#1061=CARTESIAN_POINT('',(115.385409250086,-142.,-17.0000002533197));
#1062=CARTESIAN_POINT('',(130.000001937151,-142.,-2.21832474967465));
#1063=CARTESIAN_POINT('',(115.385409250086,-142.,-2.21832474967465));
#1064=CARTESIAN_POINT('',(130.000001937151,-142.,-2.21832474967465));
#1065=CARTESIAN_POINT('',(149.157941483993,-142.,-16.8345893969446));
#1066=CARTESIAN_POINT('',(134.752694618151,-142.,-16.8345893969446));
#1067=CARTESIAN_POINT('',(149.157941483993,-142.,-16.8345893969446));
#1068=CARTESIAN_POINT('',(134.752694618151,-142.,-2.21832474967465));
#1069=CARTESIAN_POINT('',(134.752694618151,-142.,-16.8345893969446));
#1070=CARTESIAN_POINT('',(149.157941483993,-142.,-2.21832474967465));
#1071=CARTESIAN_POINT('',(134.752694618151,-142.,-2.21832474967465));
#1072=CARTESIAN_POINT('',(149.157941483993,-142.,-2.21832474967465));
#1073=CARTESIAN_POINT('',(149.248018045725,-142.,2.26789779485833));
#1074=CARTESIAN_POINT('',(134.596226612496,-142.,2.26789779485833));
#1075=CARTESIAN_POINT('',(149.248018045725,-142.,2.26789779485833));
#1076=CARTESIAN_POINT('',(134.596226612496,-142.,17.0620222660382));
#1077=CARTESIAN_POINT('',(134.596226612496,-142.,2.26789779485833));
#1078=CARTESIAN_POINT('',(149.248018045725,-142.,17.0620222660382));
#1079=CARTESIAN_POINT('',(134.596226612496,-142.,17.0620222660382));
#1080=CARTESIAN_POINT('',(149.248018045725,-142.,17.0620222660382));
#1081=CARTESIAN_POINT('',(130.109094185137,-142.,2.339789527842));
#1082=CARTESIAN_POINT('',(115.386861446941,-142.,2.339789527842));
#1083=CARTESIAN_POINT('',(130.109094185137,-142.,2.339789527842));
#1084=CARTESIAN_POINT('',(115.386861446941,-142.,17.0620222660382));
#1085=CARTESIAN_POINT('',(115.386861446941,-142.,2.339789527842));
#1086=CARTESIAN_POINT('',(130.109094185137,-142.,17.0620222660382));
#1087=CARTESIAN_POINT('',(115.386861446941,-142.,17.0620222660382));
#1088=CARTESIAN_POINT('',(130.109094185137,-142.,17.0620222660382));
#1089=CARTESIAN_POINT('Origin',(162.500002421439,-142.,3.50000005215406));
#1090=CARTESIAN_POINT('',(215.016665314857,-142.,-11.4803194572359));
#1091=CARTESIAN_POINT('',(190.734462150197,-142.,-11.4803194572359));
#1092=CARTESIAN_POINT('',(215.016665314857,-142.,-3.99015970254092));
#1093=CARTESIAN_POINT('Origin',(215.016665314857,-125.,18.4972203676751));
#1094=CARTESIAN_POINT('',(210.088009978979,-140.,18.4972203676751));
#1095=CARTESIAN_POINT('',(210.088009978979,-142.,18.4972203676751));
#1096=CARTESIAN_POINT('',(215.016665314857,-140.,18.4972203676751));
#1097=CARTESIAN_POINT('',(188.758333868148,-140.,18.4972203676751));
#1098=CARTESIAN_POINT('',(215.016665314857,-142.,18.4972203676751));
#1099=CARTESIAN_POINT('Origin',(215.016665314857,-125.,-11.4803194572359));
#1100=CARTESIAN_POINT('',(215.016665314857,-140.,-11.4803194572359));
#1101=CARTESIAN_POINT('',(215.016665314857,-140.,-3.99015970254092));
#1102=CARTESIAN_POINT('',(215.016665314857,-125.,-11.4803194572359));
#1103=CARTESIAN_POINT('Origin',(210.088009978979,-125.,-11.4803194572359));
#1104=CARTESIAN_POINT('',(210.088009978979,-140.,-11.4803194572359));
#1105=CARTESIAN_POINT('',(186.294006200209,-140.,-11.4803194572359));
#1106=CARTESIAN_POINT('',(210.088009978979,-125.,-11.4803194572359));
#1107=CARTESIAN_POINT('Origin',(210.088009978979,-125.,18.4972203676751));
#1108=CARTESIAN_POINT('',(210.088009978979,-140.,10.9986102099146));
#1109=CARTESIAN_POINT('Origin',(130.109094185137,-140.,17.0620222660382));
#1110=CARTESIAN_POINT('',(130.109094185137,-140.,17.0620222660382));
#1111=CARTESIAN_POINT('',(130.109094185137,-140.,2.339789527842));
#1112=CARTESIAN_POINT('',(130.109094185137,-140.,17.0620222660382));
#1113=CARTESIAN_POINT('',(130.109094185137,-140.,2.339789527842));
#1114=CARTESIAN_POINT('',(130.109094185137,-140.,17.0620222660382));
#1115=CARTESIAN_POINT('Origin',(115.386861446941,-140.,17.0620222660382));
#1116=CARTESIAN_POINT('',(115.386861446941,-140.,17.0620222660382));
#1117=CARTESIAN_POINT('',(115.386861446941,-140.,17.0620222660382));
#1118=CARTESIAN_POINT('',(115.386861446941,-140.,17.0620222660382));
#1119=CARTESIAN_POINT('Origin',(115.386861446941,-140.,2.339789527842));
#1120=CARTESIAN_POINT('',(115.386861446941,-140.,2.339789527842));
#1121=CARTESIAN_POINT('',(115.386861446941,-140.,2.339789527842));
#1122=CARTESIAN_POINT('',(115.386861446941,-140.,2.339789527842));
#1123=CARTESIAN_POINT('Origin',(130.109094185137,-140.,2.339789527842));
#1124=CARTESIAN_POINT('',(130.109094185137,-140.,2.339789527842));
#1125=CARTESIAN_POINT('Origin',(149.248018045725,-140.,17.0620222660382));
#1126=CARTESIAN_POINT('',(149.248018045725,-140.,17.0620222660382));
#1127=CARTESIAN_POINT('',(149.248018045725,-140.,2.26789779485833));
#1128=CARTESIAN_POINT('',(149.248018045725,-140.,17.0620222660382));
#1129=CARTESIAN_POINT('',(149.248018045725,-140.,2.26789779485833));
#1130=CARTESIAN_POINT('',(149.248018045725,-140.,17.0620222660382));
#1131=CARTESIAN_POINT('Origin',(134.596226612496,-140.,17.0620222660382));
#1132=CARTESIAN_POINT('',(134.596226612496,-140.,17.0620222660382));
#1133=CARTESIAN_POINT('',(134.596226612496,-140.,17.0620222660382));
#1134=CARTESIAN_POINT('',(134.596226612496,-140.,17.0620222660382));
#1135=CARTESIAN_POINT('Origin',(134.596226612496,-140.,2.26789779485833));
#1136=CARTESIAN_POINT('',(134.596226612496,-140.,2.26789779485833));
#1137=CARTESIAN_POINT('',(134.596226612496,-140.,2.26789779485833));
#1138=CARTESIAN_POINT('',(134.596226612496,-140.,2.26789779485833));
#1139=CARTESIAN_POINT('Origin',(149.248018045725,-140.,2.26789779485833));
#1140=CARTESIAN_POINT('',(149.248018045725,-140.,2.26789779485833));
#1141=CARTESIAN_POINT('Origin',(149.157941483993,-140.,-2.21832474967465));
#1142=CARTESIAN_POINT('',(149.157941483993,-140.,-2.21832474967465));
#1143=CARTESIAN_POINT('',(149.157941483993,-140.,-16.8345893969446));
#1144=CARTESIAN_POINT('',(149.157941483993,-140.,-2.21832474967465));
#1145=CARTESIAN_POINT('',(149.157941483993,-140.,-16.8345893969446));
#1146=CARTESIAN_POINT('',(149.157941483993,-140.,-2.21832474967465));
#1147=CARTESIAN_POINT('Origin',(134.752694618151,-140.,-2.21832474967465));
#1148=CARTESIAN_POINT('',(134.752694618151,-140.,-2.21832474967465));
#1149=CARTESIAN_POINT('',(134.752694618151,-140.,-2.21832474967465));
#1150=CARTESIAN_POINT('',(134.752694618151,-140.,-2.21832474967465));
#1151=CARTESIAN_POINT('Origin',(134.752694618151,-140.,-16.8345893969446));
#1152=CARTESIAN_POINT('',(134.752694618151,-140.,-16.8345893969446));
#1153=CARTESIAN_POINT('',(134.752694618151,-140.,-16.8345893969446));
#1154=CARTESIAN_POINT('',(134.752694618151,-140.,-16.8345893969446));
#1155=CARTESIAN_POINT('Origin',(149.157941483993,-140.,-16.8345893969446));
#1156=CARTESIAN_POINT('',(149.157941483993,-140.,-16.8345893969446));
#1157=CARTESIAN_POINT('Origin',(130.000001937151,-140.,-2.21832474967465));
#1158=CARTESIAN_POINT('',(130.000001937151,-140.,-2.21832474967465));
#1159=CARTESIAN_POINT('',(130.000001937151,-140.,-17.0000002533197));
#1160=CARTESIAN_POINT('',(130.000001937151,-140.,-2.21832474967465));
#1161=CARTESIAN_POINT('',(130.000001937151,-140.,-17.0000002533197));
#1162=CARTESIAN_POINT('',(130.000001937151,-140.,-2.21832474967465));
#1163=CARTESIAN_POINT('Origin',(115.385409250086,-140.,-2.21832474967465));
#1164=CARTESIAN_POINT('',(115.385409250086,-140.,-2.21832474967465));
#1165=CARTESIAN_POINT('',(115.385409250086,-140.,-2.21832474967465));
#1166=CARTESIAN_POINT('',(115.385409250086,-140.,-2.21832474967465));
#1167=CARTESIAN_POINT('Origin',(115.385409250086,-140.,-17.0000002533197));
#1168=CARTESIAN_POINT('',(115.385409250086,-140.,-17.0000002533197));
#1169=CARTESIAN_POINT('',(115.385409250086,-140.,-17.0000002533197));
#1170=CARTESIAN_POINT('',(115.385409250086,-140.,-17.0000002533197));
#1171=CARTESIAN_POINT('Origin',(130.000001937151,-140.,-17.0000002533197));
#1172=CARTESIAN_POINT('',(130.000001937151,-140.,-17.0000002533197));
#1173=CARTESIAN_POINT('Origin',(102.000001519918,-140.,30.0000004470348));
#1174=CARTESIAN_POINT('',(102.000001519918,-140.,-23.0000003427267));
#1175=CARTESIAN_POINT('',(102.000001519918,-140.,30.0000004470348));
#1176=CARTESIAN_POINT('',(102.000001519918,-140.,-23.0000003427267));
#1177=CARTESIAN_POINT('',(102.000001519918,-140.,-23.0000003427267));
#1178=CARTESIAN_POINT('',(102.000001519918,-140.,30.0000004470348));
#1179=CARTESIAN_POINT('Origin',(223.000003322959,-140.,30.0000004470348));
#1180=CARTESIAN_POINT('',(223.000003322959,-140.,30.0000004470348));
#1181=CARTESIAN_POINT('',(102.000001519918,-140.,30.0000004470348));
#1182=CARTESIAN_POINT('',(223.000003322959,-140.,30.0000004470348));
#1183=CARTESIAN_POINT('Origin',(223.000003322959,-140.,-23.0000003427267));
#1184=CARTESIAN_POINT('',(223.000003322959,-140.,-23.0000003427267));
#1185=CARTESIAN_POINT('',(223.000003322959,-140.,30.0000004470348));
#1186=CARTESIAN_POINT('',(223.000003322959,-140.,-23.0000003427267));
#1187=CARTESIAN_POINT('Origin',(102.000001519918,-140.,-23.0000003427267));
#1188=CARTESIAN_POINT('',(223.000003322959,-140.,-23.0000003427267));
#1189=CARTESIAN_POINT('Origin',(162.500002421439,-140.,3.50000005215406));
#1190=UNCERTAINTY_MEASURE_WITH_UNIT(LENGTH_MEASURE(0.01),#1194,
'DISTANCE_ACCURACY_VALUE',
'Maximum model space distance between geometric entities at asserted c
onnectivities');
#1191=UNCERTAINTY_MEASURE_WITH_UNIT(LENGTH_MEASURE(0.01),#1194,
'DISTANCE_ACCURACY_VALUE',
'Maximum model space distance between geometric entities at asserted c
onnectivities');
#1192=(
GEOMETRIC_REPRESENTATION_CONTEXT(3)
GLOBAL_UNCERTAINTY_ASSIGNED_CONTEXT((#1190))
GLOBAL_UNIT_ASSIGNED_CONTEXT((#1194,#1196,#1197))
REPRESENTATION_CONTEXT('','3D')
);
#1193=(
GEOMETRIC_REPRESENTATION_CONTEXT(3)
GLOBAL_UNCERTAINTY_ASSIGNED_CONTEXT((#1191))
GLOBAL_UNIT_ASSIGNED_CONTEXT((#1194,#1196,#1197))
REPRESENTATION_CONTEXT('','3D')
);
#1194=(
LENGTH_UNIT()
NAMED_UNIT(*)
SI_UNIT(.MILLI.,.METRE.)
);
#1195=(
LENGTH_UNIT()
NAMED_UNIT(*)
SI_UNIT($,.METRE.)
);
#1196=(
NAMED_UNIT(*)
PLANE_ANGLE_UNIT()
SI_UNIT($,.RADIAN.)
);
#1197=(
NAMED_UNIT(*)
SI_UNIT($,.STERADIAN.)
SOLID_ANGLE_UNIT()
);
#1198=SHAPE_DEFINITION_REPRESENTATION(#1199,#1200);
#1199=PRODUCT_DEFINITION_SHAPE('',$,#1202);
#1200=SHAPE_REPRESENTATION('',(#770),#1192);
#1201=PRODUCT_DEFINITION_CONTEXT('part definition',#1206,'design');
#1202=PRODUCT_DEFINITION('2026-08-12-15-41-15-330','AAA battery holder',
#1203,#1201);
#1203=PRODUCT_DEFINITION_FORMATION('',$,#1208);
#1204=PRODUCT_RELATED_PRODUCT_CATEGORY('AAA battery holder',
'AAA battery holder',(#1208));
#1205=APPLICATION_PROTOCOL_DEFINITION('international standard',
'automotive_design',2009,#1206);
#1206=APPLICATION_CONTEXT(
'Core Data for Automotive Mechanical Design Process');
#1207=PRODUCT_CONTEXT('part definition',#1206,'mechanical');
#1208=PRODUCT('2026-08-12-15-41-15-330','AAA battery holder',$,(#1207));
#1209=PRESENTATION_STYLE_ASSIGNMENT((#1210));
#1210=SURFACE_STYLE_USAGE(.BOTH.,#1211);
#1211=SURFACE_SIDE_STYLE('',(#1212));
#1212=SURFACE_STYLE_FILL_AREA(#1213);
#1213=FILL_AREA_STYLE('Steel - Satin',(#1214));
#1214=FILL_AREA_STYLE_COLOUR('Steel - Satin',#1215);
#1215=COLOUR_RGB('Steel - Satin',0.627450980392157,0.627450980392157,0.627450980392157);
ENDSEC;
END-ISO-10303-21;
