ISO-10303-21;
HEADER;
/* Generated by software containing ST-Developer
 * from STEP Tools, Inc. (www.steptools.com) 
 */

FILE_DESCRIPTION(
/* description */ (''),
/* implementation_level */ '2;1');

FILE_NAME(
/* name */ 'Full case.step',
/* time_stamp */ '2026-09-09T18:56:36-04:00',
/* author */ (''),
/* organization */ (''),
/* preprocessor_version */ 'ST-DEVELOPER v20.2',
/* originating_system */ 'Autodesk Translation Framework v15.15.0.0',
/* authorisation */ '');

FILE_SCHEMA (('AUTOMOTIVE_DESIGN { 1 0 10303 214 3 1 1 }'));
ENDSEC;

DATA;
#10=MECHANICAL_DESIGN_GEOMETRIC_PRESENTATION_REPRESENTATION('',(#13,#14),
#1714);
#11=SHAPE_REPRESENTATION_RELATIONSHIP('SRR','None',#1721,#12);
#12=ADVANCED_BREP_SHAPE_REPRESENTATION('',(#15,#16),#1713);
#13=STYLED_ITEM('',(#1730),#15);
#14=STYLED_ITEM('',(#1730),#16);
#15=MANIFOLD_SOLID_BREP('Body685',#1071);
#16=MANIFOLD_SOLID_BREP('Body686',#1072);
#17=CYLINDRICAL_SURFACE('',#1102,2.10000000000001);
#18=CYLINDRICAL_SURFACE('',#1116,1.99999999999999);
#19=CYLINDRICAL_SURFACE('',#1119,2.10000000000001);
#20=CYLINDRICAL_SURFACE('',#1122,2.10000000000001);
#21=FACE_BOUND('',#111,.T.);
#22=FACE_BOUND('',#112,.T.);
#23=FACE_BOUND('',#113,.T.);
#24=FACE_BOUND('',#114,.T.);
#25=FACE_BOUND('',#115,.T.);
#26=FACE_BOUND('',#125,.T.);
#27=FACE_BOUND('',#140,.T.);
#28=FACE_BOUND('',#141,.T.);
#29=FACE_BOUND('',#168,.T.);
#30=FACE_BOUND('',#169,.T.);
#31=FACE_BOUND('',#170,.T.);
#32=FACE_BOUND('',#171,.T.);
#33=FACE_BOUND('',#172,.T.);
#34=FACE_BOUND('',#174,.T.);
#35=FACE_BOUND('',#175,.T.);
#36=FACE_BOUND('',#176,.T.);
#37=FACE_BOUND('',#177,.T.);
#38=FACE_BOUND('',#178,.T.);
#39=CIRCLE('',#1092,1.99999999999999);
#40=CIRCLE('',#1093,2.10000000000001);
#41=CIRCLE('',#1094,2.10000000000001);
#42=CIRCLE('',#1095,2.10000000000001);
#43=CIRCLE('',#1098,2.10000000000001);
#44=CIRCLE('',#1100,2.10000000000001);
#45=CIRCLE('',#1101,2.10000000000001);
#46=CIRCLE('',#1103,2.10000000000001);
#47=CIRCLE('',#1117,1.99999999999999);
#48=CIRCLE('',#1120,2.10000000000001);
#49=FACE_OUTER_BOUND('',#105,.T.);
#50=FACE_OUTER_BOUND('',#106,.T.);
#51=FACE_OUTER_BOUND('',#107,.T.);
#52=FACE_OUTER_BOUND('',#108,.T.);
#53=FACE_OUTER_BOUND('',#109,.T.);
#54=FACE_OUTER_BOUND('',#110,.T.);
#55=FACE_OUTER_BOUND('',#116,.T.);
#56=FACE_OUTER_BOUND('',#117,.T.);
#57=FACE_OUTER_BOUND('',#118,.T.);
#58=FACE_OUTER_BOUND('',#119,.T.);
#59=FACE_OUTER_BOUND('',#120,.T.);
#60=FACE_OUTER_BOUND('',#121,.T.);
#61=FACE_OUTER_BOUND('',#122,.T.);
#62=FACE_OUTER_BOUND('',#123,.T.);
#63=FACE_OUTER_BOUND('',#124,.T.);
#64=FACE_OUTER_BOUND('',#126,.T.);
#65=FACE_OUTER_BOUND('',#127,.T.);
#66=FACE_OUTER_BOUND('',#128,.T.);
#67=FACE_OUTER_BOUND('',#129,.T.);
#68=FACE_OUTER_BOUND('',#130,.T.);
#69=FACE_OUTER_BOUND('',#131,.T.);
#70=FACE_OUTER_BOUND('',#132,.T.);
#71=FACE_OUTER_BOUND('',#133,.T.);
#72=FACE_OUTER_BOUND('',#134,.T.);
#73=FACE_OUTER_BOUND('',#135,.T.);
#74=FACE_OUTER_BOUND('',#136,.T.);
#75=FACE_OUTER_BOUND('',#137,.T.);
#76=FACE_OUTER_BOUND('',#138,.T.);
#77=FACE_OUTER_BOUND('',#139,.T.);
#78=FACE_OUTER_BOUND('',#142,.T.);
#79=FACE_OUTER_BOUND('',#143,.T.);
#80=FACE_OUTER_BOUND('',#144,.T.);
#81=FACE_OUTER_BOUND('',#145,.T.);
#82=FACE_OUTER_BOUND('',#146,.T.);
#83=FACE_OUTER_BOUND('',#147,.T.);
#84=FACE_OUTER_BOUND('',#148,.T.);
#85=FACE_OUTER_BOUND('',#149,.T.);
#86=FACE_OUTER_BOUND('',#150,.T.);
#87=FACE_OUTER_BOUND('',#151,.T.);
#88=FACE_OUTER_BOUND('',#152,.T.);
#89=FACE_OUTER_BOUND('',#153,.T.);
#90=FACE_OUTER_BOUND('',#154,.T.);
#91=FACE_OUTER_BOUND('',#155,.T.);
#92=FACE_OUTER_BOUND('',#156,.T.);
#93=FACE_OUTER_BOUND('',#157,.T.);
#94=FACE_OUTER_BOUND('',#158,.T.);
#95=FACE_OUTER_BOUND('',#159,.T.);
#96=FACE_OUTER_BOUND('',#160,.T.);
#97=FACE_OUTER_BOUND('',#161,.T.);
#98=FACE_OUTER_BOUND('',#162,.T.);
#99=FACE_OUTER_BOUND('',#163,.T.);
#100=FACE_OUTER_BOUND('',#164,.T.);
#101=FACE_OUTER_BOUND('',#165,.T.);
#102=FACE_OUTER_BOUND('',#166,.T.);
#103=FACE_OUTER_BOUND('',#167,.T.);
#104=FACE_OUTER_BOUND('',#173,.T.);
#105=EDGE_LOOP('',(#679,#680,#681,#682));
#106=EDGE_LOOP('',(#683,#684,#685,#686));
#107=EDGE_LOOP('',(#687,#688,#689,#690,#691));
#108=EDGE_LOOP('',(#692,#693,#694,#695));
#109=EDGE_LOOP('',(#696,#697,#698,#699,#700));
#110=EDGE_LOOP('',(#701,#702,#703,#704,#705,#706,#707,#708));
#111=EDGE_LOOP('',(#709));
#112=EDGE_LOOP('',(#710));
#113=EDGE_LOOP('',(#711));
#114=EDGE_LOOP('',(#712));
#115=EDGE_LOOP('',(#713,#714,#715,#716));
#116=EDGE_LOOP('',(#717,#718,#719,#720));
#117=EDGE_LOOP('',(#721));
#118=EDGE_LOOP('',(#722,#723,#724));
#119=EDGE_LOOP('',(#725,#726,#727,#728,#729,#730,#731,#732));
#120=EDGE_LOOP('',(#733,#734,#735,#736));
#121=EDGE_LOOP('',(#737,#738,#739,#740));
#122=EDGE_LOOP('',(#741,#742,#743,#744,#745,#746));
#123=EDGE_LOOP('',(#747,#748,#749,#750));
#124=EDGE_LOOP('',(#751,#752,#753,#754));
#125=EDGE_LOOP('',(#755,#756,#757,#758));
#126=EDGE_LOOP('',(#759,#760,#761,#762));
#127=EDGE_LOOP('',(#763,#764,#765,#766));
#128=EDGE_LOOP('',(#767,#768,#769,#770));
#129=EDGE_LOOP('',(#771,#772,#773,#774));
#130=EDGE_LOOP('',(#775,#776,#777,#778));
#131=EDGE_LOOP('',(#779,#780,#781,#782));
#132=EDGE_LOOP('',(#783,#784,#785,#786));
#133=EDGE_LOOP('',(#787,#788,#789,#790));
#134=EDGE_LOOP('',(#791));
#135=EDGE_LOOP('',(#792,#793,#794,#795));
#136=EDGE_LOOP('',(#796));
#137=EDGE_LOOP('',(#797,#798,#799,#800));
#138=EDGE_LOOP('',(#801,#802));
#139=EDGE_LOOP('',(#803,#804,#805,#806));
#140=EDGE_LOOP('',(#807,#808,#809,#810));
#141=EDGE_LOOP('',(#811,#812,#813,#814));
#142=EDGE_LOOP('',(#815,#816,#817,#818));
#143=EDGE_LOOP('',(#819,#820,#821,#822));
#144=EDGE_LOOP('',(#823,#824,#825,#826));
#145=EDGE_LOOP('',(#827,#828,#829,#830));
#146=EDGE_LOOP('',(#831,#832,#833,#834));
#147=EDGE_LOOP('',(#835,#836,#837,#838));
#148=EDGE_LOOP('',(#839,#840,#841,#842));
#149=EDGE_LOOP('',(#843,#844,#845,#846));
#150=EDGE_LOOP('',(#847,#848,#849,#850));
#151=EDGE_LOOP('',(#851,#852,#853,#854));
#152=EDGE_LOOP('',(#855,#856,#857,#858));
#153=EDGE_LOOP('',(#859,#860,#861,#862));
#154=EDGE_LOOP('',(#863,#864,#865,#866));
#155=EDGE_LOOP('',(#867,#868,#869,#870));
#156=EDGE_LOOP('',(#871,#872,#873,#874));
#157=EDGE_LOOP('',(#875,#876,#877,#878));
#158=EDGE_LOOP('',(#879,#880,#881,#882));
#159=EDGE_LOOP('',(#883,#884,#885,#886));
#160=EDGE_LOOP('',(#887,#888,#889,#890));
#161=EDGE_LOOP('',(#891,#892,#893,#894));
#162=EDGE_LOOP('',(#895,#896,#897,#898));
#163=EDGE_LOOP('',(#899,#900,#901,#902));
#164=EDGE_LOOP('',(#903,#904,#905,#906));
#165=EDGE_LOOP('',(#907,#908,#909,#910));
#166=EDGE_LOOP('',(#911,#912,#913,#914));
#167=EDGE_LOOP('',(#915,#916,#917,#918));
#168=EDGE_LOOP('',(#919,#920,#921,#922));
#169=EDGE_LOOP('',(#923,#924,#925,#926));
#170=EDGE_LOOP('',(#927,#928,#929,#930));
#171=EDGE_LOOP('',(#931,#932,#933,#934));
#172=EDGE_LOOP('',(#935,#936,#937,#938));
#173=EDGE_LOOP('',(#939,#940,#941,#942));
#174=EDGE_LOOP('',(#943,#944,#945,#946));
#175=EDGE_LOOP('',(#947,#948,#949,#950));
#176=EDGE_LOOP('',(#951,#952,#953,#954));
#177=EDGE_LOOP('',(#955,#956,#957,#958));
#178=EDGE_LOOP('',(#959,#960,#961,#962));
#179=LINE('',#1422,#311);
#180=LINE('',#1424,#312);
#181=LINE('',#1426,#313);
#182=LINE('',#1427,#314);
#183=LINE('',#1431,#315);
#184=LINE('',#1432,#316);
#185=LINE('',#1433,#317);
#186=LINE('',#1436,#318);
#187=LINE('',#1438,#319);
#188=LINE('',#1439,#320);
#189=LINE('',#1442,#321);
#190=LINE('',#1444,#322);
#191=LINE('',#1445,#323);
#192=LINE('',#1447,#324);
#193=LINE('',#1448,#325);
#194=LINE('',#1451,#326);
#195=LINE('',#1453,#327);
#196=LINE('',#1455,#328);
#197=LINE('',#1457,#329);
#198=LINE('',#1458,#330);
#199=LINE('',#1469,#331);
#200=LINE('',#1471,#332);
#201=LINE('',#1473,#333);
#202=LINE('',#1474,#334);
#203=LINE('',#1478,#335);
#204=LINE('',#1480,#336);
#205=LINE('',#1482,#337);
#206=LINE('',#1483,#338);
#207=LINE('',#1492,#339);
#208=LINE('',#1496,#340);
#209=LINE('',#1498,#341);
#210=LINE('',#1499,#342);
#211=LINE('',#1502,#343);
#212=LINE('',#1503,#344);
#213=LINE('',#1506,#345);
#214=LINE('',#1507,#346);
#215=LINE('',#1509,#347);
#216=LINE('',#1513,#348);
#217=LINE('',#1515,#349);
#218=LINE('',#1517,#350);
#219=LINE('',#1518,#351);
#220=LINE('',#1521,#352);
#221=LINE('',#1523,#353);
#222=LINE('',#1524,#354);
#223=LINE('',#1527,#355);
#224=LINE('',#1528,#356);
#225=LINE('',#1531,#357);
#226=LINE('',#1532,#358);
#227=LINE('',#1534,#359);
#228=LINE('',#1537,#360);
#229=LINE('',#1539,#361);
#230=LINE('',#1540,#362);
#231=LINE('',#1543,#363);
#232=LINE('',#1544,#364);
#233=LINE('',#1547,#365);
#234=LINE('',#1548,#366);
#235=LINE('',#1551,#367);
#236=LINE('',#1556,#368);
#237=LINE('',#1560,#369);
#238=LINE('',#1563,#370);
#239=LINE('',#1568,#371);
#240=LINE('',#1570,#372);
#241=LINE('',#1572,#373);
#242=LINE('',#1573,#374);
#243=LINE('',#1576,#375);
#244=LINE('',#1578,#376);
#245=LINE('',#1579,#377);
#246=LINE('',#1582,#378);
#247=LINE('',#1584,#379);
#248=LINE('',#1585,#380);
#249=LINE('',#1587,#381);
#250=LINE('',#1588,#382);
#251=LINE('',#1592,#383);
#252=LINE('',#1594,#384);
#253=LINE('',#1596,#385);
#254=LINE('',#1597,#386);
#255=LINE('',#1600,#387);
#256=LINE('',#1602,#388);
#257=LINE('',#1603,#389);
#258=LINE('',#1606,#390);
#259=LINE('',#1608,#391);
#260=LINE('',#1609,#392);
#261=LINE('',#1611,#393);
#262=LINE('',#1612,#394);
#263=LINE('',#1616,#395);
#264=LINE('',#1618,#396);
#265=LINE('',#1620,#397);
#266=LINE('',#1621,#398);
#267=LINE('',#1624,#399);
#268=LINE('',#1626,#400);
#269=LINE('',#1627,#401);
#270=LINE('',#1630,#402);
#271=LINE('',#1632,#403);
#272=LINE('',#1633,#404);
#273=LINE('',#1635,#405);
#274=LINE('',#1636,#406);
#275=LINE('',#1640,#407);
#276=LINE('',#1642,#408);
#277=LINE('',#1644,#409);
#278=LINE('',#1645,#410);
#279=LINE('',#1648,#411);
#280=LINE('',#1650,#412);
#281=LINE('',#1651,#413);
#282=LINE('',#1654,#414);
#283=LINE('',#1656,#415);
#284=LINE('',#1657,#416);
#285=LINE('',#1659,#417);
#286=LINE('',#1660,#418);
#287=LINE('',#1664,#419);
#288=LINE('',#1666,#420);
#289=LINE('',#1668,#421);
#290=LINE('',#1669,#422);
#291=LINE('',#1672,#423);
#292=LINE('',#1674,#424);
#293=LINE('',#1675,#425);
#294=LINE('',#1678,#426);
#295=LINE('',#1680,#427);
#296=LINE('',#1681,#428);
#297=LINE('',#1683,#429);
#298=LINE('',#1684,#430);
#299=LINE('',#1688,#431);
#300=LINE('',#1690,#432);
#301=LINE('',#1692,#433);
#302=LINE('',#1693,#434);
#303=LINE('',#1696,#435);
#304=LINE('',#1698,#436);
#305=LINE('',#1699,#437);
#306=LINE('',#1702,#438);
#307=LINE('',#1704,#439);
#308=LINE('',#1705,#440);
#309=LINE('',#1707,#441);
#310=LINE('',#1708,#442);
#311=VECTOR('',#1156,10.);
#312=VECTOR('',#1157,10.);
#313=VECTOR('',#1158,10.);
#314=VECTOR('',#1159,10.);
#315=VECTOR('',#1162,10.);
#316=VECTOR('',#1163,10.);
#317=VECTOR('',#1164,10.);
#318=VECTOR('',#1167,10.);
#319=VECTOR('',#1168,10.);
#320=VECTOR('',#1169,10.);
#321=VECTOR('',#1172,10.);
#322=VECTOR('',#1173,10.);
#323=VECTOR('',#1174,10.);
#324=VECTOR('',#1177,10.);
#325=VECTOR('',#1178,10.);
#326=VECTOR('',#1181,10.);
#327=VECTOR('',#1182,10.);
#328=VECTOR('',#1183,10.);
#329=VECTOR('',#1184,10.);
#330=VECTOR('',#1185,10.);
#331=VECTOR('',#1194,10.);
#332=VECTOR('',#1195,10.);
#333=VECTOR('',#1196,10.);
#334=VECTOR('',#1197,10.);
#335=VECTOR('',#1200,10.);
#336=VECTOR('',#1201,10.);
#337=VECTOR('',#1202,10.);
#338=VECTOR('',#1203,10.);
#339=VECTOR('',#1216,2.10000000000001);
#340=VECTOR('',#1221,10.);
#341=VECTOR('',#1222,10.);
#342=VECTOR('',#1223,10.);
#343=VECTOR('',#1226,10.);
#344=VECTOR('',#1227,10.);
#345=VECTOR('',#1230,10.);
#346=VECTOR('',#1231,10.);
#347=VECTOR('',#1234,10.);
#348=VECTOR('',#1237,10.);
#349=VECTOR('',#1238,10.);
#350=VECTOR('',#1239,10.);
#351=VECTOR('',#1240,10.);
#352=VECTOR('',#1243,10.);
#353=VECTOR('',#1244,10.);
#354=VECTOR('',#1245,10.);
#355=VECTOR('',#1248,10.);
#356=VECTOR('',#1249,10.);
#357=VECTOR('',#1252,10.);
#358=VECTOR('',#1253,10.);
#359=VECTOR('',#1256,10.);
#360=VECTOR('',#1259,10.);
#361=VECTOR('',#1260,10.);
#362=VECTOR('',#1261,10.);
#363=VECTOR('',#1264,10.);
#364=VECTOR('',#1265,10.);
#365=VECTOR('',#1268,10.);
#366=VECTOR('',#1269,10.);
#367=VECTOR('',#1272,1.99999999999999);
#368=VECTOR('',#1279,2.10000000000001);
#369=VECTOR('',#1286,2.10000000000001);
#370=VECTOR('',#1291,10.);
#371=VECTOR('',#1296,10.);
#372=VECTOR('',#1297,10.);
#373=VECTOR('',#1298,10.);
#374=VECTOR('',#1299,10.);
#375=VECTOR('',#1302,10.);
#376=VECTOR('',#1303,10.);
#377=VECTOR('',#1304,10.);
#378=VECTOR('',#1307,10.);
#379=VECTOR('',#1308,10.);
#380=VECTOR('',#1309,10.);
#381=VECTOR('',#1312,10.);
#382=VECTOR('',#1313,10.);
#383=VECTOR('',#1316,10.);
#384=VECTOR('',#1317,10.);
#385=VECTOR('',#1318,10.);
#386=VECTOR('',#1319,10.);
#387=VECTOR('',#1322,10.);
#388=VECTOR('',#1323,10.);
#389=VECTOR('',#1324,10.);
#390=VECTOR('',#1327,10.);
#391=VECTOR('',#1328,10.);
#392=VECTOR('',#1329,10.);
#393=VECTOR('',#1332,10.);
#394=VECTOR('',#1333,10.);
#395=VECTOR('',#1336,10.);
#396=VECTOR('',#1337,10.);
#397=VECTOR('',#1338,10.);
#398=VECTOR('',#1339,10.);
#399=VECTOR('',#1342,10.);
#400=VECTOR('',#1343,10.);
#401=VECTOR('',#1344,10.);
#402=VECTOR('',#1347,10.);
#403=VECTOR('',#1348,10.);
#404=VECTOR('',#1349,10.);
#405=VECTOR('',#1352,10.);
#406=VECTOR('',#1353,10.);
#407=VECTOR('',#1356,10.);
#408=VECTOR('',#1357,10.);
#409=VECTOR('',#1358,10.);
#410=VECTOR('',#1359,10.);
#411=VECTOR('',#1362,10.);
#412=VECTOR('',#1363,10.);
#413=VECTOR('',#1364,10.);
#414=VECTOR('',#1367,10.);
#415=VECTOR('',#1368,10.);
#416=VECTOR('',#1369,10.);
#417=VECTOR('',#1372,10.);
#418=VECTOR('',#1373,10.);
#419=VECTOR('',#1376,10.);
#420=VECTOR('',#1377,10.);
#421=VECTOR('',#1378,10.);
#422=VECTOR('',#1379,10.);
#423=VECTOR('',#1382,10.);
#424=VECTOR('',#1383,10.);
#425=VECTOR('',#1384,10.);
#426=VECTOR('',#1387,10.);
#427=VECTOR('',#1388,10.);
#428=VECTOR('',#1389,10.);
#429=VECTOR('',#1392,10.);
#430=VECTOR('',#1393,10.);
#431=VECTOR('',#1396,10.);
#432=VECTOR('',#1397,10.);
#433=VECTOR('',#1398,10.);
#434=VECTOR('',#1399,10.);
#435=VECTOR('',#1402,10.);
#436=VECTOR('',#1403,10.);
#437=VECTOR('',#1404,10.);
#438=VECTOR('',#1407,10.);
#439=VECTOR('',#1408,10.);
#440=VECTOR('',#1409,10.);
#441=VECTOR('',#1412,10.);
#442=VECTOR('',#1413,10.);
#443=VERTEX_POINT('',#1420);
#444=VERTEX_POINT('',#1421);
#445=VERTEX_POINT('',#1423);
#446=VERTEX_POINT('',#1425);
#447=VERTEX_POINT('',#1429);
#448=VERTEX_POINT('',#1430);
#449=VERTEX_POINT('',#1435);
#450=VERTEX_POINT('',#1437);
#451=VERTEX_POINT('',#1441);
#452=VERTEX_POINT('',#1443);
#453=VERTEX_POINT('',#1450);
#454=VERTEX_POINT('',#1452);
#455=VERTEX_POINT('',#1454);
#456=VERTEX_POINT('',#1456);
#457=VERTEX_POINT('',#1459);
#458=VERTEX_POINT('',#1461);
#459=VERTEX_POINT('',#1463);
#460=VERTEX_POINT('',#1465);
#461=VERTEX_POINT('',#1467);
#462=VERTEX_POINT('',#1468);
#463=VERTEX_POINT('',#1470);
#464=VERTEX_POINT('',#1472);
#465=VERTEX_POINT('',#1476);
#466=VERTEX_POINT('',#1477);
#467=VERTEX_POINT('',#1479);
#468=VERTEX_POINT('',#1481);
#469=VERTEX_POINT('',#1485);
#470=VERTEX_POINT('',#1488);
#471=VERTEX_POINT('',#1495);
#472=VERTEX_POINT('',#1497);
#473=VERTEX_POINT('',#1501);
#474=VERTEX_POINT('',#1505);
#475=VERTEX_POINT('',#1511);
#476=VERTEX_POINT('',#1512);
#477=VERTEX_POINT('',#1514);
#478=VERTEX_POINT('',#1516);
#479=VERTEX_POINT('',#1520);
#480=VERTEX_POINT('',#1522);
#481=VERTEX_POINT('',#1526);
#482=VERTEX_POINT('',#1530);
#483=VERTEX_POINT('',#1536);
#484=VERTEX_POINT('',#1538);
#485=VERTEX_POINT('',#1542);
#486=VERTEX_POINT('',#1546);
#487=VERTEX_POINT('',#1550);
#488=VERTEX_POINT('',#1555);
#489=VERTEX_POINT('',#1566);
#490=VERTEX_POINT('',#1567);
#491=VERTEX_POINT('',#1569);
#492=VERTEX_POINT('',#1571);
#493=VERTEX_POINT('',#1575);
#494=VERTEX_POINT('',#1577);
#495=VERTEX_POINT('',#1581);
#496=VERTEX_POINT('',#1583);
#497=VERTEX_POINT('',#1590);
#498=VERTEX_POINT('',#1591);
#499=VERTEX_POINT('',#1593);
#500=VERTEX_POINT('',#1595);
#501=VERTEX_POINT('',#1599);
#502=VERTEX_POINT('',#1601);
#503=VERTEX_POINT('',#1605);
#504=VERTEX_POINT('',#1607);
#505=VERTEX_POINT('',#1614);
#506=VERTEX_POINT('',#1615);
#507=VERTEX_POINT('',#1617);
#508=VERTEX_POINT('',#1619);
#509=VERTEX_POINT('',#1623);
#510=VERTEX_POINT('',#1625);
#511=VERTEX_POINT('',#1629);
#512=VERTEX_POINT('',#1631);
#513=VERTEX_POINT('',#1638);
#514=VERTEX_POINT('',#1639);
#515=VERTEX_POINT('',#1641);
#516=VERTEX_POINT('',#1643);
#517=VERTEX_POINT('',#1647);
#518=VERTEX_POINT('',#1649);
#519=VERTEX_POINT('',#1653);
#520=VERTEX_POINT('',#1655);
#521=VERTEX_POINT('',#1662);
#522=VERTEX_POINT('',#1663);
#523=VERTEX_POINT('',#1665);
#524=VERTEX_POINT('',#1667);
#525=VERTEX_POINT('',#1671);
#526=VERTEX_POINT('',#1673);
#527=VERTEX_POINT('',#1677);
#528=VERTEX_POINT('',#1679);
#529=VERTEX_POINT('',#1686);
#530=VERTEX_POINT('',#1687);
#531=VERTEX_POINT('',#1689);
#532=VERTEX_POINT('',#1691);
#533=VERTEX_POINT('',#1695);
#534=VERTEX_POINT('',#1697);
#535=VERTEX_POINT('',#1701);
#536=VERTEX_POINT('',#1703);
#537=EDGE_CURVE('',#443,#444,#179,.T.);
#538=EDGE_CURVE('',#444,#445,#180,.T.);
#539=EDGE_CURVE('',#445,#446,#181,.T.);
#540=EDGE_CURVE('',#443,#446,#182,.T.);
#541=EDGE_CURVE('',#447,#448,#183,.T.);
#542=EDGE_CURVE('',#446,#447,#184,.T.);
#543=EDGE_CURVE('',#448,#445,#185,.T.);
#544=EDGE_CURVE('',#449,#447,#186,.T.);
#545=EDGE_CURVE('',#449,#450,#187,.T.);
#546=EDGE_CURVE('',#443,#450,#188,.T.);
#547=EDGE_CURVE('',#451,#449,#189,.T.);
#548=EDGE_CURVE('',#451,#452,#190,.T.);
#549=EDGE_CURVE('',#450,#452,#191,.T.);
#550=EDGE_CURVE('',#448,#451,#192,.T.);
#551=EDGE_CURVE('',#452,#444,#193,.T.);
#552=EDGE_CURVE('',#444,#453,#194,.T.);
#553=EDGE_CURVE('',#453,#454,#195,.T.);
#554=EDGE_CURVE('',#454,#455,#196,.T.);
#555=EDGE_CURVE('',#455,#456,#197,.T.);
#556=EDGE_CURVE('',#456,#443,#198,.T.);
#557=EDGE_CURVE('',#457,#457,#39,.T.);
#558=EDGE_CURVE('',#458,#458,#40,.T.);
#559=EDGE_CURVE('',#459,#459,#41,.T.);
#560=EDGE_CURVE('',#460,#460,#42,.T.);
#561=EDGE_CURVE('',#461,#462,#199,.T.);
#562=EDGE_CURVE('',#462,#463,#200,.T.);
#563=EDGE_CURVE('',#463,#464,#201,.T.);
#564=EDGE_CURVE('',#464,#461,#202,.T.);
#565=EDGE_CURVE('',#465,#466,#203,.T.);
#566=EDGE_CURVE('',#467,#465,#204,.T.);
#567=EDGE_CURVE('',#468,#467,#205,.T.);
#568=EDGE_CURVE('',#466,#468,#206,.T.);
#569=EDGE_CURVE('',#469,#469,#43,.T.);
#570=EDGE_CURVE('',#466,#470,#44,.T.);
#571=EDGE_CURVE('',#470,#468,#45,.T.);
#572=EDGE_CURVE('',#460,#470,#207,.T.);
#573=EDGE_CURVE('',#467,#465,#46,.T.);
#574=EDGE_CURVE('',#454,#471,#208,.T.);
#575=EDGE_CURVE('',#472,#471,#209,.T.);
#576=EDGE_CURVE('',#455,#472,#210,.T.);
#577=EDGE_CURVE('',#473,#472,#211,.T.);
#578=EDGE_CURVE('',#456,#473,#212,.T.);
#579=EDGE_CURVE('',#474,#473,#213,.T.);
#580=EDGE_CURVE('',#453,#474,#214,.T.);
#581=EDGE_CURVE('',#471,#474,#215,.T.);
#582=EDGE_CURVE('',#475,#476,#216,.T.);
#583=EDGE_CURVE('',#476,#477,#217,.T.);
#584=EDGE_CURVE('',#477,#478,#218,.T.);
#585=EDGE_CURVE('',#478,#475,#219,.T.);
#586=EDGE_CURVE('',#461,#479,#220,.T.);
#587=EDGE_CURVE('',#480,#479,#221,.T.);
#588=EDGE_CURVE('',#462,#480,#222,.T.);
#589=EDGE_CURVE('',#464,#481,#223,.T.);
#590=EDGE_CURVE('',#479,#481,#224,.T.);
#591=EDGE_CURVE('',#463,#482,#225,.T.);
#592=EDGE_CURVE('',#481,#482,#226,.T.);
#593=EDGE_CURVE('',#482,#480,#227,.T.);
#594=EDGE_CURVE('',#478,#483,#228,.T.);
#595=EDGE_CURVE('',#477,#484,#229,.T.);
#596=EDGE_CURVE('',#483,#484,#230,.T.);
#597=EDGE_CURVE('',#485,#476,#231,.T.);
#598=EDGE_CURVE('',#484,#485,#232,.T.);
#599=EDGE_CURVE('',#486,#475,#233,.T.);
#600=EDGE_CURVE('',#486,#483,#234,.T.);
#601=EDGE_CURVE('',#457,#487,#235,.T.);
#602=EDGE_CURVE('',#487,#487,#47,.T.);
#603=EDGE_CURVE('',#458,#488,#236,.T.);
#604=EDGE_CURVE('',#488,#488,#48,.T.);
#605=EDGE_CURVE('',#459,#469,#237,.T.);
#606=EDGE_CURVE('',#485,#486,#238,.T.);
#607=EDGE_CURVE('',#489,#490,#239,.T.);
#608=EDGE_CURVE('',#491,#489,#240,.T.);
#609=EDGE_CURVE('',#492,#491,#241,.T.);
#610=EDGE_CURVE('',#492,#490,#242,.T.);
#611=EDGE_CURVE('',#490,#493,#243,.T.);
#612=EDGE_CURVE('',#494,#492,#244,.T.);
#613=EDGE_CURVE('',#494,#493,#245,.T.);
#614=EDGE_CURVE('',#493,#495,#246,.T.);
#615=EDGE_CURVE('',#496,#494,#247,.T.);
#616=EDGE_CURVE('',#496,#495,#248,.T.);
#617=EDGE_CURVE('',#495,#489,#249,.T.);
#618=EDGE_CURVE('',#491,#496,#250,.T.);
#619=EDGE_CURVE('',#497,#498,#251,.T.);
#620=EDGE_CURVE('',#498,#499,#252,.T.);
#621=EDGE_CURVE('',#500,#499,#253,.T.);
#622=EDGE_CURVE('',#497,#500,#254,.T.);
#623=EDGE_CURVE('',#501,#497,#255,.T.);
#624=EDGE_CURVE('',#502,#500,#256,.T.);
#625=EDGE_CURVE('',#501,#502,#257,.T.);
#626=EDGE_CURVE('',#503,#501,#258,.T.);
#627=EDGE_CURVE('',#504,#502,#259,.T.);
#628=EDGE_CURVE('',#503,#504,#260,.T.);
#629=EDGE_CURVE('',#498,#503,#261,.T.);
#630=EDGE_CURVE('',#499,#504,#262,.T.);
#631=EDGE_CURVE('',#505,#506,#263,.T.);
#632=EDGE_CURVE('',#506,#507,#264,.T.);
#633=EDGE_CURVE('',#508,#507,#265,.T.);
#634=EDGE_CURVE('',#505,#508,#266,.T.);
#635=EDGE_CURVE('',#509,#505,#267,.T.);
#636=EDGE_CURVE('',#510,#508,#268,.T.);
#637=EDGE_CURVE('',#509,#510,#269,.T.);
#638=EDGE_CURVE('',#511,#509,#270,.T.);
#639=EDGE_CURVE('',#512,#510,#271,.T.);
#640=EDGE_CURVE('',#511,#512,#272,.T.);
#641=EDGE_CURVE('',#506,#511,#273,.T.);
#642=EDGE_CURVE('',#507,#512,#274,.T.);
#643=EDGE_CURVE('',#513,#514,#275,.T.);
#644=EDGE_CURVE('',#514,#515,#276,.T.);
#645=EDGE_CURVE('',#516,#515,#277,.T.);
#646=EDGE_CURVE('',#513,#516,#278,.T.);
#647=EDGE_CURVE('',#517,#513,#279,.T.);
#648=EDGE_CURVE('',#518,#516,#280,.T.);
#649=EDGE_CURVE('',#517,#518,#281,.T.);
#650=EDGE_CURVE('',#519,#517,#282,.T.);
#651=EDGE_CURVE('',#520,#518,#283,.T.);
#652=EDGE_CURVE('',#519,#520,#284,.T.);
#653=EDGE_CURVE('',#514,#519,#285,.T.);
#654=EDGE_CURVE('',#515,#520,#286,.T.);
#655=EDGE_CURVE('',#521,#522,#287,.T.);
#656=EDGE_CURVE('',#522,#523,#288,.T.);
#657=EDGE_CURVE('',#524,#523,#289,.T.);
#658=EDGE_CURVE('',#521,#524,#290,.T.);
#659=EDGE_CURVE('',#525,#521,#291,.T.);
#660=EDGE_CURVE('',#526,#524,#292,.T.);
#661=EDGE_CURVE('',#525,#526,#293,.T.);
#662=EDGE_CURVE('',#527,#525,#294,.T.);
#663=EDGE_CURVE('',#528,#526,#295,.T.);
#664=EDGE_CURVE('',#527,#528,#296,.T.);
#665=EDGE_CURVE('',#522,#527,#297,.T.);
#666=EDGE_CURVE('',#523,#528,#298,.T.);
#667=EDGE_CURVE('',#529,#530,#299,.T.);
#668=EDGE_CURVE('',#529,#531,#300,.T.);
#669=EDGE_CURVE('',#532,#531,#301,.T.);
#670=EDGE_CURVE('',#530,#532,#302,.T.);
#671=EDGE_CURVE('',#530,#533,#303,.T.);
#672=EDGE_CURVE('',#534,#532,#304,.T.);
#673=EDGE_CURVE('',#533,#534,#305,.T.);
#674=EDGE_CURVE('',#533,#535,#306,.T.);
#675=EDGE_CURVE('',#536,#534,#307,.T.);
#676=EDGE_CURVE('',#535,#536,#308,.T.);
#677=EDGE_CURVE('',#535,#529,#309,.T.);
#678=EDGE_CURVE('',#531,#536,#310,.T.);
#679=ORIENTED_EDGE('',*,*,#537,.T.);
#680=ORIENTED_EDGE('',*,*,#538,.T.);
#681=ORIENTED_EDGE('',*,*,#539,.T.);
#682=ORIENTED_EDGE('',*,*,#540,.F.);
#683=ORIENTED_EDGE('',*,*,#541,.F.);
#684=ORIENTED_EDGE('',*,*,#542,.F.);
#685=ORIENTED_EDGE('',*,*,#539,.F.);
#686=ORIENTED_EDGE('',*,*,#543,.F.);
#687=ORIENTED_EDGE('',*,*,#544,.F.);
#688=ORIENTED_EDGE('',*,*,#545,.T.);
#689=ORIENTED_EDGE('',*,*,#546,.F.);
#690=ORIENTED_EDGE('',*,*,#540,.T.);
#691=ORIENTED_EDGE('',*,*,#542,.T.);
#692=ORIENTED_EDGE('',*,*,#547,.F.);
#693=ORIENTED_EDGE('',*,*,#548,.T.);
#694=ORIENTED_EDGE('',*,*,#549,.F.);
#695=ORIENTED_EDGE('',*,*,#545,.F.);
#696=ORIENTED_EDGE('',*,*,#550,.F.);
#697=ORIENTED_EDGE('',*,*,#543,.T.);
#698=ORIENTED_EDGE('',*,*,#538,.F.);
#699=ORIENTED_EDGE('',*,*,#551,.F.);
#700=ORIENTED_EDGE('',*,*,#548,.F.);
#701=ORIENTED_EDGE('',*,*,#551,.T.);
#702=ORIENTED_EDGE('',*,*,#552,.T.);
#703=ORIENTED_EDGE('',*,*,#553,.T.);
#704=ORIENTED_EDGE('',*,*,#554,.T.);
#705=ORIENTED_EDGE('',*,*,#555,.T.);
#706=ORIENTED_EDGE('',*,*,#556,.T.);
#707=ORIENTED_EDGE('',*,*,#546,.T.);
#708=ORIENTED_EDGE('',*,*,#549,.T.);
#709=ORIENTED_EDGE('',*,*,#557,.T.);
#710=ORIENTED_EDGE('',*,*,#558,.T.);
#711=ORIENTED_EDGE('',*,*,#559,.T.);
#712=ORIENTED_EDGE('',*,*,#560,.T.);
#713=ORIENTED_EDGE('',*,*,#561,.T.);
#714=ORIENTED_EDGE('',*,*,#562,.T.);
#715=ORIENTED_EDGE('',*,*,#563,.T.);
#716=ORIENTED_EDGE('',*,*,#564,.T.);
#717=ORIENTED_EDGE('',*,*,#565,.F.);
#718=ORIENTED_EDGE('',*,*,#566,.F.);
#719=ORIENTED_EDGE('',*,*,#567,.F.);
#720=ORIENTED_EDGE('',*,*,#568,.F.);
#721=ORIENTED_EDGE('',*,*,#569,.F.);
#722=ORIENTED_EDGE('',*,*,#570,.F.);
#723=ORIENTED_EDGE('',*,*,#568,.T.);
#724=ORIENTED_EDGE('',*,*,#571,.F.);
#725=ORIENTED_EDGE('',*,*,#560,.F.);
#726=ORIENTED_EDGE('',*,*,#572,.T.);
#727=ORIENTED_EDGE('',*,*,#571,.T.);
#728=ORIENTED_EDGE('',*,*,#567,.T.);
#729=ORIENTED_EDGE('',*,*,#573,.T.);
#730=ORIENTED_EDGE('',*,*,#565,.T.);
#731=ORIENTED_EDGE('',*,*,#570,.T.);
#732=ORIENTED_EDGE('',*,*,#572,.F.);
#733=ORIENTED_EDGE('',*,*,#554,.F.);
#734=ORIENTED_EDGE('',*,*,#574,.T.);
#735=ORIENTED_EDGE('',*,*,#575,.F.);
#736=ORIENTED_EDGE('',*,*,#576,.F.);
#737=ORIENTED_EDGE('',*,*,#555,.F.);
#738=ORIENTED_EDGE('',*,*,#576,.T.);
#739=ORIENTED_EDGE('',*,*,#577,.F.);
#740=ORIENTED_EDGE('',*,*,#578,.F.);
#741=ORIENTED_EDGE('',*,*,#556,.F.);
#742=ORIENTED_EDGE('',*,*,#578,.T.);
#743=ORIENTED_EDGE('',*,*,#579,.F.);
#744=ORIENTED_EDGE('',*,*,#580,.F.);
#745=ORIENTED_EDGE('',*,*,#552,.F.);
#746=ORIENTED_EDGE('',*,*,#537,.F.);
#747=ORIENTED_EDGE('',*,*,#553,.F.);
#748=ORIENTED_EDGE('',*,*,#580,.T.);
#749=ORIENTED_EDGE('',*,*,#581,.F.);
#750=ORIENTED_EDGE('',*,*,#574,.F.);
#751=ORIENTED_EDGE('',*,*,#582,.T.);
#752=ORIENTED_EDGE('',*,*,#583,.T.);
#753=ORIENTED_EDGE('',*,*,#584,.T.);
#754=ORIENTED_EDGE('',*,*,#585,.T.);
#755=ORIENTED_EDGE('',*,*,#581,.T.);
#756=ORIENTED_EDGE('',*,*,#579,.T.);
#757=ORIENTED_EDGE('',*,*,#577,.T.);
#758=ORIENTED_EDGE('',*,*,#575,.T.);
#759=ORIENTED_EDGE('',*,*,#561,.F.);
#760=ORIENTED_EDGE('',*,*,#586,.T.);
#761=ORIENTED_EDGE('',*,*,#587,.F.);
#762=ORIENTED_EDGE('',*,*,#588,.F.);
#763=ORIENTED_EDGE('',*,*,#564,.F.);
#764=ORIENTED_EDGE('',*,*,#589,.T.);
#765=ORIENTED_EDGE('',*,*,#590,.F.);
#766=ORIENTED_EDGE('',*,*,#586,.F.);
#767=ORIENTED_EDGE('',*,*,#563,.F.);
#768=ORIENTED_EDGE('',*,*,#591,.T.);
#769=ORIENTED_EDGE('',*,*,#592,.F.);
#770=ORIENTED_EDGE('',*,*,#589,.F.);
#771=ORIENTED_EDGE('',*,*,#562,.F.);
#772=ORIENTED_EDGE('',*,*,#588,.T.);
#773=ORIENTED_EDGE('',*,*,#593,.F.);
#774=ORIENTED_EDGE('',*,*,#591,.F.);
#775=ORIENTED_EDGE('',*,*,#594,.F.);
#776=ORIENTED_EDGE('',*,*,#584,.F.);
#777=ORIENTED_EDGE('',*,*,#595,.T.);
#778=ORIENTED_EDGE('',*,*,#596,.F.);
#779=ORIENTED_EDGE('',*,*,#595,.F.);
#780=ORIENTED_EDGE('',*,*,#583,.F.);
#781=ORIENTED_EDGE('',*,*,#597,.F.);
#782=ORIENTED_EDGE('',*,*,#598,.F.);
#783=ORIENTED_EDGE('',*,*,#599,.T.);
#784=ORIENTED_EDGE('',*,*,#585,.F.);
#785=ORIENTED_EDGE('',*,*,#594,.T.);
#786=ORIENTED_EDGE('',*,*,#600,.F.);
#787=ORIENTED_EDGE('',*,*,#557,.F.);
#788=ORIENTED_EDGE('',*,*,#601,.T.);
#789=ORIENTED_EDGE('',*,*,#602,.T.);
#790=ORIENTED_EDGE('',*,*,#601,.F.);
#791=ORIENTED_EDGE('',*,*,#602,.F.);
#792=ORIENTED_EDGE('',*,*,#558,.F.);
#793=ORIENTED_EDGE('',*,*,#603,.T.);
#794=ORIENTED_EDGE('',*,*,#604,.T.);
#795=ORIENTED_EDGE('',*,*,#603,.F.);
#796=ORIENTED_EDGE('',*,*,#604,.F.);
#797=ORIENTED_EDGE('',*,*,#559,.F.);
#798=ORIENTED_EDGE('',*,*,#605,.T.);
#799=ORIENTED_EDGE('',*,*,#569,.T.);
#800=ORIENTED_EDGE('',*,*,#605,.F.);
#801=ORIENTED_EDGE('',*,*,#566,.T.);
#802=ORIENTED_EDGE('',*,*,#573,.F.);
#803=ORIENTED_EDGE('',*,*,#606,.T.);
#804=ORIENTED_EDGE('',*,*,#600,.T.);
#805=ORIENTED_EDGE('',*,*,#596,.T.);
#806=ORIENTED_EDGE('',*,*,#598,.T.);
#807=ORIENTED_EDGE('',*,*,#550,.T.);
#808=ORIENTED_EDGE('',*,*,#547,.T.);
#809=ORIENTED_EDGE('',*,*,#544,.T.);
#810=ORIENTED_EDGE('',*,*,#541,.T.);
#811=ORIENTED_EDGE('',*,*,#587,.T.);
#812=ORIENTED_EDGE('',*,*,#590,.T.);
#813=ORIENTED_EDGE('',*,*,#592,.T.);
#814=ORIENTED_EDGE('',*,*,#593,.T.);
#815=ORIENTED_EDGE('',*,*,#599,.F.);
#816=ORIENTED_EDGE('',*,*,#606,.F.);
#817=ORIENTED_EDGE('',*,*,#597,.T.);
#818=ORIENTED_EDGE('',*,*,#582,.F.);
#819=ORIENTED_EDGE('',*,*,#607,.F.);
#820=ORIENTED_EDGE('',*,*,#608,.F.);
#821=ORIENTED_EDGE('',*,*,#609,.F.);
#822=ORIENTED_EDGE('',*,*,#610,.T.);
#823=ORIENTED_EDGE('',*,*,#611,.F.);
#824=ORIENTED_EDGE('',*,*,#610,.F.);
#825=ORIENTED_EDGE('',*,*,#612,.F.);
#826=ORIENTED_EDGE('',*,*,#613,.T.);
#827=ORIENTED_EDGE('',*,*,#614,.F.);
#828=ORIENTED_EDGE('',*,*,#613,.F.);
#829=ORIENTED_EDGE('',*,*,#615,.F.);
#830=ORIENTED_EDGE('',*,*,#616,.T.);
#831=ORIENTED_EDGE('',*,*,#617,.F.);
#832=ORIENTED_EDGE('',*,*,#616,.F.);
#833=ORIENTED_EDGE('',*,*,#618,.F.);
#834=ORIENTED_EDGE('',*,*,#608,.T.);
#835=ORIENTED_EDGE('',*,*,#619,.T.);
#836=ORIENTED_EDGE('',*,*,#620,.T.);
#837=ORIENTED_EDGE('',*,*,#621,.F.);
#838=ORIENTED_EDGE('',*,*,#622,.F.);
#839=ORIENTED_EDGE('',*,*,#623,.T.);
#840=ORIENTED_EDGE('',*,*,#622,.T.);
#841=ORIENTED_EDGE('',*,*,#624,.F.);
#842=ORIENTED_EDGE('',*,*,#625,.F.);
#843=ORIENTED_EDGE('',*,*,#626,.T.);
#844=ORIENTED_EDGE('',*,*,#625,.T.);
#845=ORIENTED_EDGE('',*,*,#627,.F.);
#846=ORIENTED_EDGE('',*,*,#628,.F.);
#847=ORIENTED_EDGE('',*,*,#629,.T.);
#848=ORIENTED_EDGE('',*,*,#628,.T.);
#849=ORIENTED_EDGE('',*,*,#630,.F.);
#850=ORIENTED_EDGE('',*,*,#620,.F.);
#851=ORIENTED_EDGE('',*,*,#631,.T.);
#852=ORIENTED_EDGE('',*,*,#632,.T.);
#853=ORIENTED_EDGE('',*,*,#633,.F.);
#854=ORIENTED_EDGE('',*,*,#634,.F.);
#855=ORIENTED_EDGE('',*,*,#635,.T.);
#856=ORIENTED_EDGE('',*,*,#634,.T.);
#857=ORIENTED_EDGE('',*,*,#636,.F.);
#858=ORIENTED_EDGE('',*,*,#637,.F.);
#859=ORIENTED_EDGE('',*,*,#638,.T.);
#860=ORIENTED_EDGE('',*,*,#637,.T.);
#861=ORIENTED_EDGE('',*,*,#639,.F.);
#862=ORIENTED_EDGE('',*,*,#640,.F.);
#863=ORIENTED_EDGE('',*,*,#641,.T.);
#864=ORIENTED_EDGE('',*,*,#640,.T.);
#865=ORIENTED_EDGE('',*,*,#642,.F.);
#866=ORIENTED_EDGE('',*,*,#632,.F.);
#867=ORIENTED_EDGE('',*,*,#643,.T.);
#868=ORIENTED_EDGE('',*,*,#644,.T.);
#869=ORIENTED_EDGE('',*,*,#645,.F.);
#870=ORIENTED_EDGE('',*,*,#646,.F.);
#871=ORIENTED_EDGE('',*,*,#647,.T.);
#872=ORIENTED_EDGE('',*,*,#646,.T.);
#873=ORIENTED_EDGE('',*,*,#648,.F.);
#874=ORIENTED_EDGE('',*,*,#649,.F.);
#875=ORIENTED_EDGE('',*,*,#650,.T.);
#876=ORIENTED_EDGE('',*,*,#649,.T.);
#877=ORIENTED_EDGE('',*,*,#651,.F.);
#878=ORIENTED_EDGE('',*,*,#652,.F.);
#879=ORIENTED_EDGE('',*,*,#653,.T.);
#880=ORIENTED_EDGE('',*,*,#652,.T.);
#881=ORIENTED_EDGE('',*,*,#654,.F.);
#882=ORIENTED_EDGE('',*,*,#644,.F.);
#883=ORIENTED_EDGE('',*,*,#655,.T.);
#884=ORIENTED_EDGE('',*,*,#656,.T.);
#885=ORIENTED_EDGE('',*,*,#657,.F.);
#886=ORIENTED_EDGE('',*,*,#658,.F.);
#887=ORIENTED_EDGE('',*,*,#659,.T.);
#888=ORIENTED_EDGE('',*,*,#658,.T.);
#889=ORIENTED_EDGE('',*,*,#660,.F.);
#890=ORIENTED_EDGE('',*,*,#661,.F.);
#891=ORIENTED_EDGE('',*,*,#662,.T.);
#892=ORIENTED_EDGE('',*,*,#661,.T.);
#893=ORIENTED_EDGE('',*,*,#663,.F.);
#894=ORIENTED_EDGE('',*,*,#664,.F.);
#895=ORIENTED_EDGE('',*,*,#665,.T.);
#896=ORIENTED_EDGE('',*,*,#664,.T.);
#897=ORIENTED_EDGE('',*,*,#666,.F.);
#898=ORIENTED_EDGE('',*,*,#656,.F.);
#899=ORIENTED_EDGE('',*,*,#667,.F.);
#900=ORIENTED_EDGE('',*,*,#668,.T.);
#901=ORIENTED_EDGE('',*,*,#669,.F.);
#902=ORIENTED_EDGE('',*,*,#670,.F.);
#903=ORIENTED_EDGE('',*,*,#671,.F.);
#904=ORIENTED_EDGE('',*,*,#670,.T.);
#905=ORIENTED_EDGE('',*,*,#672,.F.);
#906=ORIENTED_EDGE('',*,*,#673,.F.);
#907=ORIENTED_EDGE('',*,*,#674,.F.);
#908=ORIENTED_EDGE('',*,*,#673,.T.);
#909=ORIENTED_EDGE('',*,*,#675,.F.);
#910=ORIENTED_EDGE('',*,*,#676,.F.);
#911=ORIENTED_EDGE('',*,*,#677,.F.);
#912=ORIENTED_EDGE('',*,*,#676,.T.);
#913=ORIENTED_EDGE('',*,*,#678,.F.);
#914=ORIENTED_EDGE('',*,*,#668,.F.);
#915=ORIENTED_EDGE('',*,*,#678,.T.);
#916=ORIENTED_EDGE('',*,*,#675,.T.);
#917=ORIENTED_EDGE('',*,*,#672,.T.);
#918=ORIENTED_EDGE('',*,*,#669,.T.);
#919=ORIENTED_EDGE('',*,*,#614,.T.);
#920=ORIENTED_EDGE('',*,*,#617,.T.);
#921=ORIENTED_EDGE('',*,*,#607,.T.);
#922=ORIENTED_EDGE('',*,*,#611,.T.);
#923=ORIENTED_EDGE('',*,*,#666,.T.);
#924=ORIENTED_EDGE('',*,*,#663,.T.);
#925=ORIENTED_EDGE('',*,*,#660,.T.);
#926=ORIENTED_EDGE('',*,*,#657,.T.);
#927=ORIENTED_EDGE('',*,*,#654,.T.);
#928=ORIENTED_EDGE('',*,*,#651,.T.);
#929=ORIENTED_EDGE('',*,*,#648,.T.);
#930=ORIENTED_EDGE('',*,*,#645,.T.);
#931=ORIENTED_EDGE('',*,*,#642,.T.);
#932=ORIENTED_EDGE('',*,*,#639,.T.);
#933=ORIENTED_EDGE('',*,*,#636,.T.);
#934=ORIENTED_EDGE('',*,*,#633,.T.);
#935=ORIENTED_EDGE('',*,*,#630,.T.);
#936=ORIENTED_EDGE('',*,*,#627,.T.);
#937=ORIENTED_EDGE('',*,*,#624,.T.);
#938=ORIENTED_EDGE('',*,*,#621,.T.);
#939=ORIENTED_EDGE('',*,*,#677,.T.);
#940=ORIENTED_EDGE('',*,*,#667,.T.);
#941=ORIENTED_EDGE('',*,*,#671,.T.);
#942=ORIENTED_EDGE('',*,*,#674,.T.);
#943=ORIENTED_EDGE('',*,*,#615,.T.);
#944=ORIENTED_EDGE('',*,*,#612,.T.);
#945=ORIENTED_EDGE('',*,*,#609,.T.);
#946=ORIENTED_EDGE('',*,*,#618,.T.);
#947=ORIENTED_EDGE('',*,*,#665,.F.);
#948=ORIENTED_EDGE('',*,*,#655,.F.);
#949=ORIENTED_EDGE('',*,*,#659,.F.);
#950=ORIENTED_EDGE('',*,*,#662,.F.);
#951=ORIENTED_EDGE('',*,*,#653,.F.);
#952=ORIENTED_EDGE('',*,*,#643,.F.);
#953=ORIENTED_EDGE('',*,*,#647,.F.);
#954=ORIENTED_EDGE('',*,*,#650,.F.);
#955=ORIENTED_EDGE('',*,*,#641,.F.);
#956=ORIENTED_EDGE('',*,*,#631,.F.);
#957=ORIENTED_EDGE('',*,*,#635,.F.);
#958=ORIENTED_EDGE('',*,*,#638,.F.);
#959=ORIENTED_EDGE('',*,*,#629,.F.);
#960=ORIENTED_EDGE('',*,*,#619,.F.);
#961=ORIENTED_EDGE('',*,*,#623,.F.);
#962=ORIENTED_EDGE('',*,*,#626,.F.);
#963=PLANE('',#1086);
#964=PLANE('',#1087);
#965=PLANE('',#1088);
#966=PLANE('',#1089);
#967=PLANE('',#1090);
#968=PLANE('',#1091);
#969=PLANE('',#1096);
#970=PLANE('',#1097);
#971=PLANE('',#1099);
#972=PLANE('',#1104);
#973=PLANE('',#1105);
#974=PLANE('',#1106);
#975=PLANE('',#1107);
#976=PLANE('',#1108);
#977=PLANE('',#1109);
#978=PLANE('',#1110);
#979=PLANE('',#1111);
#980=PLANE('',#1112);
#981=PLANE('',#1113);
#982=PLANE('',#1114);
#983=PLANE('',#1115);
#984=PLANE('',#1118);
#985=PLANE('',#1121);
#986=PLANE('',#1123);
#987=PLANE('',#1124);
#988=PLANE('',#1125);
#989=PLANE('',#1126);
#990=PLANE('',#1127);
#991=PLANE('',#1128);
#992=PLANE('',#1129);
#993=PLANE('',#1130);
#994=PLANE('',#1131);
#995=PLANE('',#1132);
#996=PLANE('',#1133);
#997=PLANE('',#1134);
#998=PLANE('',#1135);
#999=PLANE('',#1136);
#1000=PLANE('',#1137);
#1001=PLANE('',#1138);
#1002=PLANE('',#1139);
#1003=PLANE('',#1140);
#1004=PLANE('',#1141);
#1005=PLANE('',#1142);
#1006=PLANE('',#1143);
#1007=PLANE('',#1144);
#1008=PLANE('',#1145);
#1009=PLANE('',#1146);
#1010=PLANE('',#1147);
#1011=PLANE('',#1148);
#1012=PLANE('',#1149);
#1013=PLANE('',#1150);
#1014=PLANE('',#1151);
#1015=ADVANCED_FACE('',(#49),#963,.F.);
#1016=ADVANCED_FACE('',(#50),#964,.F.);
#1017=ADVANCED_FACE('',(#51),#965,.F.);
#1018=ADVANCED_FACE('',(#52),#966,.F.);
#1019=ADVANCED_FACE('',(#53),#967,.F.);
#1020=ADVANCED_FACE('',(#54,#21,#22,#23,#24,#25),#968,.F.);
#1021=ADVANCED_FACE('',(#55),#969,.T.);
#1022=ADVANCED_FACE('',(#56),#970,.F.);
#1023=ADVANCED_FACE('',(#57),#971,.F.);
#1024=ADVANCED_FACE('',(#58),#17,.F.);
#1025=ADVANCED_FACE('',(#59),#972,.T.);
#1026=ADVANCED_FACE('',(#60),#973,.T.);
#1027=ADVANCED_FACE('',(#61),#974,.T.);
#1028=ADVANCED_FACE('',(#62),#975,.T.);
#1029=ADVANCED_FACE('',(#63,#26),#976,.T.);
#1030=ADVANCED_FACE('',(#64),#977,.F.);
#1031=ADVANCED_FACE('',(#65),#978,.F.);
#1032=ADVANCED_FACE('',(#66),#979,.F.);
#1033=ADVANCED_FACE('',(#67),#980,.F.);
#1034=ADVANCED_FACE('',(#68),#981,.T.);
#1035=ADVANCED_FACE('',(#69),#982,.T.);
#1036=ADVANCED_FACE('',(#70),#983,.T.);
#1037=ADVANCED_FACE('',(#71),#18,.F.);
#1038=ADVANCED_FACE('',(#72),#984,.F.);
#1039=ADVANCED_FACE('',(#73),#19,.F.);
#1040=ADVANCED_FACE('',(#74),#985,.F.);
#1041=ADVANCED_FACE('',(#75),#20,.F.);
#1042=ADVANCED_FACE('',(#76),#986,.F.);
#1043=ADVANCED_FACE('',(#77,#27,#28),#987,.T.);
#1044=ADVANCED_FACE('',(#78),#988,.T.);
#1045=ADVANCED_FACE('',(#79),#989,.F.);
#1046=ADVANCED_FACE('',(#80),#990,.F.);
#1047=ADVANCED_FACE('',(#81),#991,.F.);
#1048=ADVANCED_FACE('',(#82),#992,.F.);
#1049=ADVANCED_FACE('',(#83),#993,.T.);
#1050=ADVANCED_FACE('',(#84),#994,.T.);
#1051=ADVANCED_FACE('',(#85),#995,.T.);
#1052=ADVANCED_FACE('',(#86),#996,.T.);
#1053=ADVANCED_FACE('',(#87),#997,.T.);
#1054=ADVANCED_FACE('',(#88),#998,.T.);
#1055=ADVANCED_FACE('',(#89),#999,.T.);
#1056=ADVANCED_FACE('',(#90),#1000,.T.);
#1057=ADVANCED_FACE('',(#91),#1001,.T.);
#1058=ADVANCED_FACE('',(#92),#1002,.T.);
#1059=ADVANCED_FACE('',(#93),#1003,.T.);
#1060=ADVANCED_FACE('',(#94),#1004,.T.);
#1061=ADVANCED_FACE('',(#95),#1005,.T.);
#1062=ADVANCED_FACE('',(#96),#1006,.T.);
#1063=ADVANCED_FACE('',(#97),#1007,.T.);
#1064=ADVANCED_FACE('',(#98),#1008,.T.);
#1065=ADVANCED_FACE('',(#99),#1009,.T.);
#1066=ADVANCED_FACE('',(#100),#1010,.T.);
#1067=ADVANCED_FACE('',(#101),#1011,.T.);
#1068=ADVANCED_FACE('',(#102),#1012,.T.);
#1069=ADVANCED_FACE('',(#103,#29,#30,#31,#32,#33),#1013,.T.);
#1070=ADVANCED_FACE('',(#104,#34,#35,#36,#37,#38),#1014,.F.);
#1071=CLOSED_SHELL('',(#1015,#1016,#1017,#1018,#1019,#1020,#1021,#1022,
#1023,#1024,#1025,#1026,#1027,#1028,#1029,#1030,#1031,#1032,#1033,#1034,
#1035,#1036,#1037,#1038,#1039,#1040,#1041,#1042,#1043,#1044));
#1072=CLOSED_SHELL('',(#1045,#1046,#1047,#1048,#1049,#1050,#1051,#1052,
#1053,#1054,#1055,#1056,#1057,#1058,#1059,#1060,#1061,#1062,#1063,#1064,
#1065,#1066,#1067,#1068,#1069,#1070));
#1073=DERIVED_UNIT_ELEMENT(#1075,1.);
#1074=DERIVED_UNIT_ELEMENT(#1716,-3.);
#1075=(
MASS_UNIT()
NAMED_UNIT(*)
SI_UNIT(.KILO.,.GRAM.)
);
#1076=DERIVED_UNIT((#1073,#1074));
#1077=MEASURE_REPRESENTATION_ITEM('density measure',
POSITIVE_RATIO_MEASURE(7850.),#1076);
#1078=PROPERTY_DEFINITION_REPRESENTATION(#1083,#1080);
#1079=PROPERTY_DEFINITION_REPRESENTATION(#1084,#1081);
#1080=REPRESENTATION('material name',(#1082),#1713);
#1081=REPRESENTATION('density',(#1077),#1713);
#1082=DESCRIPTIVE_REPRESENTATION_ITEM('Steel','Steel');
#1083=PROPERTY_DEFINITION('material property','material name',#1723);
#1084=PROPERTY_DEFINITION('material property','density of part',#1723);
#1085=AXIS2_PLACEMENT_3D('',#1418,#1152,#1153);
#1086=AXIS2_PLACEMENT_3D('',#1419,#1154,#1155);
#1087=AXIS2_PLACEMENT_3D('',#1428,#1160,#1161);
#1088=AXIS2_PLACEMENT_3D('',#1434,#1165,#1166);
#1089=AXIS2_PLACEMENT_3D('',#1440,#1170,#1171);
#1090=AXIS2_PLACEMENT_3D('',#1446,#1175,#1176);
#1091=AXIS2_PLACEMENT_3D('',#1449,#1179,#1180);
#1092=AXIS2_PLACEMENT_3D('',#1460,#1186,#1187);
#1093=AXIS2_PLACEMENT_3D('',#1462,#1188,#1189);
#1094=AXIS2_PLACEMENT_3D('',#1464,#1190,#1191);
#1095=AXIS2_PLACEMENT_3D('',#1466,#1192,#1193);
#1096=AXIS2_PLACEMENT_3D('',#1475,#1198,#1199);
#1097=AXIS2_PLACEMENT_3D('',#1484,#1204,#1205);
#1098=AXIS2_PLACEMENT_3D('',#1486,#1206,#1207);
#1099=AXIS2_PLACEMENT_3D('',#1487,#1208,#1209);
#1100=AXIS2_PLACEMENT_3D('',#1489,#1210,#1211);
#1101=AXIS2_PLACEMENT_3D('',#1490,#1212,#1213);
#1102=AXIS2_PLACEMENT_3D('',#1491,#1214,#1215);
#1103=AXIS2_PLACEMENT_3D('',#1493,#1217,#1218);
#1104=AXIS2_PLACEMENT_3D('',#1494,#1219,#1220);
#1105=AXIS2_PLACEMENT_3D('',#1500,#1224,#1225);
#1106=AXIS2_PLACEMENT_3D('',#1504,#1228,#1229);
#1107=AXIS2_PLACEMENT_3D('',#1508,#1232,#1233);
#1108=AXIS2_PLACEMENT_3D('',#1510,#1235,#1236);
#1109=AXIS2_PLACEMENT_3D('',#1519,#1241,#1242);
#1110=AXIS2_PLACEMENT_3D('',#1525,#1246,#1247);
#1111=AXIS2_PLACEMENT_3D('',#1529,#1250,#1251);
#1112=AXIS2_PLACEMENT_3D('',#1533,#1254,#1255);
#1113=AXIS2_PLACEMENT_3D('',#1535,#1257,#1258);
#1114=AXIS2_PLACEMENT_3D('',#1541,#1262,#1263);
#1115=AXIS2_PLACEMENT_3D('',#1545,#1266,#1267);
#1116=AXIS2_PLACEMENT_3D('',#1549,#1270,#1271);
#1117=AXIS2_PLACEMENT_3D('',#1552,#1273,#1274);
#1118=AXIS2_PLACEMENT_3D('',#1553,#1275,#1276);
#1119=AXIS2_PLACEMENT_3D('',#1554,#1277,#1278);
#1120=AXIS2_PLACEMENT_3D('',#1557,#1280,#1281);
#1121=AXIS2_PLACEMENT_3D('',#1558,#1282,#1283);
#1122=AXIS2_PLACEMENT_3D('',#1559,#1284,#1285);
#1123=AXIS2_PLACEMENT_3D('',#1561,#1287,#1288);
#1124=AXIS2_PLACEMENT_3D('',#1562,#1289,#1290);
#1125=AXIS2_PLACEMENT_3D('',#1564,#1292,#1293);
#1126=AXIS2_PLACEMENT_3D('',#1565,#1294,#1295);
#1127=AXIS2_PLACEMENT_3D('',#1574,#1300,#1301);
#1128=AXIS2_PLACEMENT_3D('',#1580,#1305,#1306);
#1129=AXIS2_PLACEMENT_3D('',#1586,#1310,#1311);
#1130=AXIS2_PLACEMENT_3D('',#1589,#1314,#1315);
#1131=AXIS2_PLACEMENT_3D('',#1598,#1320,#1321);
#1132=AXIS2_PLACEMENT_3D('',#1604,#1325,#1326);
#1133=AXIS2_PLACEMENT_3D('',#1610,#1330,#1331);
#1134=AXIS2_PLACEMENT_3D('',#1613,#1334,#1335);
#1135=AXIS2_PLACEMENT_3D('',#1622,#1340,#1341);
#1136=AXIS2_PLACEMENT_3D('',#1628,#1345,#1346);
#1137=AXIS2_PLACEMENT_3D('',#1634,#1350,#1351);
#1138=AXIS2_PLACEMENT_3D('',#1637,#1354,#1355);
#1139=AXIS2_PLACEMENT_3D('',#1646,#1360,#1361);
#1140=AXIS2_PLACEMENT_3D('',#1652,#1365,#1366);
#1141=AXIS2_PLACEMENT_3D('',#1658,#1370,#1371);
#1142=AXIS2_PLACEMENT_3D('',#1661,#1374,#1375);
#1143=AXIS2_PLACEMENT_3D('',#1670,#1380,#1381);
#1144=AXIS2_PLACEMENT_3D('',#1676,#1385,#1386);
#1145=AXIS2_PLACEMENT_3D('',#1682,#1390,#1391);
#1146=AXIS2_PLACEMENT_3D('',#1685,#1394,#1395);
#1147=AXIS2_PLACEMENT_3D('',#1694,#1400,#1401);
#1148=AXIS2_PLACEMENT_3D('',#1700,#1405,#1406);
#1149=AXIS2_PLACEMENT_3D('',#1706,#1410,#1411);
#1150=AXIS2_PLACEMENT_3D('',#1709,#1414,#1415);
#1151=AXIS2_PLACEMENT_3D('',#1710,#1416,#1417);
#1152=DIRECTION('axis',(0.,0.,1.));
#1153=DIRECTION('refdir',(1.,0.,0.));
#1154=DIRECTION('center_axis',(0.,-1.,0.));
#1155=DIRECTION('ref_axis',(0.,0.,1.));
#1156=DIRECTION('',(0.,0.,-1.));
#1157=DIRECTION('',(-1.,0.,0.));
#1158=DIRECTION('',(0.,0.,1.));
#1159=DIRECTION('',(-1.,0.,0.));
#1160=DIRECTION('center_axis',(-1.,0.,0.));
#1161=DIRECTION('ref_axis',(0.,0.,1.));
#1162=DIRECTION('',(0.,0.,-1.));
#1163=DIRECTION('',(0.,1.,0.));
#1164=DIRECTION('',(0.,-1.,0.));
#1165=DIRECTION('center_axis',(0.,0.,1.));
#1166=DIRECTION('ref_axis',(-1.,0.,0.));
#1167=DIRECTION('',(-1.,0.,0.));
#1168=DIRECTION('',(0.,-1.,0.));
#1169=DIRECTION('',(1.,0.,0.));
#1170=DIRECTION('center_axis',(1.,0.,0.));
#1171=DIRECTION('ref_axis',(0.,0.,1.));
#1172=DIRECTION('',(0.,0.,1.));
#1173=DIRECTION('',(0.,-1.,0.));
#1174=DIRECTION('',(0.,0.,-1.));
#1175=DIRECTION('center_axis',(-2.24740783025114E-17,0.,-1.));
#1176=DIRECTION('ref_axis',(1.,0.,-2.24740783025114E-17));
#1177=DIRECTION('',(1.,0.,0.));
#1178=DIRECTION('',(-1.,0.,0.));
#1179=DIRECTION('center_axis',(0.,1.,0.));
#1180=DIRECTION('ref_axis',(1.,0.,0.));
#1181=DIRECTION('',(0.,0.,-1.));
#1182=DIRECTION('',(1.,0.,0.));
#1183=DIRECTION('',(0.,0.,1.));
#1184=DIRECTION('',(-1.,0.,0.));
#1185=DIRECTION('',(0.,0.,-1.));
#1186=DIRECTION('center_axis',(0.,1.,0.));
#1187=DIRECTION('ref_axis',(1.,0.,0.));
#1188=DIRECTION('center_axis',(0.,1.,0.));
#1189=DIRECTION('ref_axis',(1.,0.,0.));
#1190=DIRECTION('center_axis',(0.,1.,0.));
#1191=DIRECTION('ref_axis',(1.,0.,0.));
#1192=DIRECTION('center_axis',(0.,1.,0.));
#1193=DIRECTION('ref_axis',(1.,0.,0.));
#1194=DIRECTION('',(1.,0.,0.));
#1195=DIRECTION('',(0.,0.,-1.));
#1196=DIRECTION('',(-1.,0.,0.));
#1197=DIRECTION('',(0.,0.,1.));
#1198=DIRECTION('center_axis',(1.00559118414543E-16,0.,-1.));
#1199=DIRECTION('ref_axis',(1.,0.,1.00559118414543E-16));
#1200=DIRECTION('',(0.,-1.,0.));
#1201=DIRECTION('',(-1.,0.,-1.00559118414543E-16));
#1202=DIRECTION('',(0.,1.,0.));
#1203=DIRECTION('',(1.,0.,1.00559118414543E-16));
#1204=DIRECTION('center_axis',(0.,1.,0.));
#1205=DIRECTION('ref_axis',(-1.,0.,0.));
#1206=DIRECTION('center_axis',(0.,1.,0.));
#1207=DIRECTION('ref_axis',(1.,0.,0.));
#1208=DIRECTION('center_axis',(0.,1.,0.));
#1209=DIRECTION('ref_axis',(-1.,0.,0.));
#1210=DIRECTION('center_axis',(0.,1.,0.));
#1211=DIRECTION('ref_axis',(1.,0.,0.));
#1212=DIRECTION('center_axis',(0.,1.,0.));
#1213=DIRECTION('ref_axis',(1.,0.,0.));
#1214=DIRECTION('center_axis',(0.,1.,0.));
#1215=DIRECTION('ref_axis',(1.,0.,0.));
#1216=DIRECTION('',(0.,1.,0.));
#1217=DIRECTION('center_axis',(0.,1.,0.));
#1218=DIRECTION('ref_axis',(1.,0.,0.));
#1219=DIRECTION('center_axis',(-1.,0.,0.));
#1220=DIRECTION('ref_axis',(0.,0.,-1.));
#1221=DIRECTION('',(0.,-1.,0.));
#1222=DIRECTION('',(0.,0.,-1.));
#1223=DIRECTION('',(0.,-1.,0.));
#1224=DIRECTION('center_axis',(0.,0.,-1.));
#1225=DIRECTION('ref_axis',(1.,0.,0.));
#1226=DIRECTION('',(1.,0.,0.));
#1227=DIRECTION('',(0.,-1.,0.));
#1228=DIRECTION('center_axis',(1.,0.,0.));
#1229=DIRECTION('ref_axis',(0.,0.,1.));
#1230=DIRECTION('',(0.,0.,1.));
#1231=DIRECTION('',(0.,-1.,0.));
#1232=DIRECTION('center_axis',(0.,0.,1.));
#1233=DIRECTION('ref_axis',(-1.,0.,0.));
#1234=DIRECTION('',(-1.,0.,0.));
#1235=DIRECTION('center_axis',(0.,-1.,0.));
#1236=DIRECTION('ref_axis',(0.,0.,-1.));
#1237=DIRECTION('',(1.,0.,0.));
#1238=DIRECTION('',(0.,0.,1.));
#1239=DIRECTION('',(-1.,0.,0.));
#1240=DIRECTION('',(0.,0.,-1.));
#1241=DIRECTION('center_axis',(0.,0.,1.));
#1242=DIRECTION('ref_axis',(1.,0.,0.));
#1243=DIRECTION('',(0.,1.,0.));
#1244=DIRECTION('',(-1.,0.,0.));
#1245=DIRECTION('',(0.,1.,0.));
#1246=DIRECTION('center_axis',(-1.,0.,0.));
#1247=DIRECTION('ref_axis',(0.,0.,1.));
#1248=DIRECTION('',(0.,1.,0.));
#1249=DIRECTION('',(0.,0.,-1.));
#1250=DIRECTION('center_axis',(0.,0.,-1.));
#1251=DIRECTION('ref_axis',(-1.,0.,0.));
#1252=DIRECTION('',(0.,1.,0.));
#1253=DIRECTION('',(1.,0.,0.));
#1254=DIRECTION('center_axis',(1.,0.,0.));
#1255=DIRECTION('ref_axis',(0.,0.,-1.));
#1256=DIRECTION('',(0.,0.,1.));
#1257=DIRECTION('center_axis',(0.,0.,1.));
#1258=DIRECTION('ref_axis',(1.,0.,0.));
#1259=DIRECTION('',(0.,1.,0.));
#1260=DIRECTION('',(0.,1.,0.));
#1261=DIRECTION('',(1.,0.,0.));
#1262=DIRECTION('center_axis',(1.,0.,0.));
#1263=DIRECTION('ref_axis',(0.,0.,-1.));
#1264=DIRECTION('',(0.,-1.,0.));
#1265=DIRECTION('',(0.,0.,-1.));
#1266=DIRECTION('center_axis',(-1.,0.,0.));
#1267=DIRECTION('ref_axis',(0.,0.,1.));
#1268=DIRECTION('',(0.,-1.,0.));
#1269=DIRECTION('',(0.,0.,1.));
#1270=DIRECTION('center_axis',(0.,1.,0.));
#1271=DIRECTION('ref_axis',(1.,0.,0.));
#1272=DIRECTION('',(0.,1.,0.));
#1273=DIRECTION('center_axis',(0.,1.,0.));
#1274=DIRECTION('ref_axis',(1.,0.,0.));
#1275=DIRECTION('center_axis',(0.,1.,0.));
#1276=DIRECTION('ref_axis',(1.,0.,0.));
#1277=DIRECTION('center_axis',(0.,1.,0.));
#1278=DIRECTION('ref_axis',(1.,0.,0.));
#1279=DIRECTION('',(0.,1.,0.));
#1280=DIRECTION('center_axis',(0.,1.,0.));
#1281=DIRECTION('ref_axis',(1.,0.,0.));
#1282=DIRECTION('center_axis',(0.,1.,0.));
#1283=DIRECTION('ref_axis',(1.,0.,0.));
#1284=DIRECTION('center_axis',(0.,1.,0.));
#1285=DIRECTION('ref_axis',(1.,0.,0.));
#1286=DIRECTION('',(0.,1.,0.));
#1287=DIRECTION('center_axis',(0.,1.,0.));
#1288=DIRECTION('ref_axis',(1.,0.,0.));
#1289=DIRECTION('center_axis',(0.,1.,0.));
#1290=DIRECTION('ref_axis',(1.,0.,0.));
#1291=DIRECTION('',(-1.,0.,0.));
#1292=DIRECTION('center_axis',(0.,0.,-1.));
#1293=DIRECTION('ref_axis',(-1.,0.,0.));
#1294=DIRECTION('center_axis',(0.,0.,1.));
#1295=DIRECTION('ref_axis',(-1.,0.,0.));
#1296=DIRECTION('',(1.,0.,0.));
#1297=DIRECTION('',(0.,-1.,0.));
#1298=DIRECTION('',(-1.,0.,0.));
#1299=DIRECTION('',(0.,-1.,0.));
#1300=DIRECTION('center_axis',(1.,0.,0.));
#1301=DIRECTION('ref_axis',(0.,0.,1.));
#1302=DIRECTION('',(0.,0.,-1.));
#1303=DIRECTION('',(0.,0.,1.));
#1304=DIRECTION('',(0.,-1.,0.));
#1305=DIRECTION('center_axis',(0.,0.,-1.));
#1306=DIRECTION('ref_axis',(1.,0.,0.));
#1307=DIRECTION('',(-1.,0.,0.));
#1308=DIRECTION('',(1.,0.,0.));
#1309=DIRECTION('',(0.,-1.,0.));
#1310=DIRECTION('center_axis',(-1.,0.,0.));
#1311=DIRECTION('ref_axis',(0.,0.,-1.));
#1312=DIRECTION('',(0.,0.,1.));
#1313=DIRECTION('',(0.,0.,-1.));
#1314=DIRECTION('center_axis',(-1.,0.,0.));
#1315=DIRECTION('ref_axis',(0.,0.,-1.));
#1316=DIRECTION('',(0.,0.,-1.));
#1317=DIRECTION('',(0.,-1.,0.));
#1318=DIRECTION('',(0.,0.,-1.));
#1319=DIRECTION('',(0.,-1.,0.));
#1320=DIRECTION('center_axis',(0.,0.,-1.));
#1321=DIRECTION('ref_axis',(1.,0.,0.));
#1322=DIRECTION('',(1.,0.,0.));
#1323=DIRECTION('',(1.,0.,0.));
#1324=DIRECTION('',(0.,-1.,0.));
#1325=DIRECTION('center_axis',(1.,0.,0.));
#1326=DIRECTION('ref_axis',(0.,0.,1.));
#1327=DIRECTION('',(0.,0.,1.));
#1328=DIRECTION('',(0.,0.,1.));
#1329=DIRECTION('',(0.,-1.,0.));
#1330=DIRECTION('center_axis',(0.,0.,1.));
#1331=DIRECTION('ref_axis',(-1.,0.,0.));
#1332=DIRECTION('',(-1.,0.,0.));
#1333=DIRECTION('',(-1.,0.,0.));
#1334=DIRECTION('center_axis',(-1.,0.,0.));
#1335=DIRECTION('ref_axis',(0.,0.,-1.));
#1336=DIRECTION('',(0.,0.,-1.));
#1337=DIRECTION('',(0.,-1.,0.));
#1338=DIRECTION('',(0.,0.,-1.));
#1339=DIRECTION('',(0.,-1.,0.));
#1340=DIRECTION('center_axis',(0.,0.,-1.));
#1341=DIRECTION('ref_axis',(1.,0.,0.));
#1342=DIRECTION('',(1.,0.,0.));
#1343=DIRECTION('',(1.,0.,0.));
#1344=DIRECTION('',(0.,-1.,0.));
#1345=DIRECTION('center_axis',(1.,0.,0.));
#1346=DIRECTION('ref_axis',(0.,0.,1.));
#1347=DIRECTION('',(0.,0.,1.));
#1348=DIRECTION('',(0.,0.,1.));
#1349=DIRECTION('',(0.,-1.,0.));
#1350=DIRECTION('center_axis',(0.,0.,1.));
#1351=DIRECTION('ref_axis',(-1.,0.,0.));
#1352=DIRECTION('',(-1.,0.,0.));
#1353=DIRECTION('',(-1.,0.,0.));
#1354=DIRECTION('center_axis',(-1.,0.,0.));
#1355=DIRECTION('ref_axis',(0.,0.,-1.));
#1356=DIRECTION('',(0.,0.,-1.));
#1357=DIRECTION('',(0.,-1.,0.));
#1358=DIRECTION('',(0.,0.,-1.));
#1359=DIRECTION('',(0.,-1.,0.));
#1360=DIRECTION('center_axis',(0.,0.,-1.));
#1361=DIRECTION('ref_axis',(1.,0.,0.));
#1362=DIRECTION('',(1.,0.,0.));
#1363=DIRECTION('',(1.,0.,0.));
#1364=DIRECTION('',(0.,-1.,0.));
#1365=DIRECTION('center_axis',(1.,0.,0.));
#1366=DIRECTION('ref_axis',(0.,0.,1.));
#1367=DIRECTION('',(0.,0.,1.));
#1368=DIRECTION('',(0.,0.,1.));
#1369=DIRECTION('',(0.,-1.,0.));
#1370=DIRECTION('center_axis',(0.,0.,1.));
#1371=DIRECTION('ref_axis',(-1.,0.,0.));
#1372=DIRECTION('',(-1.,0.,0.));
#1373=DIRECTION('',(-1.,0.,0.));
#1374=DIRECTION('center_axis',(-1.,0.,0.));
#1375=DIRECTION('ref_axis',(0.,0.,-1.));
#1376=DIRECTION('',(0.,0.,-1.));
#1377=DIRECTION('',(0.,-1.,0.));
#1378=DIRECTION('',(0.,0.,-1.));
#1379=DIRECTION('',(0.,-1.,0.));
#1380=DIRECTION('center_axis',(0.,0.,-1.));
#1381=DIRECTION('ref_axis',(1.,0.,0.));
#1382=DIRECTION('',(1.,0.,0.));
#1383=DIRECTION('',(1.,0.,0.));
#1384=DIRECTION('',(0.,-1.,0.));
#1385=DIRECTION('center_axis',(1.,0.,0.));
#1386=DIRECTION('ref_axis',(0.,0.,1.));
#1387=DIRECTION('',(0.,0.,1.));
#1388=DIRECTION('',(0.,0.,1.));
#1389=DIRECTION('',(0.,-1.,0.));
#1390=DIRECTION('center_axis',(0.,0.,1.));
#1391=DIRECTION('ref_axis',(-1.,0.,0.));
#1392=DIRECTION('',(-1.,0.,0.));
#1393=DIRECTION('',(-1.,0.,0.));
#1394=DIRECTION('center_axis',(-1.,0.,0.));
#1395=DIRECTION('ref_axis',(0.,0.,-1.));
#1396=DIRECTION('',(0.,0.,1.));
#1397=DIRECTION('',(0.,-1.,0.));
#1398=DIRECTION('',(0.,0.,-1.));
#1399=DIRECTION('',(0.,-1.,0.));
#1400=DIRECTION('center_axis',(0.,0.,1.));
#1401=DIRECTION('ref_axis',(-1.,0.,0.));
#1402=DIRECTION('',(1.,0.,0.));
#1403=DIRECTION('',(-1.,0.,0.));
#1404=DIRECTION('',(0.,-1.,0.));
#1405=DIRECTION('center_axis',(1.,0.,0.));
#1406=DIRECTION('ref_axis',(0.,0.,1.));
#1407=DIRECTION('',(0.,0.,-1.));
#1408=DIRECTION('',(0.,0.,1.));
#1409=DIRECTION('',(0.,-1.,0.));
#1410=DIRECTION('center_axis',(0.,0.,-1.));
#1411=DIRECTION('ref_axis',(1.,0.,0.));
#1412=DIRECTION('',(-1.,0.,0.));
#1413=DIRECTION('',(1.,0.,0.));
#1414=DIRECTION('center_axis',(0.,-1.,0.));
#1415=DIRECTION('ref_axis',(0.,0.,-1.));
#1416=DIRECTION('center_axis',(0.,-1.,0.));
#1417=DIRECTION('ref_axis',(1.,0.,0.));
#1418=CARTESIAN_POINT('',(0.,0.,0.));
#1419=CARTESIAN_POINT('Origin',(108.268605227608,-125.,-11.1863334456534));
#1420=CARTESIAN_POINT('',(105.000001564622,-125.,18.4972203676751));
#1421=CARTESIAN_POINT('',(105.000001564622,-125.,-11.1863334456534));
#1422=CARTESIAN_POINT('',(105.000001564622,-125.,-8.25000012293458));
#1423=CARTESIAN_POINT('',(103.268605227608,-125.,-11.1863334456534));
#1424=CARTESIAN_POINT('',(108.268605227608,-125.,-11.1863334456534));
#1425=CARTESIAN_POINT('',(103.268605227608,-125.,18.4972203676751));
#1426=CARTESIAN_POINT('',(103.268605227608,-125.,10.9986102099146));
#1427=CARTESIAN_POINT('',(108.268605227608,-125.,18.4972203676751));
#1428=CARTESIAN_POINT('Origin',(103.268605227608,-119.,18.4972203676751));
#1429=CARTESIAN_POINT('',(103.268605227608,-119.,18.4972203676751));
#1430=CARTESIAN_POINT('',(103.268605227608,-119.,-11.1863334456534));
#1431=CARTESIAN_POINT('',(103.268605227608,-119.,20.2174537190117));
#1432=CARTESIAN_POINT('',(103.268605227608,-119.,18.4972203676751));
#1433=CARTESIAN_POINT('',(103.268605227608,-119.,-11.1863334456534));
#1434=CARTESIAN_POINT('Origin',(207.068921723888,-119.,18.4972203676751));
#1435=CARTESIAN_POINT('',(207.068921723888,-119.,18.4972203676751));
#1436=CARTESIAN_POINT('',(144.125256294441,-119.,18.4972203676751));
#1437=CARTESIAN_POINT('',(207.068921723888,-125.,18.4972203676751));
#1438=CARTESIAN_POINT('',(207.068921723888,-119.,18.4972203676751));
#1439=CARTESIAN_POINT('',(126.384303690413,-125.,18.4972203676751));
#1440=CARTESIAN_POINT('Origin',(207.068921723888,-119.,-11.1863334456534));
#1441=CARTESIAN_POINT('',(207.068921723888,-119.,-11.1863334456534));
#1442=CARTESIAN_POINT('',(207.068921723888,-119.,5.37567681234749));
#1443=CARTESIAN_POINT('',(207.068921723888,-125.,-11.1863334456534));
#1444=CARTESIAN_POINT('',(207.068921723888,-119.,-11.1863334456534));
#1445=CARTESIAN_POINT('',(207.068921723888,-125.,-3.84316669674967));
#1446=CARTESIAN_POINT('Origin',(108.268605227608,-119.,-11.1863334456534));
#1447=CARTESIAN_POINT('',(144.125256294441,-119.,-11.1863334456534));
#1448=CARTESIAN_POINT('',(126.384303690413,-125.,-11.1863334456534));
#1449=CARTESIAN_POINT('Origin',(144.500002153218,-125.,3.50000005215406));
#1450=CARTESIAN_POINT('',(105.000001564622,-125.,-20.0000002980232));
#1451=CARTESIAN_POINT('',(105.000001564622,-125.,-8.25000012293458));
#1452=CARTESIAN_POINT('',(220.016276488198,-125.,-20.0000002980232));
#1453=CARTESIAN_POINT('',(182.258139320708,-125.,-20.0000002980232));
#1454=CARTESIAN_POINT('',(220.016276488198,-125.,27.0000004023314));
#1455=CARTESIAN_POINT('',(220.016276488198,-125.,15.2500002272427));
#1456=CARTESIAN_POINT('',(105.000001564622,-125.,27.0000004023314));
#1457=CARTESIAN_POINT('',(124.75000185892,-125.,27.0000004023314));
#1458=CARTESIAN_POINT('',(105.000001564622,-125.,-8.25000012293458));
#1459=CARTESIAN_POINT('',(107.778308533869,-125.,22.056696071201));
#1460=CARTESIAN_POINT('Origin',(109.778308533869,-125.,22.056696071201));
#1461=CARTESIAN_POINT('',(107.668808912972,-125.,-14.583630042516));
#1462=CARTESIAN_POINT('Origin',(109.768808912972,-125.,-14.583630042516));
#1463=CARTESIAN_POINT('',(177.863812114844,-125.,21.9376870703484));
#1464=CARTESIAN_POINT('Origin',(179.963812114844,-125.,21.9376870703484));
#1465=CARTESIAN_POINT('',(177.863812114844,-125.,-14.562313473544));
#1466=CARTESIAN_POINT('Origin',(179.963812114844,-125.,-14.562313473544));
#1467=CARTESIAN_POINT('',(210.088009978979,-125.,18.4972203676751));
#1468=CARTESIAN_POINT('',(215.016665314857,-125.,18.4972203676751));
#1469=CARTESIAN_POINT('',(177.294006066099,-125.,18.4972203676751));
#1470=CARTESIAN_POINT('',(215.016665314857,-125.,-11.4803194572359));
#1471=CARTESIAN_POINT('',(215.016665314857,-125.,10.9986102099146));
#1472=CARTESIAN_POINT('',(210.088009978979,-125.,-11.4803194572359));
#1473=CARTESIAN_POINT('',(179.758333734037,-125.,-11.4803194572359));
#1474=CARTESIAN_POINT('',(210.088009978979,-125.,-3.99015970254092));
#1475=CARTESIAN_POINT('Origin',(142.299123871882,-119.,-14.5646828431972));
#1476=CARTESIAN_POINT('',(177.86381345149,-121.,-14.5646828431972));
#1477=CARTESIAN_POINT('',(177.86381345149,-124.,-14.5646828431972));
#1478=CARTESIAN_POINT('',(177.86381345149,-125.,-14.5646828431972));
#1479=CARTESIAN_POINT('',(182.063810778197,-121.,-14.5646828431972));
#1480=CARTESIAN_POINT('',(161.131467993363,-121.,-14.5646828431972));
#1481=CARTESIAN_POINT('',(182.063810778197,-124.,-14.5646828431972));
#1482=CARTESIAN_POINT('',(182.063810778197,-125.,-14.5646828431972));
#1483=CARTESIAN_POINT('',(142.299123871882,-124.,-14.5646828431972));
#1484=CARTESIAN_POINT('Origin',(164.380125418622,-124.,6.25213922567588));
#1485=CARTESIAN_POINT('',(177.863812114844,-124.,21.9376870703484));
#1486=CARTESIAN_POINT('Origin',(179.963812114844,-124.,21.9376870703484));
#1487=CARTESIAN_POINT('Origin',(164.380125418622,-124.,6.25213922567588));
#1488=CARTESIAN_POINT('',(177.863812114844,-124.,-14.562313473544));
#1489=CARTESIAN_POINT('Origin',(179.963812114844,-124.,-14.562313473544));
#1490=CARTESIAN_POINT('Origin',(179.963812114844,-124.,-14.562313473544));
#1491=CARTESIAN_POINT('Origin',(179.963812114844,-125.,-14.562313473544));
#1492=CARTESIAN_POINT('',(177.863812114844,-125.,-14.562313473544));
#1493=CARTESIAN_POINT('Origin',(179.963812114844,-121.,-14.562313473544));
#1494=CARTESIAN_POINT('Origin',(220.016276488198,-125.,27.0000004023314));
#1495=CARTESIAN_POINT('',(220.016276488198,-140.,-20.0000002980232));
#1496=CARTESIAN_POINT('',(220.016276488198,-125.,-20.0000002980232));
#1497=CARTESIAN_POINT('',(220.016276488198,-140.,27.0000004023314));
#1498=CARTESIAN_POINT('',(220.016276488198,-140.,-20.0000002980232));
#1499=CARTESIAN_POINT('',(220.016276488198,-125.,27.0000004023314));
#1500=CARTESIAN_POINT('Origin',(105.000001564622,-125.,27.0000004023314));
#1501=CARTESIAN_POINT('',(105.000001564622,-140.,27.0000004023314));
#1502=CARTESIAN_POINT('',(105.000001564622,-140.,27.0000004023314));
#1503=CARTESIAN_POINT('',(105.000001564622,-125.,27.0000004023314));
#1504=CARTESIAN_POINT('Origin',(105.000001564622,-125.,-20.0000002980232));
#1505=CARTESIAN_POINT('',(105.000001564622,-140.,-20.0000002980232));
#1506=CARTESIAN_POINT('',(105.000001564622,-140.,-20.0000002980232));
#1507=CARTESIAN_POINT('',(105.000001564622,-125.,-20.0000002980232));
#1508=CARTESIAN_POINT('Origin',(220.016276488198,-125.,-20.0000002980232));
#1509=CARTESIAN_POINT('',(220.016276488198,-140.,-20.0000002980232));
#1510=CARTESIAN_POINT('Origin',(162.500002421439,-140.,3.50000005215406));
#1511=CARTESIAN_POINT('',(102.000001519918,-140.,-23.0000003427267));
#1512=CARTESIAN_POINT('',(223.000003322959,-140.,-23.0000003427267));
#1513=CARTESIAN_POINT('',(223.000003322959,-140.,-23.0000003427267));
#1514=CARTESIAN_POINT('',(223.000003322959,-140.,30.0000004470348));
#1515=CARTESIAN_POINT('',(223.000003322959,-140.,30.0000004470348));
#1516=CARTESIAN_POINT('',(102.000001519918,-140.,30.0000004470348));
#1517=CARTESIAN_POINT('',(102.000001519918,-140.,30.0000004470348));
#1518=CARTESIAN_POINT('',(102.000001519918,-140.,-23.0000003427267));
#1519=CARTESIAN_POINT('Origin',(210.088009978979,-125.,18.4972203676751));
#1520=CARTESIAN_POINT('',(210.088009978979,-119.,18.4972203676751));
#1521=CARTESIAN_POINT('',(210.088009978979,-121.,18.4972203676751));
#1522=CARTESIAN_POINT('',(215.016665314857,-119.,18.4972203676751));
#1523=CARTESIAN_POINT('',(177.294006066099,-119.,18.4972203676751));
#1524=CARTESIAN_POINT('',(215.016665314857,-125.,18.4972203676751));
#1525=CARTESIAN_POINT('Origin',(210.088009978979,-125.,-11.4803194572359));
#1526=CARTESIAN_POINT('',(210.088009978979,-119.,-11.4803194572359));
#1527=CARTESIAN_POINT('',(210.088009978979,-121.,-11.4803194572359));
#1528=CARTESIAN_POINT('',(210.088009978979,-119.,-3.99015970254092));
#1529=CARTESIAN_POINT('Origin',(215.016665314857,-125.,-11.4803194572359));
#1530=CARTESIAN_POINT('',(215.016665314857,-119.,-11.4803194572359));
#1531=CARTESIAN_POINT('',(215.016665314857,-121.,-11.4803194572359));
#1532=CARTESIAN_POINT('',(179.758333734037,-119.,-11.4803194572359));
#1533=CARTESIAN_POINT('Origin',(215.016665314857,-125.,18.4972203676751));
#1534=CARTESIAN_POINT('',(215.016665314857,-119.,10.9986102099146));
#1535=CARTESIAN_POINT('Origin',(102.000001519918,-125.,30.0000004470348));
#1536=CARTESIAN_POINT('',(102.000001519918,-119.,30.0000004470348));
#1537=CARTESIAN_POINT('',(102.000001519918,-121.,30.0000004470348));
#1538=CARTESIAN_POINT('',(223.000002786517,-119.,30.0000004470348));
#1539=CARTESIAN_POINT('',(223.000002786517,-121.,30.0000004470348));
#1540=CARTESIAN_POINT('',(123.250001836568,-119.,30.0000004470348));
#1541=CARTESIAN_POINT('Origin',(223.000002786517,-125.,30.0000004470348));
#1542=CARTESIAN_POINT('',(223.000002786517,-119.,-23.0000003427267));
#1543=CARTESIAN_POINT('',(223.000003322959,-125.,-23.0000003427267));
#1544=CARTESIAN_POINT('',(223.000002786517,-119.,16.7500002495944));
#1545=CARTESIAN_POINT('Origin',(102.000001519918,-125.,-23.0000003427267));
#1546=CARTESIAN_POINT('',(102.000001519918,-119.,-23.0000003427267));
#1547=CARTESIAN_POINT('',(102.000001519918,-125.,-23.0000003427267));
#1548=CARTESIAN_POINT('',(102.000001519918,-119.,-9.75000014528632));
#1549=CARTESIAN_POINT('Origin',(109.778308533869,-125.,22.056696071201));
#1550=CARTESIAN_POINT('',(107.778308533869,-121.,22.056696071201));
#1551=CARTESIAN_POINT('',(107.778308533869,-125.,22.056696071201));
#1552=CARTESIAN_POINT('Origin',(109.778308533869,-121.,22.056696071201));
#1553=CARTESIAN_POINT('Origin',(109.778308533869,-121.,22.056696071201));
#1554=CARTESIAN_POINT('Origin',(109.768808912972,-125.,-14.583630042516));
#1555=CARTESIAN_POINT('',(107.668808912972,-121.,-14.583630042516));
#1556=CARTESIAN_POINT('',(107.668808912972,-125.,-14.583630042516));
#1557=CARTESIAN_POINT('Origin',(109.768808912972,-121.,-14.583630042516));
#1558=CARTESIAN_POINT('Origin',(109.768808912972,-121.,-14.583630042516));
#1559=CARTESIAN_POINT('Origin',(179.963812114844,-125.,21.9376870703484));
#1560=CARTESIAN_POINT('',(177.863812114844,-125.,21.9376870703484));
#1561=CARTESIAN_POINT('Origin',(179.963812114844,-121.,-14.562313473544));
#1562=CARTESIAN_POINT('Origin',(179.981907361273,-119.,21.9376870703484));
#1563=CARTESIAN_POINT('',(165.750002469867,-119.,-23.0000003427267));
#1564=CARTESIAN_POINT('Origin',(187.000002786517,-125.,-23.0000003427267));
#1565=CARTESIAN_POINT('Origin',(215.016665314857,-125.,18.4972203676751));
#1566=CARTESIAN_POINT('',(210.088009978979,-142.,18.4972203676751));
#1567=CARTESIAN_POINT('',(215.016665314857,-142.,18.4972203676751));
#1568=CARTESIAN_POINT('',(188.758333868148,-142.,18.4972203676751));
#1569=CARTESIAN_POINT('',(210.088009978979,-140.,18.4972203676751));
#1570=CARTESIAN_POINT('',(210.088009978979,-125.,18.4972203676751));
#1571=CARTESIAN_POINT('',(215.016665314857,-140.,18.4972203676751));
#1572=CARTESIAN_POINT('',(188.758333868148,-140.,18.4972203676751));
#1573=CARTESIAN_POINT('',(215.016665314857,-125.,18.4972203676751));
#1574=CARTESIAN_POINT('Origin',(215.016665314857,-125.,-11.4803194572359));
#1575=CARTESIAN_POINT('',(215.016665314857,-142.,-11.4803194572359));
#1576=CARTESIAN_POINT('',(215.016665314857,-142.,-3.99015970254092));
#1577=CARTESIAN_POINT('',(215.016665314857,-140.,-11.4803194572359));
#1578=CARTESIAN_POINT('',(215.016665314857,-140.,-3.99015970254092));
#1579=CARTESIAN_POINT('',(215.016665314857,-125.,-11.4803194572359));
#1580=CARTESIAN_POINT('Origin',(210.088009978979,-125.,-11.4803194572359));
#1581=CARTESIAN_POINT('',(210.088009978979,-142.,-11.4803194572359));
#1582=CARTESIAN_POINT('',(186.294006200209,-142.,-11.4803194572359));
#1583=CARTESIAN_POINT('',(210.088009978979,-140.,-11.4803194572359));
#1584=CARTESIAN_POINT('',(186.294006200209,-140.,-11.4803194572359));
#1585=CARTESIAN_POINT('',(210.088009978979,-125.,-11.4803194572359));
#1586=CARTESIAN_POINT('Origin',(210.088009978979,-125.,18.4972203676751));
#1587=CARTESIAN_POINT('',(210.088009978979,-142.,10.9986102099146));
#1588=CARTESIAN_POINT('',(210.088009978979,-140.,10.9986102099146));
#1589=CARTESIAN_POINT('Origin',(130.109094185137,-140.,17.0620222660382));
#1590=CARTESIAN_POINT('',(130.109094185137,-140.,17.0620222660382));
#1591=CARTESIAN_POINT('',(130.109094185137,-140.,2.339789527842));
#1592=CARTESIAN_POINT('',(130.109094185137,-140.,17.0620222660382));
#1593=CARTESIAN_POINT('',(130.109094185137,-142.,2.339789527842));
#1594=CARTESIAN_POINT('',(130.109094185137,-140.,2.339789527842));
#1595=CARTESIAN_POINT('',(130.109094185137,-142.,17.0620222660382));
#1596=CARTESIAN_POINT('',(130.109094185137,-142.,17.0620222660382));
#1597=CARTESIAN_POINT('',(130.109094185137,-140.,17.0620222660382));
#1598=CARTESIAN_POINT('Origin',(115.386861446941,-140.,17.0620222660382));
#1599=CARTESIAN_POINT('',(115.386861446941,-140.,17.0620222660382));
#1600=CARTESIAN_POINT('',(115.386861446941,-140.,17.0620222660382));
#1601=CARTESIAN_POINT('',(115.386861446941,-142.,17.0620222660382));
#1602=CARTESIAN_POINT('',(115.386861446941,-142.,17.0620222660382));
#1603=CARTESIAN_POINT('',(115.386861446941,-140.,17.0620222660382));
#1604=CARTESIAN_POINT('Origin',(115.386861446941,-140.,2.339789527842));
#1605=CARTESIAN_POINT('',(115.386861446941,-140.,2.339789527842));
#1606=CARTESIAN_POINT('',(115.386861446941,-140.,2.339789527842));
#1607=CARTESIAN_POINT('',(115.386861446941,-142.,2.339789527842));
#1608=CARTESIAN_POINT('',(115.386861446941,-142.,2.339789527842));
#1609=CARTESIAN_POINT('',(115.386861446941,-140.,2.339789527842));
#1610=CARTESIAN_POINT('Origin',(130.109094185137,-140.,2.339789527842));
#1611=CARTESIAN_POINT('',(130.109094185137,-140.,2.339789527842));
#1612=CARTESIAN_POINT('',(130.109094185137,-142.,2.339789527842));
#1613=CARTESIAN_POINT('Origin',(149.248018045725,-140.,17.0620222660382));
#1614=CARTESIAN_POINT('',(149.248018045725,-140.,17.0620222660382));
#1615=CARTESIAN_POINT('',(149.248018045725,-140.,2.26789779485833));
#1616=CARTESIAN_POINT('',(149.248018045725,-140.,17.0620222660382));
#1617=CARTESIAN_POINT('',(149.248018045725,-142.,2.26789779485833));
#1618=CARTESIAN_POINT('',(149.248018045725,-140.,2.26789779485833));
#1619=CARTESIAN_POINT('',(149.248018045725,-142.,17.0620222660382));
#1620=CARTESIAN_POINT('',(149.248018045725,-142.,17.0620222660382));
#1621=CARTESIAN_POINT('',(149.248018045725,-140.,17.0620222660382));
#1622=CARTESIAN_POINT('Origin',(134.596226612496,-140.,17.0620222660382));
#1623=CARTESIAN_POINT('',(134.596226612496,-140.,17.0620222660382));
#1624=CARTESIAN_POINT('',(134.596226612496,-140.,17.0620222660382));
#1625=CARTESIAN_POINT('',(134.596226612496,-142.,17.0620222660382));
#1626=CARTESIAN_POINT('',(134.596226612496,-142.,17.0620222660382));
#1627=CARTESIAN_POINT('',(134.596226612496,-140.,17.0620222660382));
#1628=CARTESIAN_POINT('Origin',(134.596226612496,-140.,2.26789779485833));
#1629=CARTESIAN_POINT('',(134.596226612496,-140.,2.26789779485833));
#1630=CARTESIAN_POINT('',(134.596226612496,-140.,2.26789779485833));
#1631=CARTESIAN_POINT('',(134.596226612496,-142.,2.26789779485833));
#1632=CARTESIAN_POINT('',(134.596226612496,-142.,2.26789779485833));
#1633=CARTESIAN_POINT('',(134.596226612496,-140.,2.26789779485833));
#1634=CARTESIAN_POINT('Origin',(149.248018045725,-140.,2.26789779485833));
#1635=CARTESIAN_POINT('',(149.248018045725,-140.,2.26789779485833));
#1636=CARTESIAN_POINT('',(149.248018045725,-142.,2.26789779485833));
#1637=CARTESIAN_POINT('Origin',(149.157941483993,-140.,-2.21832474967465));
#1638=CARTESIAN_POINT('',(149.157941483993,-140.,-2.21832474967465));
#1639=CARTESIAN_POINT('',(149.157941483993,-140.,-16.8345893969446));
#1640=CARTESIAN_POINT('',(149.157941483993,-140.,-2.21832474967465));
#1641=CARTESIAN_POINT('',(149.157941483993,-142.,-16.8345893969446));
#1642=CARTESIAN_POINT('',(149.157941483993,-140.,-16.8345893969446));
#1643=CARTESIAN_POINT('',(149.157941483993,-142.,-2.21832474967465));
#1644=CARTESIAN_POINT('',(149.157941483993,-142.,-2.21832474967465));
#1645=CARTESIAN_POINT('',(149.157941483993,-140.,-2.21832474967465));
#1646=CARTESIAN_POINT('Origin',(134.752694618151,-140.,-2.21832474967465));
#1647=CARTESIAN_POINT('',(134.752694618151,-140.,-2.21832474967465));
#1648=CARTESIAN_POINT('',(134.752694618151,-140.,-2.21832474967465));
#1649=CARTESIAN_POINT('',(134.752694618151,-142.,-2.21832474967465));
#1650=CARTESIAN_POINT('',(134.752694618151,-142.,-2.21832474967465));
#1651=CARTESIAN_POINT('',(134.752694618151,-140.,-2.21832474967465));
#1652=CARTESIAN_POINT('Origin',(134.752694618151,-140.,-16.8345893969446));
#1653=CARTESIAN_POINT('',(134.752694618151,-140.,-16.8345893969446));
#1654=CARTESIAN_POINT('',(134.752694618151,-140.,-16.8345893969446));
#1655=CARTESIAN_POINT('',(134.752694618151,-142.,-16.8345893969446));
#1656=CARTESIAN_POINT('',(134.752694618151,-142.,-16.8345893969446));
#1657=CARTESIAN_POINT('',(134.752694618151,-140.,-16.8345893969446));
#1658=CARTESIAN_POINT('Origin',(149.157941483993,-140.,-16.8345893969446));
#1659=CARTESIAN_POINT('',(149.157941483993,-140.,-16.8345893969446));
#1660=CARTESIAN_POINT('',(149.157941483993,-142.,-16.8345893969446));
#1661=CARTESIAN_POINT('Origin',(130.000001937151,-140.,-2.21832474967465));
#1662=CARTESIAN_POINT('',(130.000001937151,-140.,-2.21832474967465));
#1663=CARTESIAN_POINT('',(130.000001937151,-140.,-17.0000002533197));
#1664=CARTESIAN_POINT('',(130.000001937151,-140.,-2.21832474967465));
#1665=CARTESIAN_POINT('',(130.000001937151,-142.,-17.0000002533197));
#1666=CARTESIAN_POINT('',(130.000001937151,-140.,-17.0000002533197));
#1667=CARTESIAN_POINT('',(130.000001937151,-142.,-2.21832474967465));
#1668=CARTESIAN_POINT('',(130.000001937151,-142.,-2.21832474967465));
#1669=CARTESIAN_POINT('',(130.000001937151,-140.,-2.21832474967465));
#1670=CARTESIAN_POINT('Origin',(115.385409250086,-140.,-2.21832474967465));
#1671=CARTESIAN_POINT('',(115.385409250086,-140.,-2.21832474967465));
#1672=CARTESIAN_POINT('',(115.385409250086,-140.,-2.21832474967465));
#1673=CARTESIAN_POINT('',(115.385409250086,-142.,-2.21832474967465));
#1674=CARTESIAN_POINT('',(115.385409250086,-142.,-2.21832474967465));
#1675=CARTESIAN_POINT('',(115.385409250086,-140.,-2.21832474967465));
#1676=CARTESIAN_POINT('Origin',(115.385409250086,-140.,-17.0000002533197));
#1677=CARTESIAN_POINT('',(115.385409250086,-140.,-17.0000002533197));
#1678=CARTESIAN_POINT('',(115.385409250086,-140.,-17.0000002533197));
#1679=CARTESIAN_POINT('',(115.385409250086,-142.,-17.0000002533197));
#1680=CARTESIAN_POINT('',(115.385409250086,-142.,-17.0000002533197));
#1681=CARTESIAN_POINT('',(115.385409250086,-140.,-17.0000002533197));
#1682=CARTESIAN_POINT('Origin',(130.000001937151,-140.,-17.0000002533197));
#1683=CARTESIAN_POINT('',(130.000001937151,-140.,-17.0000002533197));
#1684=CARTESIAN_POINT('',(130.000001937151,-142.,-17.0000002533197));
#1685=CARTESIAN_POINT('Origin',(102.000001519918,-140.,30.0000004470348));
#1686=CARTESIAN_POINT('',(102.000001519918,-140.,-23.0000003427267));
#1687=CARTESIAN_POINT('',(102.000001519918,-140.,30.0000004470348));
#1688=CARTESIAN_POINT('',(102.000001519918,-140.,-23.0000003427267));
#1689=CARTESIAN_POINT('',(102.000001519918,-142.,-23.0000003427267));
#1690=CARTESIAN_POINT('',(102.000001519918,-140.,-23.0000003427267));
#1691=CARTESIAN_POINT('',(102.000001519918,-142.,30.0000004470348));
#1692=CARTESIAN_POINT('',(102.000001519918,-142.,-23.0000003427267));
#1693=CARTESIAN_POINT('',(102.000001519918,-140.,30.0000004470348));
#1694=CARTESIAN_POINT('Origin',(223.000003322959,-140.,30.0000004470348));
#1695=CARTESIAN_POINT('',(223.000003322959,-140.,30.0000004470348));
#1696=CARTESIAN_POINT('',(102.000001519918,-140.,30.0000004470348));
#1697=CARTESIAN_POINT('',(223.000003322959,-142.,30.0000004470348));
#1698=CARTESIAN_POINT('',(102.000001519918,-142.,30.0000004470348));
#1699=CARTESIAN_POINT('',(223.000003322959,-140.,30.0000004470348));
#1700=CARTESIAN_POINT('Origin',(223.000003322959,-140.,-23.0000003427267));
#1701=CARTESIAN_POINT('',(223.000003322959,-140.,-23.0000003427267));
#1702=CARTESIAN_POINT('',(223.000003322959,-140.,30.0000004470348));
#1703=CARTESIAN_POINT('',(223.000003322959,-142.,-23.0000003427267));
#1704=CARTESIAN_POINT('',(223.000003322959,-142.,30.0000004470348));
#1705=CARTESIAN_POINT('',(223.000003322959,-140.,-23.0000003427267));
#1706=CARTESIAN_POINT('Origin',(102.000001519918,-140.,-23.0000003427267));
#1707=CARTESIAN_POINT('',(223.000003322959,-140.,-23.0000003427267));
#1708=CARTESIAN_POINT('',(223.000003322959,-142.,-23.0000003427267));
#1709=CARTESIAN_POINT('Origin',(162.500002421439,-142.,3.50000005215406));
#1710=CARTESIAN_POINT('Origin',(162.500002421439,-140.,3.50000005215406));
#1711=UNCERTAINTY_MEASURE_WITH_UNIT(LENGTH_MEASURE(0.01),#1715,
'DISTANCE_ACCURACY_VALUE',
'Maximum model space distance between geometric entities at asserted c
onnectivities');
#1712=UNCERTAINTY_MEASURE_WITH_UNIT(LENGTH_MEASURE(0.01),#1715,
'DISTANCE_ACCURACY_VALUE',
'Maximum model space distance between geometric entities at asserted c
onnectivities');
#1713=(
GEOMETRIC_REPRESENTATION_CONTEXT(3)
GLOBAL_UNCERTAINTY_ASSIGNED_CONTEXT((#1711))
GLOBAL_UNIT_ASSIGNED_CONTEXT((#1715,#1717,#1718))
REPRESENTATION_CONTEXT('','3D')
);
#1714=(
GEOMETRIC_REPRESENTATION_CONTEXT(3)
GLOBAL_UNCERTAINTY_ASSIGNED_CONTEXT((#1712))
GLOBAL_UNIT_ASSIGNED_CONTEXT((#1715,#1717,#1718))
REPRESENTATION_CONTEXT('','3D')
);
#1715=(
LENGTH_UNIT()
NAMED_UNIT(*)
SI_UNIT(.MILLI.,.METRE.)
);
#1716=(
LENGTH_UNIT()
NAMED_UNIT(*)
SI_UNIT($,.METRE.)
);
#1717=(
NAMED_UNIT(*)
PLANE_ANGLE_UNIT()
SI_UNIT($,.RADIAN.)
);
#1718=(
NAMED_UNIT(*)
SI_UNIT($,.STERADIAN.)
SOLID_ANGLE_UNIT()
);
#1719=SHAPE_DEFINITION_REPRESENTATION(#1720,#1721);
#1720=PRODUCT_DEFINITION_SHAPE('',$,#1723);
#1721=SHAPE_REPRESENTATION('',(#1085),#1713);
#1722=PRODUCT_DEFINITION_CONTEXT('part definition',#1727,'design');
#1723=PRODUCT_DEFINITION('2026-08-12-15-41-15-330','AAA battery holder',
#1724,#1722);
#1724=PRODUCT_DEFINITION_FORMATION('',$,#1729);
#1725=PRODUCT_RELATED_PRODUCT_CATEGORY('AAA battery holder',
'AAA battery holder',(#1729));
#1726=APPLICATION_PROTOCOL_DEFINITION('international standard',
'automotive_design',2009,#1727);
#1727=APPLICATION_CONTEXT(
'Core Data for Automotive Mechanical Design Process');
#1728=PRODUCT_CONTEXT('part definition',#1727,'mechanical');
#1729=PRODUCT('2026-08-12-15-41-15-330','AAA battery holder',$,(#1728));
#1730=PRESENTATION_STYLE_ASSIGNMENT((#1731));
#1731=SURFACE_STYLE_USAGE(.BOTH.,#1732);
#1732=SURFACE_SIDE_STYLE('',(#1733));
#1733=SURFACE_STYLE_FILL_AREA(#1734);
#1734=FILL_AREA_STYLE('Steel - Satin',(#1735));
#1735=FILL_AREA_STYLE_COLOUR('Steel - Satin',#1736);
#1736=COLOUR_RGB('Steel - Satin',0.627450980392157,0.627450980392157,0.627450980392157);
ENDSEC;
END-ISO-10303-21;
